<svg width="110" height="24" viewBox="0 0 110 24" fill="none" xmlns="http://www.w3.org/2000/svg">
<path d="M85.7028 17.0489C86.1786 17.0622 86.6524 16.9807 87.0965 16.8093C87.5406 16.6379 87.9462 16.38 88.2898 16.0505L89.5725 17.4452C88.7253 18.3163 87.5505 18.9642 85.7245 18.9642C82.5941 18.9642 80.5722 16.8888 80.5722 14.0775C80.5605 13.4334 80.6782 12.7935 80.9184 12.1958C81.1586 11.598 81.5163 11.0546 81.9704 10.5976C82.4245 10.1407 82.9657 9.77958 83.5619 9.53568C84.1581 9.29178 84.7973 9.17007 85.4414 9.17775C88.55 9.17775 90.3129 11.5438 90.1583 14.8233H82.8086C83.07 16.1844 84.0249 17.0554 85.6995 17.0554M87.9392 13.2598C87.7389 11.9858 86.981 11.0494 85.4599 11.0494C84.0477 11.0494 83.0623 11.8487 82.8086 13.2598H87.9392ZM37.4501 16.9476L43.1066 11.2019H37.5862V9.3879H45.7307V11.2389L40.0742 16.9825H45.8058V18.7867H37.4523L37.4501 16.9476ZM52.1548 17.05C52.6307 17.0632 53.1044 16.9818 53.5485 16.8104C53.9926 16.639 54.3983 16.381 54.7419 16.0515L56.0267 17.4452C55.1796 18.3163 54.0047 18.9642 52.1788 18.9642C49.0484 18.9642 47.0264 16.8888 47.0264 14.0775C47.0147 13.4334 47.1324 12.7935 47.3726 12.1958C47.6128 11.598 47.9705 11.0546 48.4246 10.5976C48.8787 10.1407 49.4199 9.77958 50.0161 9.53568C50.6124 9.29178 51.2515 9.17007 51.8957 9.17775C55.0043 9.17775 56.7671 11.5438 56.6125 14.8233H49.2629C49.5242 16.1844 50.4791 17.0554 52.1537 17.0554M54.3934 13.2598C54.1942 11.9858 53.4353 11.0494 51.9142 11.0494C50.502 11.0494 49.5166 11.8487 49.2629 13.2598H54.3934ZM68.8226 14.0655C68.8226 11.069 71.0656 9.18211 73.5373 9.18211C74.1303 9.17415 74.7178 9.29617 75.2586 9.53958C75.7994 9.78299 76.2804 10.1419 76.6676 10.5911V5.05435H78.6656V18.7736H76.6676V17.467C76.2876 17.9345 75.8072 18.3105 75.2621 18.5672C74.717 18.8239 74.1212 18.9547 73.5187 18.95C71.1211 18.95 68.8237 17.0554 68.8237 14.0688M76.7798 14.0514C76.709 11.4164 73.5133 10.1642 71.6623 12.0523C69.8113 13.9403 71.1614 17.1131 73.7997 17.1121C75.5157 17.1121 76.7787 15.7401 76.7787 14.0633M91.4594 16.7854L93.269 15.8468C93.7568 16.7179 94.6845 17.2438 95.683 17.2188C96.8154 17.2188 97.399 16.6373 97.399 15.9797C97.399 15.2175 96.3058 15.0585 95.1179 14.8146C93.5195 14.488 91.8557 13.949 91.8557 12.0163C91.8557 10.5323 93.268 9.16142 95.4924 9.18102C97.2346 9.18102 98.5477 9.87787 99.2881 11.0015L97.6113 11.9227C97.3792 11.5794 97.0635 11.3008 96.6939 11.1134C96.3243 10.9259 95.9131 10.8357 95.499 10.8513C94.4243 10.8513 93.8657 11.3772 93.8657 11.9782C93.8657 12.6533 94.7324 12.8417 96.0913 13.1433C97.6374 13.4699 99.3904 13.9882 99.3904 15.9416C99.3904 17.2482 98.2581 18.9827 95.5828 18.9642C93.6229 18.9642 92.2466 18.1748 91.4529 16.7865M104.815 14.6088L103.231 16.3368V18.7758H101.233V5.05653H103.231V14.0328L107.473 9.37592H109.906L106.228 13.4046L110 18.7747H107.739L104.815 14.6088ZM62.7731 9.19735C60.3972 9.19735 58.4178 10.738 58.4178 13.2914V18.7758H60.4539V13.5255C60.4539 11.9848 61.3391 11.0647 62.8515 11.0647C64.3639 11.0647 65.1162 11.9858 65.1162 13.5255V18.7562H67.1415V13.2718C67.1415 10.7184 65.1435 9.17775 62.7861 9.17775M14.6762 6.33917V24H0.0477295L14.6762 6.33917ZM14.6762 0C14.6765 1.9402 13.9061 3.80107 12.5346 5.17341C11.1631 6.54574 9.30269 7.31716 7.36249 7.31803C5.4223 7.31716 3.56188 6.54574 2.19036 5.17341C0.818843 3.80107 0.0485288 1.9402 0.0488177 0H14.6762ZM17.0857 23.9978C17.0866 22.0584 17.8574 20.1986 19.2288 18.8272C20.6002 17.4558 22.46 16.685 24.3994 16.6841C26.3389 16.685 28.1986 17.4558 29.57 18.8272C30.9414 20.1986 31.7122 22.0584 31.7131 23.9978H17.0857ZM17.0857 17.6587V0.00217646H31.7142L17.0857 17.6587Z" fill="#03363D"/>
</svg>
