<svg xmlns="http://www.w3.org/2000/svg" viewBox="0 0 16 16" fill="none">
  <path
    d="M8 2.51172C8.14556 2.51172 8.28515 2.56954 8.38808 2.67247C8.491 2.77539 8.54883 2.91499 8.54883 3.06055V4.70703C8.54883 4.85259 8.491 4.99219 8.38808 5.09511C8.28515 5.19804 8.14556 5.25586 8 5.25586C7.85444 5.25586 7.71484 5.19804 7.61192 5.09511C7.50899 4.99219 7.45117 4.85259 7.45117 4.70703V3.06055C7.45117 2.91499 7.50899 2.77539 7.61192 2.67247C7.71484 2.56954 7.85444 2.51172 8 2.51172ZM8 10.7441C8.14556 10.7441 8.28515 10.802 8.38808 10.9049C8.491 11.0078 8.54883 11.1474 8.54883 11.293V12.9395C8.54883 13.085 8.491 13.2246 8.38808 13.3275C8.28515 13.4305 8.14556 13.4883 8 13.4883C7.85444 13.4883 7.71484 13.4305 7.61192 13.3275C7.50899 13.2246 7.45117 13.085 7.45117 12.9395V11.293C7.45117 11.1474 7.50899 11.0078 7.61192 10.9049C7.71484 10.802 7.85444 10.7441 8 10.7441ZM13.4883 8C13.4883 8.14556 13.4305 8.28515 13.3275 8.38808C13.2246 8.491 13.085 8.54883 12.9395 8.54883H11.293C11.1474 8.54883 11.0078 8.491 10.9049 8.38808C10.802 8.28515 10.7441 8.14556 10.7441 8C10.7441 7.85444 10.802 7.71484 10.9049 7.61192C11.0078 7.50899 11.1474 7.45117 11.293 7.45117H12.9395C13.085 7.45117 13.2246 7.50899 13.3275 7.61192C13.4305 7.71484 13.4883 7.85444 13.4883 8ZM5.25586 8C5.25586 8.14556 5.19804 8.28515 5.09511 8.38808C4.99219 8.491 4.85259 8.54883 4.70703 8.54883H3.06055C2.91499 8.54883 2.77539 8.491 2.67247 8.38808C2.56954 8.28515 2.51172 8.14556 2.51172 8C2.51172 7.85444 2.56954 7.71484 2.67247 7.61192C2.77539 7.50899 2.91499 7.45117 3.06055 7.45117H4.70703C4.85259 7.45117 4.99219 7.50899 5.09511 7.61192C5.19804 7.71484 5.25586 7.85444 5.25586 8ZM11.8808 11.8808C11.7778 11.9837 11.6383 12.0415 11.4927 12.0415C11.3472 12.0415 11.2076 11.9837 11.1047 11.8808L9.94066 10.7167C9.84068 10.6132 9.78536 10.4746 9.78661 10.3307C9.78786 10.1868 9.84558 10.0491 9.94734 9.94734C10.0491 9.84558 10.1868 9.78786 10.3307 9.78661C10.4746 9.78536 10.6132 9.84068 10.7167 9.94066L11.8808 11.1042C11.9318 11.1551 11.9723 11.2157 11.9999 11.2823C12.0275 11.3489 12.0417 11.4203 12.0417 11.4925C12.0417 11.5646 12.0275 11.636 11.9999 11.7026C11.9723 11.7693 11.9318 11.8298 11.8808 11.8808ZM6.05934 6.05934C5.95642 6.16223 5.81685 6.22003 5.67132 6.22003C5.52579 6.22003 5.38622 6.16223 5.2833 6.05934L4.11978 4.89583C4.0168 4.79292 3.95892 4.65331 3.95887 4.50773C3.95882 4.36214 4.0166 4.22249 4.11951 4.11951C4.22242 4.01653 4.36202 3.95864 4.50761 3.95859C4.6532 3.95854 4.79285 4.01633 4.89583 4.11924L6.05934 5.2833C6.16223 5.38622 6.22003 5.52579 6.22003 5.67132C6.22003 5.81685 6.16223 5.95642 6.05934 6.05934ZM4.11978 11.8808C4.0169 11.7778 3.9591 11.6383 3.9591 11.4927C3.9591 11.3472 4.0169 11.2076 4.11978 11.1047L5.28385 9.94066C5.33448 9.88824 5.39504 9.84643 5.462 9.81766C5.52896 9.7889 5.60097 9.77376 5.67385 9.77313C5.74672 9.77249 5.81899 9.78638 5.88644 9.81397C5.95389 9.84157 6.01516 9.88232 6.06669 9.93385C6.11823 9.98538 6.15898 10.0467 6.18657 10.1141C6.21417 10.1816 6.22806 10.2538 6.22742 10.3267C6.22679 10.3996 6.21165 10.4716 6.18289 10.5386C6.15412 10.6055 6.11231 10.6661 6.05989 10.7167L4.89638 11.8808C4.84541 11.9318 4.78488 11.9723 4.71825 11.9999C4.65162 12.0275 4.58021 12.0417 4.50808 12.0417C4.43596 12.0417 4.36454 12.0275 4.29791 11.9999C4.23129 11.9723 4.17076 11.9318 4.11978 11.8808ZM9.94066 6.05934C9.83777 5.95642 9.77997 5.81685 9.77997 5.67132C9.77997 5.52579 9.83777 5.38622 9.94066 5.2833L11.1042 4.11924C11.2071 4.01625 11.3467 3.95837 11.4923 3.95832C11.6379 3.95827 11.7775 4.01605 11.8805 4.11896C11.9835 4.22187 12.0414 4.36148 12.0414 4.50706C12.0415 4.65265 11.9837 4.7923 11.8808 4.89528L10.7167 6.05934C10.6138 6.16223 10.4742 6.22003 10.3287 6.22003C10.1831 6.22003 10.0436 6.16223 9.94066 6.05934Z"
    fill="currentColor"/>
  <path
    d="M16 0.666667V4C16 4.17681 15.9298 4.34638 15.8047 4.4714C15.6797 4.59643 15.5101 4.66667 15.3333 4.66667C15.1565 4.66667 14.987 4.59643 14.8619 4.4714C14.7369 4.34638 14.6667 4.17681 14.6667 4V1.33333H12C11.8232 1.33333 11.6536 1.2631 11.5286 1.13807C11.4036 1.01305 11.3333 0.843478 11.3333 0.666667C11.3333 0.489856 11.4036 0.320287 11.5286 0.195262C11.6536 0.070238 11.8232 0 12 0H15.3333C15.5101 0 15.6797 0.070238 15.8047 0.195262C15.9298 0.320287 16 0.489856 16 0.666667ZM4 14.6667H1.33333V12C1.33333 11.8232 1.2631 11.6536 1.13807 11.5286C1.01305 11.4036 0.843478 11.3333 0.666667 11.3333C0.489856 11.3333 0.320287 11.4036 0.195262 11.5286C0.070238 11.6536 0 11.8232 0 12V15.3333C0 15.5101 0.070238 15.6797 0.195262 15.8047C0.320287 15.9298 0.489856 16 0.666667 16H4C4.17681 16 4.34638 15.9298 4.4714 15.8047C4.59643 15.6797 4.66667 15.5101 4.66667 15.3333C4.66667 15.1565 4.59643 14.987 4.4714 14.8619C4.34638 14.7369 4.17681 14.6667 4 14.6667ZM15.3333 11.3333C15.1565 11.3333 14.987 11.4036 14.8619 11.5286C14.7369 11.6536 14.6667 11.8232 14.6667 12V14.6667H12C11.8232 14.6667 11.6536 14.7369 11.5286 14.8619C11.4036 14.987 11.3333 15.1565 11.3333 15.3333C11.3333 15.5101 11.4036 15.6797 11.5286 15.8047C11.6536 15.9298 11.8232 16 12 16H15.3333C15.5101 16 15.6797 15.9298 15.8047 15.8047C15.9298 15.6797 16 15.5101 16 15.3333V12C16 11.8232 15.9298 11.6536 15.8047 11.5286C15.6797 11.4036 15.5101 11.3333 15.3333 11.3333ZM0.666667 4.66667C0.843478 4.66667 1.01305 4.59643 1.13807 4.4714C1.2631 4.34638 1.33333 4.17681 1.33333 4V1.33333H4C4.17681 1.33333 4.34638 1.2631 4.4714 1.13807C4.59643 1.01305 4.66667 0.843478 4.66667 0.666667C4.66667 0.489856 4.59643 0.320287 4.4714 0.195262C4.34638 0.070238 4.17681 0 4 0H0.666667C0.489856 0 0.320287 0.070238 0.195262 0.195262C0.070238 0.320287 0 0.489856 0 0.666667V4C0 4.17681 0.070238 4.34638 0.195262 4.4714C0.320287 4.59643 0.489856 4.66667 0.666667 4.66667Z"
    fill="currentColor"/>
</svg>
