<svg viewBox="0 0 16 16" fill="none" xmlns="http://www.w3.org/2000/svg">
  <mask id="mask0_1_13" style="mask-type:luminance" maskUnits="userSpaceOnUse" x="0" y="0" width="16" height="16">
    <path d="M16 0H0V16H16V0Z" fill="white"/>
  </mask>
  <g mask="url(#mask0_1_13)">
    <path
      d="M7.20662 9.10706V10.2005C6.31611 10.2005 5.46208 10.546 4.83239 11.1612C4.20271 11.7764 3.84896 12.6107 3.84896 13.4806H2.72974C2.72974 12.3207 3.20141 11.2083 4.04098 10.3881C4.88056 9.56785 6.01928 9.10706 7.20662 9.10706ZM7.20662 8.56036C5.35151 8.56036 3.84896 7.09248 3.84896 5.28018C3.84896 3.46788 5.35151 2 7.20662 2C9.06173 2 10.5643 3.46788 10.5643 5.28018C10.5643 7.09248 9.06173 8.56036 7.20662 8.56036ZM7.20662 7.46697C8.44336 7.46697 9.44506 6.48838 9.44506 5.28018C9.44506 4.07198 8.44336 3.09339 7.20662 3.09339C5.96988 3.09339 4.96818 4.07198 4.96818 5.28018C4.96818 6.48838 5.96988 7.46697 7.20662 7.46697Z"
      fill="currentColor"/>
    <mask id="mask1_1_13" style="mask-type:luminance" maskUnits="userSpaceOnUse" x="7" y="8" width="9" height="8">
      <path
        d="M15.0131 11.9422C15.0131 9.86936 13.3327 8.18896 11.2599 8.18896C9.18699 8.18896 7.50659 9.86936 7.50659 11.9422C7.50659 14.0151 9.18699 15.6955 11.2599 15.6955C13.3327 15.6955 15.0131 14.0151 15.0131 11.9422Z"
        fill="white"/>
    </mask>
    <g mask="url(#mask1_1_13)">
      <path
        d="M11.2608 8.81274C11.3437 8.81274 11.4233 8.8457 11.4819 8.90435C11.5406 8.96301 11.5736 9.04256 11.5736 9.12552V10.0638C11.5736 10.1468 11.5406 10.2263 11.4819 10.285C11.4233 10.3437 11.3437 10.3766 11.2608 10.3766C11.1778 10.3766 11.0983 10.3437 11.0396 10.285C10.981 10.2263 10.948 10.1468 10.948 10.0638V9.12552C10.948 9.04256 10.981 8.96301 11.0396 8.90435C11.0983 8.8457 11.1778 8.81274 11.2608 8.81274ZM11.2608 13.5043C11.3437 13.5043 11.4233 13.5373 11.4819 13.5959C11.5406 13.6546 11.5736 13.7342 11.5736 13.8171V14.7554C11.5736 14.8384 11.5406 14.9179 11.4819 14.9766C11.4233 15.0353 11.3437 15.0682 11.2608 15.0682C11.1778 15.0682 11.0983 15.0353 11.0396 14.9766C10.981 14.9179 10.948 14.8384 10.948 14.7554V13.8171C10.948 13.7342 10.981 13.6546 11.0396 13.5959C11.0983 13.5373 11.1778 13.5043 11.2608 13.5043ZM14.3885 11.9405C14.3885 12.0234 14.3556 12.103 14.2969 12.1616C14.2383 12.2203 14.1587 12.2532 14.0757 12.2532H13.1374C13.0545 12.2532 12.9749 12.2203 12.9163 12.1616C12.8576 12.103 12.8247 12.0234 12.8247 11.9405C12.8247 11.8575 12.8576 11.778 12.9163 11.7193C12.9749 11.6607 13.0545 11.6277 13.1374 11.6277H14.0757C14.1587 11.6277 14.2383 11.6607 14.2969 11.7193C14.3556 11.778 14.3885 11.8575 14.3885 11.9405ZM9.69692 11.9405C9.69692 12.0234 9.66397 12.103 9.60531 12.1616C9.54666 12.2203 9.4671 12.2532 9.38415 12.2532H8.44583C8.36288 12.2532 8.28332 12.2203 8.22467 12.1616C8.16601 12.103 8.13306 12.0234 8.13306 11.9405C8.13306 11.8575 8.16601 11.778 8.22467 11.7193C8.28332 11.6607 8.36288 11.6277 8.44583 11.6277H9.38415C9.4671 11.6277 9.54666 11.6607 9.60531 11.7193C9.66397 11.778 9.69692 11.8575 9.69692 11.9405ZM13.4724 14.1521C13.4137 14.2107 13.3342 14.2437 13.2513 14.2437C13.1683 14.2437 13.0888 14.2107 13.0301 14.1521L12.3668 13.4887C12.3098 13.4297 12.2783 13.3507 12.279 13.2687C12.2797 13.1867 12.3126 13.1082 12.3706 13.0502C12.4286 12.9923 12.507 12.9594 12.589 12.9587C12.671 12.9579 12.75 12.9895 12.809 13.0464L13.4724 13.7095C13.5015 13.7386 13.5246 13.7731 13.5403 13.811C13.556 13.849 13.5641 13.8897 13.5641 13.9308C13.5641 13.9719 13.556 14.0126 13.5403 14.0506C13.5246 14.0885 13.5015 14.123 13.4724 14.1521ZM10.1548 10.8345C10.0962 10.8931 10.0166 10.9261 9.93369 10.9261C9.85075 10.9261 9.77121 10.8931 9.71256 10.8345L9.04948 10.1714C8.99079 10.1128 8.9578 10.0332 8.95778 9.95025C8.95775 9.86728 8.99068 9.7877 9.04932 9.72901C9.10797 9.67032 9.18753 9.63734 9.2705 9.63731C9.35347 9.63728 9.43305 9.67021 9.49174 9.72886L10.1548 10.3922C10.2135 10.4509 10.2464 10.5304 10.2464 10.6134C10.2464 10.6963 10.2135 10.7759 10.1548 10.8345ZM9.04948 14.1521C8.99085 14.0934 8.95791 14.0139 8.95791 13.931C8.95791 13.848 8.99085 13.7685 9.04948 13.7098L9.71287 13.0464C9.74173 13.0166 9.77624 12.9927 9.8144 12.9763C9.85256 12.96 9.8936 12.9513 9.93513 12.951C9.97666 12.9506 10.0178 12.9585 10.0563 12.9742C10.0947 12.99 10.1296 13.0132 10.159 13.0426C10.1884 13.0719 10.2116 13.1069 10.2273 13.1453C10.2431 13.1837 10.251 13.2249 10.2506 13.2664C10.2502 13.308 10.2416 13.349 10.2252 13.3872C10.2088 13.4253 10.185 13.4598 10.1551 13.4887L9.49205 14.1521C9.46301 14.1812 9.42851 14.2042 9.39054 14.22C9.35257 14.2357 9.31187 14.2438 9.27077 14.2438C9.22966 14.2438 9.18896 14.2357 9.15099 14.22C9.11302 14.2042 9.07853 14.1812 9.04948 14.1521ZM12.3668 10.8345C12.3081 10.7759 12.2752 10.6963 12.2752 10.6134C12.2752 10.5304 12.3081 10.4509 12.3668 10.3922L13.0298 9.72886C13.0885 9.67017 13.168 9.63718 13.251 9.63715C13.334 9.63712 13.4136 9.67005 13.4722 9.7287C13.5309 9.78735 13.5639 9.86691 13.564 9.94988C13.564 10.0328 13.5311 10.1124 13.4724 10.1711L12.809 10.8345C12.7504 10.8931 12.6708 10.9261 12.5879 10.9261C12.5049 10.9261 12.4254 10.8931 12.3668 10.8345Z"
        fill="currentColor"/>
    </g>
  </g>
</svg>
