<?xml version="1.0" encoding="UTF-8" standalone="no" ?>
<!DOCTYPE svg PUBLIC "-//W3C//DTD SVG 1.1//EN" "http://www.w3.org/Graphics/SVG/1.1/DTD/svg11.dtd">
<svg xmlns="http://www.w3.org/2000/svg" xmlns:xlink="http://www.w3.org/1999/xlink" version="1.1" width="454" height="111" viewBox="15 199 454 111" xml:space="preserve">
<desc>Created with Fabric.js 4.6.0</desc>
<defs>
</defs>
<g transform="matrix(0.97 0 0 0.97 41.29 257.69)" id="rWmxiXXo9VteKxmNzYiSJ"  >
<path style="stroke: none; stroke-width: 1; stroke-dasharray: none; stroke-linecap: butt; stroke-dashoffset: 0; stroke-linejoin: miter; stroke-miterlimit: 4; fill: rgb(142,148,161); fill-rule: nonzero; opacity: 1;" vector-effect="non-scaling-stroke"  transform=" translate(-47.24, -220.79)" d="M 26.98 175.72 L 34.82 172.96 L 67.5 265.86 L 59.66 268.61 L 26.98 175.72 Z" stroke-linecap="round" />
</g>
<g transform="matrix(0.97 0 0 0.97 107.61 247.12)" id="cxLflhggiA2Bw7Xb_RTCV"  >
<path style="stroke: none; stroke-width: 1; stroke-dasharray: none; stroke-linecap: butt; stroke-dashoffset: 0; stroke-linejoin: miter; stroke-miterlimit: 4; fill: rgb(95,100,110); fill-rule: nonzero; opacity: 1;" vector-effect="non-scaling-stroke"  transform=" translate(-115.89, -209.83)" d="M 95.1 230.93 L 149.01 232.04 L 137.5 189.85 L 82.78 187.63 L 95.1 230.93 Z" stroke-linecap="round" />
</g>
<g transform="matrix(0.97 0 0 0.97 107.61 247.12)" id="9TIk8t8Q_yFeTF9Sa5k3A"  >
<path style="stroke: rgb(0,0,0); stroke-width: 0; stroke-dasharray: none; stroke-linecap: butt; stroke-dashoffset: 0; stroke-linejoin: miter; stroke-miterlimit: 4; fill: rgb(0,0,0); fill-opacity: 0; fill-rule: nonzero; opacity: 1;" vector-effect="non-scaling-stroke"  transform=" translate(-115.89, -209.83)" d="M 95.1 230.93 L 149.01 232.04 L 137.5 189.85 L 82.78 187.63 L 95.1 230.93 Z" stroke-linecap="round" />
</g>
<g transform="matrix(0.97 0 0 0.97 69.13 233.05)" id="M7sLfsgMCkZIsUzSFDiAM"  >
<filter id="SVGID_3" y="-20%" height="140%" x="-20%" width="140%" >
	<feGaussianBlur in="SourceAlpha" stdDeviation="0"></feGaussianBlur>
	<feOffset dx="0" dy="0" result="oBlur" ></feOffset>
	<feFlood flood-color="rgb(142,148,161)" flood-opacity="1"/>
	<feComposite in2="oBlur" operator="in" />
	<feMerge>
		<feMergeNode></feMergeNode>
		<feMergeNode in="SourceGraphic"></feMergeNode>
	</feMerge>
</filter>
<path style="stroke: none; stroke-width: 1; stroke-dasharray: none; stroke-linecap: butt; stroke-dashoffset: 0; stroke-linejoin: miter; stroke-miterlimit: 4; fill: rgb(142,148,161); fill-rule: nonzero; opacity: 1;filter: url(#SVGID_3);" vector-effect="non-scaling-stroke"  transform=" translate(-76.06, -195.27)" d="M 49.89 216.36 L 117.74 217.47 L 103.25 175.29 L 34.38 173.07 L 49.89 216.36 Z" stroke-linecap="round" />
</g>
<g transform="matrix(0.97 0 0 0.97 69.13 233.05)" id="zhO-FGJ36L6rmaALOBi-W"  >
<path style="stroke: rgb(0,0,0); stroke-width: 0; stroke-dasharray: none; stroke-linecap: butt; stroke-dashoffset: 0; stroke-linejoin: miter; stroke-miterlimit: 4; fill: rgb(0,0,0); fill-opacity: 0; fill-rule: nonzero; opacity: 1;" vector-effect="non-scaling-stroke"  transform=" translate(-76.06, -195.27)" d="M 49.89 216.36 L 117.74 217.47 L 103.25 175.29 L 34.38 173.07 L 49.89 216.36 Z" stroke-linecap="round" />
</g>
<g transform="matrix(0.97 0 0 0.97 96.2 260.71)" id="sD1eTUBDinf-u2vAlafuE"  >
<path style="stroke: none; stroke-width: 1; stroke-dasharray: none; stroke-linecap: butt; stroke-dashoffset: 0; stroke-linejoin: miter; stroke-miterlimit: 4; fill: rgb(2,6,15); fill-rule: nonzero; opacity: 1;" vector-effect="non-scaling-stroke"  transform=" translate(-104.08, -223.91)" d="M 90.49 217.03 L 117.67 217.52 L 95.32 230.79 L 90.49 217.03 Z" stroke-linecap="round" />
</g>
<g transform="matrix(0.97 0 0 0.97 96.2 260.71)" id="SsLmqv15lA2H1stpAQwEC"  >
<path style="stroke: rgb(0,0,0); stroke-width: 0; stroke-dasharray: none; stroke-linecap: butt; stroke-dashoffset: 0; stroke-linejoin: miter; stroke-miterlimit: 4; fill: rgb(0,0,0); fill-opacity: 0; fill-rule: nonzero; opacity: 1;" vector-effect="non-scaling-stroke"  transform=" translate(-104.08, -223.91)" d="M 90.49 217.03 L 117.67 217.52 L 95.32 230.79 L 90.49 217.03 Z" stroke-linecap="round" />
</g>
<g transform="matrix(0.97 0 0 0.97 304.94 250)" style="" id="xZda40ejk7vR3F3DLys0q"  >
		<text xml:space="preserve" font-family="Oxygen" font-size="81" font-style="normal" font-weight="normal" line-height="1.16" style="stroke: none; stroke-width: 1; stroke-dasharray: none; stroke-linecap: butt; stroke-dashoffset: 0; stroke-linejoin: miter; stroke-miterlimit: 4; fill: rgb(142,148,161); fill-rule: nonzero; opacity: 1; white-space: pre;" ><tspan x="-162.97" y="25.45" >Flagright</tspan></text>
</g>
</svg>