<svg width="16" height="16" viewBox="0 0 16 16" fill="none" xmlns="http://www.w3.org/2000/svg">
<g clip-path="url(#clip0_927_17984)">
<path d="M10.6667 1.33334V2.66668H9.99999V4.82868C9.99999 5.60068 10.1673 6.36268 10.4907 7.06334L13.3453 13.2473C13.5767 13.7493 13.3573 14.3433 12.856 14.574C12.7247 14.6353 12.582 14.6667 12.4373 14.6667H3.56265C3.01065 14.6667 2.56265 14.2187 2.56265 13.6667C2.56265 13.522 2.59399 13.3787 2.65465 13.2473L5.50932 7.06334C5.83265 6.36334 5.99999 5.60068 5.99999 4.82868V2.66668H5.33332V1.33334H10.6667ZM8.92532 6.66734H7.07465C7.00532 6.90934 6.92132 7.14801 6.82532 7.38134L6.71999 7.62201L4.08332 13.3333H11.916L9.27999 7.62201C9.13732 7.31268 9.01865 6.99334 8.92532 6.66734ZM7.33332 4.82868C7.33332 4.99734 7.32665 5.16601 7.31399 5.33401H8.68599C8.67932 5.25334 8.67532 5.17268 8.67199 5.09134L8.66665 4.82868V2.66668H7.33332V4.82868Z" fill="#262626"/>
</g>
<defs>
<clipPath id="clip0_927_17984">
<rect width="16" height="16" fill="white"/>
</clipPath>
</defs>
</svg>
