<svg viewBox="0 0 16 16" fill="none" xmlns="http://www.w3.org/2000/svg">
<g id="git-merge-line">
<path id="Vector" d="M4.73672 5.85994C4.96786 6.709 5.74435 7.33333 6.66667 7.33333H9.33333C10.9802 7.33333 12.3481 8.52767 12.6183 10.0974C13.4202 10.3578 14 11.1112 14 12C14 13.1046 13.1046 14 12 14C10.8954 14 10 13.1046 10 12C10 11.1556 10.5233 10.4334 11.2633 10.1401C11.0321 9.291 10.2557 8.66667 9.33333 8.66667H6.66667C5.91626 8.66667 5.22377 8.41873 4.66667 8.00027V10.1138C5.44346 10.3883 6 11.1292 6 12C6 13.1046 5.10457 14 4 14C2.89543 14 2 13.1046 2 12C2 11.1292 2.55654 10.3883 3.33333 10.1138V5.88619C2.55654 5.61164 2 4.87081 2 4C2 2.89543 2.89543 2 4 2C5.10457 2 6 2.89543 6 4C6 4.84441 5.47671 5.56659 4.73672 5.85994ZM4 4.66667C4.36819 4.66667 4.66667 4.36819 4.66667 4C4.66667 3.63181 4.36819 3.33333 4 3.33333C3.63181 3.33333 3.33333 3.63181 3.33333 4C3.33333 4.36819 3.63181 4.66667 4 4.66667ZM4 12.6667C4.36819 12.6667 4.66667 12.3682 4.66667 12C4.66667 11.6318 4.36819 11.3333 4 11.3333C3.63181 11.3333 3.33333 11.6318 3.33333 12C3.33333 12.3682 3.63181 12.6667 4 12.6667ZM12 12.6667C12.3682 12.6667 12.6667 12.3682 12.6667 12C12.6667 11.6318 12.3682 11.3333 12 11.3333C11.6318 11.3333 11.3333 11.6318 11.3333 12C11.3333 12.3682 11.6318 12.6667 12 12.6667Z" fill="currentColor"/>
</g>
</svg>
