<svg viewBox="0 0 13 14" fill="none" xmlns="http://www.w3.org/2000/svg">
<g id="Vector">
<mask id="path-1-outside-1_2421_4324" maskUnits="userSpaceOnUse" x="-0.350098" y="-0.475098" width="13" height="15" fill="black">
<rect fill="white" x="-0.350098" y="-0.475098" width="13" height="15"/>
<path d="M11.8952 7.74128C11.9291 7.68521 11.959 7.62703 11.985 7.56697C12.3273 6.75786 11.8797 5.83169 11.7167 5.53974C11.7748 5.16929 11.8899 3.93715 10.9671 3.46455C10.7826 3.36946 10.5871 3.29718 10.3851 3.24922C10.5539 2.33434 10.1303 1.69084 9.62601 1.46682C9.51095 1.41664 9.38871 1.38526 9.26377 1.37386C9.25977 1.37021 9.25801 1.36516 9.25354 1.36151C8.33205 0.622804 7.38059 0.346379 6.7655 0.640918C6.64432 0.69898 6.53654 0.781842 6.4492 0.883978C6.36199 0.781724 6.25432 0.698863 6.13326 0.640683C5.51877 0.346613 4.56545 0.621995 3.64522 1.36128C3.64076 1.36492 3.63888 1.36998 3.635 1.37362C3.50994 1.38479 3.38758 1.41617 3.27263 1.46659C2.76839 1.69061 2.34479 2.3354 2.51356 3.24899C2.31152 3.29683 2.11605 3.36923 1.93151 3.46431C1.01002 3.93692 1.12379 5.16902 1.18198 5.53951C1.01896 5.8317 0.570082 6.75798 0.913644 7.56674C0.93962 7.6268 0.969592 7.68498 1.00344 7.74104C0.662349 8.13972 0.559262 8.68989 0.732755 9.18507C0.860635 9.63357 1.14354 10.0219 1.5313 10.2811C1.45502 10.8512 1.63074 11.4263 2.01261 11.8565C2.25897 12.158 2.60264 12.364 2.98465 12.4391C3.11876 12.7534 3.34443 13.0201 3.63206 13.2046C3.91967 13.389 4.25617 13.4827 4.59775 13.4735C4.69813 13.4734 4.79839 13.4668 4.89794 13.4538C5.52124 13.4131 6.09213 13.0909 6.4492 12.5784C6.80604 13.0913 7.37692 13.4139 8.00047 13.4548C8.10002 13.4679 8.20028 13.4745 8.30066 13.4746C8.64224 13.4837 8.97861 13.3901 9.26635 13.2055C9.55396 13.0211 9.77953 12.7544 9.91376 12.4401C10.2957 12.365 10.6394 12.159 10.8858 11.8575C11.2677 11.4273 11.4434 10.8523 11.3671 10.2821C11.755 10.0227 12.038 9.6339 12.1657 9.18504C12.3391 8.68999 12.2362 8.13996 11.8952 7.74128ZM4.83109 12.9328C3.73 13.0715 3.45389 12.212 3.42675 12.1147C3.39314 11.9889 3.27266 11.9066 3.14314 11.9211C2.85117 11.897 2.58377 11.7478 2.40995 11.5119C2.08919 11.1491 1.96811 10.6512 2.0866 10.1815C2.10518 10.1087 2.09166 10.0312 2.04934 9.96891C2.00703 9.90661 1.94015 9.86536 1.86552 9.8556C1.72882 9.83774 1.37822 9.50441 1.23728 9.03475C1.13361 8.73751 1.17745 8.40863 1.35517 8.14879C1.6978 8.41277 2.09988 8.58823 2.52631 8.66006C2.667 8.68533 2.80217 8.59365 2.83073 8.45366C2.85929 8.31356 2.7709 8.17628 2.63162 8.14432C1.97765 8.0101 1.56275 7.74706 1.39864 7.36262C1.10057 6.66386 1.67462 5.73875 1.68061 5.7303C1.71693 5.672 1.72939 5.60207 1.7154 5.53472C1.71282 5.52238 1.46234 4.29732 2.17144 3.93378C2.72433 3.65029 3.27323 3.64653 3.6751 3.92426C3.8601 4.05908 4.00516 4.24137 4.09494 4.45199C4.18474 4.66261 4.21589 4.89358 4.18498 5.12041C4.16887 5.26498 4.27313 5.39521 4.4177 5.41131C4.56227 5.42742 4.69262 5.32316 4.70861 5.17859C4.75021 4.857 4.70379 4.53027 4.5745 4.2329C4.44509 3.93566 4.23764 3.67897 3.97412 3.49019C3.6992 3.30178 3.37504 3.19835 3.04183 3.19236C2.90831 2.53712 3.16477 2.0906 3.48577 1.94792C3.8707 1.77702 4.31359 1.99611 4.64126 2.51972C4.71849 2.64325 4.88128 2.68087 5.00481 2.60365C5.12846 2.52654 5.16607 2.36376 5.08885 2.24011C4.90984 1.93251 4.64939 1.6804 4.33613 1.51163C5.03017 1.05723 5.60906 0.973193 5.90665 1.11542C6.00385 1.17055 6.08225 1.25341 6.13197 1.35343C6.18168 1.45334 6.20049 1.56593 6.18592 1.67665V4.18777C6.16112 4.16802 6.13726 4.14675 6.11116 4.129C5.84811 3.94247 5.50796 3.90369 5.20965 4.02616C5.14301 4.05096 5.08918 4.10161 5.06038 4.16661C5.0317 4.23173 5.03053 4.30554 5.05709 4.37147C5.08365 4.43741 5.13584 4.48983 5.20166 4.51675C5.26748 4.54366 5.34141 4.54272 5.40665 4.51428C5.54299 4.45857 5.69861 4.47855 5.81649 4.56693C6.0605 4.76016 6.19767 5.05822 6.1859 5.3691V9.84481C6.14347 9.80638 6.09986 9.769 6.05426 9.73398C5.75889 9.48551 5.36548 9.38702 4.98795 9.46705C4.84832 9.50772 4.76804 9.65382 4.80871 9.79358C4.84926 9.93321 4.99547 10.0135 5.13512 9.97282C5.35303 9.9439 5.57283 10.0103 5.73832 10.155C6.00137 10.3384 6.16628 10.632 6.1859 10.952V11.7874C6.1859 11.7971 6.14902 12.7657 4.83109 12.9328ZM11.6623 9.0348C11.5215 9.50445 11.1708 9.83781 11.0341 9.85565C10.9594 9.86541 10.8926 9.90666 10.8502 9.96895C10.8079 10.0312 10.7944 10.1087 10.813 10.1816C10.9315 10.6512 10.8104 11.1491 10.4896 11.5119C10.3158 11.7478 10.0484 11.897 9.75645 11.9211C9.62751 11.9066 9.50727 11.9882 9.47307 12.1133C9.44674 12.212 9.16901 13.0734 8.06849 12.9328C6.74949 12.7657 6.7126 11.7971 6.7126 11.7873V4.16013C6.70178 4.03131 6.74809 3.90414 6.83918 3.81233C6.99997 3.7022 7.19496 3.65331 7.38868 3.6747C7.53325 3.69104 7.66371 3.58714 7.68005 3.44257C7.69639 3.29812 7.59248 3.16766 7.44792 3.15132C7.19639 3.12911 6.94322 3.17154 6.71259 3.2745V1.67663C6.69813 1.5658 6.71706 1.4532 6.76701 1.35318C6.81696 1.25316 6.89559 1.17041 6.99303 1.11541C7.29052 0.97319 7.86951 1.05723 8.56355 1.51162C8.25044 1.68051 7.98975 1.93262 7.81072 2.2401C7.7335 2.36374 7.77111 2.52653 7.89476 2.60363C8.01829 2.68085 8.18108 2.64324 8.2583 2.51971C8.58633 1.9961 9.02886 1.777 9.41379 1.9479C9.73479 2.09059 9.99115 2.5371 9.85774 3.19234C9.52404 3.19799 9.19941 3.30153 8.92415 3.49018C8.66063 3.67894 8.45307 3.93564 8.32377 4.23289C8.19448 4.53025 8.14806 4.85699 8.18955 5.17858C8.20565 5.32315 8.33588 5.4274 8.48057 5.4113C8.54992 5.40354 8.6135 5.36863 8.65711 5.31398C8.70083 5.25944 8.72093 5.18974 8.71329 5.1204C8.68227 4.89332 8.71341 4.66224 8.80321 4.45153C8.89301 4.24079 9.03828 4.05838 9.22353 3.92356C9.62529 3.64582 10.1737 3.64947 10.7272 3.93308C11.4362 4.29613 11.1858 5.52168 11.1832 5.53401C11.1692 5.60124 11.1816 5.67129 11.2179 5.72959C11.224 5.73876 11.7971 6.664 11.4999 7.36191C11.3358 7.74623 10.9206 8.0093 10.2669 8.14361C10.1971 8.15607 10.1353 8.19627 10.0954 8.25492C10.0557 8.31357 10.0412 8.38585 10.0553 8.45543C10.0696 8.5249 10.1112 8.58566 10.1709 8.6241C10.2305 8.66253 10.3031 8.67522 10.3722 8.65936C10.7984 8.58743 11.2004 8.41183 11.5428 8.14809C11.7214 8.40784 11.7657 8.73707 11.6623 9.0348ZM7.52019 6.28014C7.40559 6.19046 7.38526 6.02485 7.47494 5.91025C7.5645 5.79554 7.73023 5.77532 7.84483 5.86489C8.37928 6.28213 8.85036 6.41223 9.24552 6.25192C9.74835 6.04764 10.0501 5.4005 10.1254 4.84972C10.1451 4.70562 10.278 4.60478 10.4221 4.62464C10.5662 4.64439 10.667 4.7772 10.6473 4.9213C10.5583 5.5708 10.1895 6.43666 9.44357 6.73981C9.35083 6.77671 9.25433 6.80386 9.15595 6.82067C9.17958 6.93045 9.23094 7.03235 9.30522 7.1165C9.47941 7.27964 9.71342 7.36332 9.95155 7.34769C10.0971 7.3491 10.2138 7.46805 10.2124 7.61344C10.211 7.75883 10.092 7.87566 9.94661 7.87425H9.94191C9.55556 7.89106 9.18037 7.74237 8.91065 7.46534C8.75186 7.28293 8.65113 7.05737 8.62104 6.8175C8.21565 6.73099 7.83766 6.54646 7.52019 6.28014ZM9.98951 10.0539C9.98751 10.1979 9.87021 10.3135 9.72623 10.3135H9.72364C9.54346 10.3154 9.36456 10.3444 9.19308 10.3995C9.18861 10.4014 9.18391 10.4025 9.17909 10.404C8.97093 10.4652 8.78028 10.5749 8.62255 10.7239C8.39735 10.9627 8.27992 11.2832 8.29744 11.6109C8.29744 11.7563 8.17955 11.8741 8.03415 11.8741C7.88864 11.8741 7.77087 11.7563 7.77087 11.6109C7.75089 11.141 7.92602 10.6837 8.25477 10.3471C8.42602 10.1817 8.62818 10.0517 8.84973 9.96432C8.87629 9.59525 8.77556 9.22808 8.56435 8.92415C8.30295 8.62456 7.92648 8.45025 7.52885 8.44496C7.38393 8.43285 7.27638 8.30556 7.28849 8.16064C7.29342 8.09083 7.32645 8.02595 7.37993 7.9807C7.43341 7.93545 7.50287 7.9137 7.57257 7.92028C8.11876 7.93415 8.63253 8.18309 8.98196 8.60327C9.23925 8.95645 9.37758 9.3823 9.37689 9.81928C9.49325 9.79977 9.61102 9.78907 9.72915 9.78743C9.79896 9.78825 9.86572 9.81669 9.9145 9.86664C9.9634 9.91672 9.99033 9.98406 9.98951 10.0539ZM2.53966 5.20958C2.52238 5.06689 2.62275 4.93678 2.76509 4.91715C2.90743 4.89752 3.03919 4.99566 3.06117 5.13764C3.13698 5.68863 3.43846 6.33578 3.94189 6.53984C4.33681 6.70039 4.80777 6.57017 5.34198 6.15305C5.4567 6.06866 5.61784 6.09099 5.70552 6.20336C5.7932 6.3156 5.77557 6.47721 5.66591 6.56806C5.34868 6.8344 4.97114 7.01879 4.56611 7.10521C4.53625 7.34521 4.43541 7.57089 4.2765 7.75317C4.00663 8.03008 3.63156 8.17887 3.24524 8.16232H3.24054C3.09514 8.16361 2.97608 8.0469 2.97479 7.90151C2.97338 7.75612 3.09009 7.63705 3.23549 7.63576C3.47538 7.65163 3.71105 7.56653 3.88536 7.40093C3.958 7.31736 4.00842 7.21687 4.03193 7.10862C3.93343 7.09193 3.83681 7.06478 3.74396 7.02776C2.99783 6.72476 2.62884 5.85862 2.53966 5.20958ZM4.35631 10.6355C4.68519 10.9719 4.86043 11.4292 4.84045 11.8992C4.84045 12.0446 4.72256 12.1625 4.57717 12.1625C4.43177 12.1625 4.31388 12.0446 4.31388 11.8992C4.3314 11.5715 4.21386 11.2509 3.98855 11.0123C3.68026 10.752 3.2912 10.6068 2.8877 10.6017H2.88535C2.73996 10.6029 2.62113 10.486 2.61995 10.3406C2.61878 10.1952 2.73573 10.0764 2.88112 10.0752C2.99936 10.0758 3.11725 10.0862 3.23374 10.1066C3.23315 9.66979 3.37149 9.24434 3.62866 8.89124C3.97797 8.47069 4.49175 8.22129 5.03829 8.20672C5.18322 8.19462 5.31051 8.3024 5.32262 8.44743C5.33461 8.59235 5.22694 8.71964 5.0819 8.73175C4.68439 8.73715 4.30791 8.91158 4.04676 9.21139C3.83578 9.51544 3.73519 9.88252 3.76162 10.2516C3.98317 10.3392 4.18495 10.47 4.35631 10.6355Z"/>
</mask>
<path d="M11.8952 7.74128C11.9291 7.68521 11.959 7.62703 11.985 7.56697C12.3273 6.75786 11.8797 5.83169 11.7167 5.53974C11.7748 5.16929 11.8899 3.93715 10.9671 3.46455C10.7826 3.36946 10.5871 3.29718 10.3851 3.24922C10.5539 2.33434 10.1303 1.69084 9.62601 1.46682C9.51095 1.41664 9.38871 1.38526 9.26377 1.37386C9.25977 1.37021 9.25801 1.36516 9.25354 1.36151C8.33205 0.622804 7.38059 0.346379 6.7655 0.640918C6.64432 0.69898 6.53654 0.781842 6.4492 0.883978C6.36199 0.781724 6.25432 0.698863 6.13326 0.640683C5.51877 0.346613 4.56545 0.621995 3.64522 1.36128C3.64076 1.36492 3.63888 1.36998 3.635 1.37362C3.50994 1.38479 3.38758 1.41617 3.27263 1.46659C2.76839 1.69061 2.34479 2.3354 2.51356 3.24899C2.31152 3.29683 2.11605 3.36923 1.93151 3.46431C1.01002 3.93692 1.12379 5.16902 1.18198 5.53951C1.01896 5.8317 0.570082 6.75798 0.913644 7.56674C0.93962 7.6268 0.969592 7.68498 1.00344 7.74104C0.662349 8.13972 0.559262 8.68989 0.732755 9.18507C0.860635 9.63357 1.14354 10.0219 1.5313 10.2811C1.45502 10.8512 1.63074 11.4263 2.01261 11.8565C2.25897 12.158 2.60264 12.364 2.98465 12.4391C3.11876 12.7534 3.34443 13.0201 3.63206 13.2046C3.91967 13.389 4.25617 13.4827 4.59775 13.4735C4.69813 13.4734 4.79839 13.4668 4.89794 13.4538C5.52124 13.4131 6.09213 13.0909 6.4492 12.5784C6.80604 13.0913 7.37692 13.4139 8.00047 13.4548C8.10002 13.4679 8.20028 13.4745 8.30066 13.4746C8.64224 13.4837 8.97861 13.3901 9.26635 13.2055C9.55396 13.0211 9.77953 12.7544 9.91376 12.4401C10.2957 12.365 10.6394 12.159 10.8858 11.8575C11.2677 11.4273 11.4434 10.8523 11.3671 10.2821C11.755 10.0227 12.038 9.6339 12.1657 9.18504C12.3391 8.68999 12.2362 8.13996 11.8952 7.74128ZM4.83109 12.9328C3.73 13.0715 3.45389 12.212 3.42675 12.1147C3.39314 11.9889 3.27266 11.9066 3.14314 11.9211C2.85117 11.897 2.58377 11.7478 2.40995 11.5119C2.08919 11.1491 1.96811 10.6512 2.0866 10.1815C2.10518 10.1087 2.09166 10.0312 2.04934 9.96891C2.00703 9.90661 1.94015 9.86536 1.86552 9.8556C1.72882 9.83774 1.37822 9.50441 1.23728 9.03475C1.13361 8.73751 1.17745 8.40863 1.35517 8.14879C1.6978 8.41277 2.09988 8.58823 2.52631 8.66006C2.667 8.68533 2.80217 8.59365 2.83073 8.45366C2.85929 8.31356 2.7709 8.17628 2.63162 8.14432C1.97765 8.0101 1.56275 7.74706 1.39864 7.36262C1.10057 6.66386 1.67462 5.73875 1.68061 5.7303C1.71693 5.672 1.72939 5.60207 1.7154 5.53472C1.71282 5.52238 1.46234 4.29732 2.17144 3.93378C2.72433 3.65029 3.27323 3.64653 3.6751 3.92426C3.8601 4.05908 4.00516 4.24137 4.09494 4.45199C4.18474 4.66261 4.21589 4.89358 4.18498 5.12041C4.16887 5.26498 4.27313 5.39521 4.4177 5.41131C4.56227 5.42742 4.69262 5.32316 4.70861 5.17859C4.75021 4.857 4.70379 4.53027 4.5745 4.2329C4.44509 3.93566 4.23764 3.67897 3.97412 3.49019C3.6992 3.30178 3.37504 3.19835 3.04183 3.19236C2.90831 2.53712 3.16477 2.0906 3.48577 1.94792C3.8707 1.77702 4.31359 1.99611 4.64126 2.51972C4.71849 2.64325 4.88128 2.68087 5.00481 2.60365C5.12846 2.52654 5.16607 2.36376 5.08885 2.24011C4.90984 1.93251 4.64939 1.6804 4.33613 1.51163C5.03017 1.05723 5.60906 0.973193 5.90665 1.11542C6.00385 1.17055 6.08225 1.25341 6.13197 1.35343C6.18168 1.45334 6.20049 1.56593 6.18592 1.67665V4.18777C6.16112 4.16802 6.13726 4.14675 6.11116 4.129C5.84811 3.94247 5.50796 3.90369 5.20965 4.02616C5.14301 4.05096 5.08918 4.10161 5.06038 4.16661C5.0317 4.23173 5.03053 4.30554 5.05709 4.37147C5.08365 4.43741 5.13584 4.48983 5.20166 4.51675C5.26748 4.54366 5.34141 4.54272 5.40665 4.51428C5.54299 4.45857 5.69861 4.47855 5.81649 4.56693C6.0605 4.76016 6.19767 5.05822 6.1859 5.3691V9.84481C6.14347 9.80638 6.09986 9.769 6.05426 9.73398C5.75889 9.48551 5.36548 9.38702 4.98795 9.46705C4.84832 9.50772 4.76804 9.65382 4.80871 9.79358C4.84926 9.93321 4.99547 10.0135 5.13512 9.97282C5.35303 9.9439 5.57283 10.0103 5.73832 10.155C6.00137 10.3384 6.16628 10.632 6.1859 10.952V11.7874C6.1859 11.7971 6.14902 12.7657 4.83109 12.9328ZM11.6623 9.0348C11.5215 9.50445 11.1708 9.83781 11.0341 9.85565C10.9594 9.86541 10.8926 9.90666 10.8502 9.96895C10.8079 10.0312 10.7944 10.1087 10.813 10.1816C10.9315 10.6512 10.8104 11.1491 10.4896 11.5119C10.3158 11.7478 10.0484 11.897 9.75645 11.9211C9.62751 11.9066 9.50727 11.9882 9.47307 12.1133C9.44674 12.212 9.16901 13.0734 8.06849 12.9328C6.74949 12.7657 6.7126 11.7971 6.7126 11.7873V4.16013C6.70178 4.03131 6.74809 3.90414 6.83918 3.81233C6.99997 3.7022 7.19496 3.65331 7.38868 3.6747C7.53325 3.69104 7.66371 3.58714 7.68005 3.44257C7.69639 3.29812 7.59248 3.16766 7.44792 3.15132C7.19639 3.12911 6.94322 3.17154 6.71259 3.2745V1.67663C6.69813 1.5658 6.71706 1.4532 6.76701 1.35318C6.81696 1.25316 6.89559 1.17041 6.99303 1.11541C7.29052 0.97319 7.86951 1.05723 8.56355 1.51162C8.25044 1.68051 7.98975 1.93262 7.81072 2.2401C7.7335 2.36374 7.77111 2.52653 7.89476 2.60363C8.01829 2.68085 8.18108 2.64324 8.2583 2.51971C8.58633 1.9961 9.02886 1.777 9.41379 1.9479C9.73479 2.09059 9.99115 2.5371 9.85774 3.19234C9.52404 3.19799 9.19941 3.30153 8.92415 3.49018C8.66063 3.67894 8.45307 3.93564 8.32377 4.23289C8.19448 4.53025 8.14806 4.85699 8.18955 5.17858C8.20565 5.32315 8.33588 5.4274 8.48057 5.4113C8.54992 5.40354 8.6135 5.36863 8.65711 5.31398C8.70083 5.25944 8.72093 5.18974 8.71329 5.1204C8.68227 4.89332 8.71341 4.66224 8.80321 4.45153C8.89301 4.24079 9.03828 4.05838 9.22353 3.92356C9.62529 3.64582 10.1737 3.64947 10.7272 3.93308C11.4362 4.29613 11.1858 5.52168 11.1832 5.53401C11.1692 5.60124 11.1816 5.67129 11.2179 5.72959C11.224 5.73876 11.7971 6.664 11.4999 7.36191C11.3358 7.74623 10.9206 8.0093 10.2669 8.14361C10.1971 8.15607 10.1353 8.19627 10.0954 8.25492C10.0557 8.31357 10.0412 8.38585 10.0553 8.45543C10.0696 8.5249 10.1112 8.58566 10.1709 8.6241C10.2305 8.66253 10.3031 8.67522 10.3722 8.65936C10.7984 8.58743 11.2004 8.41183 11.5428 8.14809C11.7214 8.40784 11.7657 8.73707 11.6623 9.0348ZM7.52019 6.28014C7.40559 6.19046 7.38526 6.02485 7.47494 5.91025C7.5645 5.79554 7.73023 5.77532 7.84483 5.86489C8.37928 6.28213 8.85036 6.41223 9.24552 6.25192C9.74835 6.04764 10.0501 5.4005 10.1254 4.84972C10.1451 4.70562 10.278 4.60478 10.4221 4.62464C10.5662 4.64439 10.667 4.7772 10.6473 4.9213C10.5583 5.5708 10.1895 6.43666 9.44357 6.73981C9.35083 6.77671 9.25433 6.80386 9.15595 6.82067C9.17958 6.93045 9.23094 7.03235 9.30522 7.1165C9.47941 7.27964 9.71342 7.36332 9.95155 7.34769C10.0971 7.3491 10.2138 7.46805 10.2124 7.61344C10.211 7.75883 10.092 7.87566 9.94661 7.87425H9.94191C9.55556 7.89106 9.18037 7.74237 8.91065 7.46534C8.75186 7.28293 8.65113 7.05737 8.62104 6.8175C8.21565 6.73099 7.83766 6.54646 7.52019 6.28014ZM9.98951 10.0539C9.98751 10.1979 9.87021 10.3135 9.72623 10.3135H9.72364C9.54346 10.3154 9.36456 10.3444 9.19308 10.3995C9.18861 10.4014 9.18391 10.4025 9.17909 10.404C8.97093 10.4652 8.78028 10.5749 8.62255 10.7239C8.39735 10.9627 8.27992 11.2832 8.29744 11.6109C8.29744 11.7563 8.17955 11.8741 8.03415 11.8741C7.88864 11.8741 7.77087 11.7563 7.77087 11.6109C7.75089 11.141 7.92602 10.6837 8.25477 10.3471C8.42602 10.1817 8.62818 10.0517 8.84973 9.96432C8.87629 9.59525 8.77556 9.22808 8.56435 8.92415C8.30295 8.62456 7.92648 8.45025 7.52885 8.44496C7.38393 8.43285 7.27638 8.30556 7.28849 8.16064C7.29342 8.09083 7.32645 8.02595 7.37993 7.9807C7.43341 7.93545 7.50287 7.9137 7.57257 7.92028C8.11876 7.93415 8.63253 8.18309 8.98196 8.60327C9.23925 8.95645 9.37758 9.3823 9.37689 9.81928C9.49325 9.79977 9.61102 9.78907 9.72915 9.78743C9.79896 9.78825 9.86572 9.81669 9.9145 9.86664C9.9634 9.91672 9.99033 9.98406 9.98951 10.0539ZM2.53966 5.20958C2.52238 5.06689 2.62275 4.93678 2.76509 4.91715C2.90743 4.89752 3.03919 4.99566 3.06117 5.13764C3.13698 5.68863 3.43846 6.33578 3.94189 6.53984C4.33681 6.70039 4.80777 6.57017 5.34198 6.15305C5.4567 6.06866 5.61784 6.09099 5.70552 6.20336C5.7932 6.3156 5.77557 6.47721 5.66591 6.56806C5.34868 6.8344 4.97114 7.01879 4.56611 7.10521C4.53625 7.34521 4.43541 7.57089 4.2765 7.75317C4.00663 8.03008 3.63156 8.17887 3.24524 8.16232H3.24054C3.09514 8.16361 2.97608 8.0469 2.97479 7.90151C2.97338 7.75612 3.09009 7.63705 3.23549 7.63576C3.47538 7.65163 3.71105 7.56653 3.88536 7.40093C3.958 7.31736 4.00842 7.21687 4.03193 7.10862C3.93343 7.09193 3.83681 7.06478 3.74396 7.02776C2.99783 6.72476 2.62884 5.85862 2.53966 5.20958ZM4.35631 10.6355C4.68519 10.9719 4.86043 11.4292 4.84045 11.8992C4.84045 12.0446 4.72256 12.1625 4.57717 12.1625C4.43177 12.1625 4.31388 12.0446 4.31388 11.8992C4.3314 11.5715 4.21386 11.2509 3.98855 11.0123C3.68026 10.752 3.2912 10.6068 2.8877 10.6017H2.88535C2.73996 10.6029 2.62113 10.486 2.61995 10.3406C2.61878 10.1952 2.73573 10.0764 2.88112 10.0752C2.99936 10.0758 3.11725 10.0862 3.23374 10.1066C3.23315 9.66979 3.37149 9.24434 3.62866 8.89124C3.97797 8.47069 4.49175 8.22129 5.03829 8.20672C5.18322 8.19462 5.31051 8.3024 5.32262 8.44743C5.33461 8.59235 5.22694 8.71964 5.0819 8.73175C4.68439 8.73715 4.30791 8.91158 4.04676 9.21139C3.83578 9.51544 3.73519 9.88252 3.76162 10.2516C3.98317 10.3392 4.18495 10.47 4.35631 10.6355Z" fill="url(#paint0_linear_2421_4324)"/>
<path d="M11.8952 7.74128C11.9291 7.68521 11.959 7.62703 11.985 7.56697C12.3273 6.75786 11.8797 5.83169 11.7167 5.53974C11.7748 5.16929 11.8899 3.93715 10.9671 3.46455C10.7826 3.36946 10.5871 3.29718 10.3851 3.24922C10.5539 2.33434 10.1303 1.69084 9.62601 1.46682C9.51095 1.41664 9.38871 1.38526 9.26377 1.37386C9.25977 1.37021 9.25801 1.36516 9.25354 1.36151C8.33205 0.622804 7.38059 0.346379 6.7655 0.640918C6.64432 0.69898 6.53654 0.781842 6.4492 0.883978C6.36199 0.781724 6.25432 0.698863 6.13326 0.640683C5.51877 0.346613 4.56545 0.621995 3.64522 1.36128C3.64076 1.36492 3.63888 1.36998 3.635 1.37362C3.50994 1.38479 3.38758 1.41617 3.27263 1.46659C2.76839 1.69061 2.34479 2.3354 2.51356 3.24899C2.31152 3.29683 2.11605 3.36923 1.93151 3.46431C1.01002 3.93692 1.12379 5.16902 1.18198 5.53951C1.01896 5.8317 0.570082 6.75798 0.913644 7.56674C0.93962 7.6268 0.969592 7.68498 1.00344 7.74104C0.662349 8.13972 0.559262 8.68989 0.732755 9.18507C0.860635 9.63357 1.14354 10.0219 1.5313 10.2811C1.45502 10.8512 1.63074 11.4263 2.01261 11.8565C2.25897 12.158 2.60264 12.364 2.98465 12.4391C3.11876 12.7534 3.34443 13.0201 3.63206 13.2046C3.91967 13.389 4.25617 13.4827 4.59775 13.4735C4.69813 13.4734 4.79839 13.4668 4.89794 13.4538C5.52124 13.4131 6.09213 13.0909 6.4492 12.5784C6.80604 13.0913 7.37692 13.4139 8.00047 13.4548C8.10002 13.4679 8.20028 13.4745 8.30066 13.4746C8.64224 13.4837 8.97861 13.3901 9.26635 13.2055C9.55396 13.0211 9.77953 12.7544 9.91376 12.4401C10.2957 12.365 10.6394 12.159 10.8858 11.8575C11.2677 11.4273 11.4434 10.8523 11.3671 10.2821C11.755 10.0227 12.038 9.6339 12.1657 9.18504C12.3391 8.68999 12.2362 8.13996 11.8952 7.74128ZM4.83109 12.9328C3.73 13.0715 3.45389 12.212 3.42675 12.1147C3.39314 11.9889 3.27266 11.9066 3.14314 11.9211C2.85117 11.897 2.58377 11.7478 2.40995 11.5119C2.08919 11.1491 1.96811 10.6512 2.0866 10.1815C2.10518 10.1087 2.09166 10.0312 2.04934 9.96891C2.00703 9.90661 1.94015 9.86536 1.86552 9.8556C1.72882 9.83774 1.37822 9.50441 1.23728 9.03475C1.13361 8.73751 1.17745 8.40863 1.35517 8.14879C1.6978 8.41277 2.09988 8.58823 2.52631 8.66006C2.667 8.68533 2.80217 8.59365 2.83073 8.45366C2.85929 8.31356 2.7709 8.17628 2.63162 8.14432C1.97765 8.0101 1.56275 7.74706 1.39864 7.36262C1.10057 6.66386 1.67462 5.73875 1.68061 5.7303C1.71693 5.672 1.72939 5.60207 1.7154 5.53472C1.71282 5.52238 1.46234 4.29732 2.17144 3.93378C2.72433 3.65029 3.27323 3.64653 3.6751 3.92426C3.8601 4.05908 4.00516 4.24137 4.09494 4.45199C4.18474 4.66261 4.21589 4.89358 4.18498 5.12041C4.16887 5.26498 4.27313 5.39521 4.4177 5.41131C4.56227 5.42742 4.69262 5.32316 4.70861 5.17859C4.75021 4.857 4.70379 4.53027 4.5745 4.2329C4.44509 3.93566 4.23764 3.67897 3.97412 3.49019C3.6992 3.30178 3.37504 3.19835 3.04183 3.19236C2.90831 2.53712 3.16477 2.0906 3.48577 1.94792C3.8707 1.77702 4.31359 1.99611 4.64126 2.51972C4.71849 2.64325 4.88128 2.68087 5.00481 2.60365C5.12846 2.52654 5.16607 2.36376 5.08885 2.24011C4.90984 1.93251 4.64939 1.6804 4.33613 1.51163C5.03017 1.05723 5.60906 0.973193 5.90665 1.11542C6.00385 1.17055 6.08225 1.25341 6.13197 1.35343C6.18168 1.45334 6.20049 1.56593 6.18592 1.67665V4.18777C6.16112 4.16802 6.13726 4.14675 6.11116 4.129C5.84811 3.94247 5.50796 3.90369 5.20965 4.02616C5.14301 4.05096 5.08918 4.10161 5.06038 4.16661C5.0317 4.23173 5.03053 4.30554 5.05709 4.37147C5.08365 4.43741 5.13584 4.48983 5.20166 4.51675C5.26748 4.54366 5.34141 4.54272 5.40665 4.51428C5.54299 4.45857 5.69861 4.47855 5.81649 4.56693C6.0605 4.76016 6.19767 5.05822 6.1859 5.3691V9.84481C6.14347 9.80638 6.09986 9.769 6.05426 9.73398C5.75889 9.48551 5.36548 9.38702 4.98795 9.46705C4.84832 9.50772 4.76804 9.65382 4.80871 9.79358C4.84926 9.93321 4.99547 10.0135 5.13512 9.97282C5.35303 9.9439 5.57283 10.0103 5.73832 10.155C6.00137 10.3384 6.16628 10.632 6.1859 10.952V11.7874C6.1859 11.7971 6.14902 12.7657 4.83109 12.9328ZM11.6623 9.0348C11.5215 9.50445 11.1708 9.83781 11.0341 9.85565C10.9594 9.86541 10.8926 9.90666 10.8502 9.96895C10.8079 10.0312 10.7944 10.1087 10.813 10.1816C10.9315 10.6512 10.8104 11.1491 10.4896 11.5119C10.3158 11.7478 10.0484 11.897 9.75645 11.9211C9.62751 11.9066 9.50727 11.9882 9.47307 12.1133C9.44674 12.212 9.16901 13.0734 8.06849 12.9328C6.74949 12.7657 6.7126 11.7971 6.7126 11.7873V4.16013C6.70178 4.03131 6.74809 3.90414 6.83918 3.81233C6.99997 3.7022 7.19496 3.65331 7.38868 3.6747C7.53325 3.69104 7.66371 3.58714 7.68005 3.44257C7.69639 3.29812 7.59248 3.16766 7.44792 3.15132C7.19639 3.12911 6.94322 3.17154 6.71259 3.2745V1.67663C6.69813 1.5658 6.71706 1.4532 6.76701 1.35318C6.81696 1.25316 6.89559 1.17041 6.99303 1.11541C7.29052 0.97319 7.86951 1.05723 8.56355 1.51162C8.25044 1.68051 7.98975 1.93262 7.81072 2.2401C7.7335 2.36374 7.77111 2.52653 7.89476 2.60363C8.01829 2.68085 8.18108 2.64324 8.2583 2.51971C8.58633 1.9961 9.02886 1.777 9.41379 1.9479C9.73479 2.09059 9.99115 2.5371 9.85774 3.19234C9.52404 3.19799 9.19941 3.30153 8.92415 3.49018C8.66063 3.67894 8.45307 3.93564 8.32377 4.23289C8.19448 4.53025 8.14806 4.85699 8.18955 5.17858C8.20565 5.32315 8.33588 5.4274 8.48057 5.4113C8.54992 5.40354 8.6135 5.36863 8.65711 5.31398C8.70083 5.25944 8.72093 5.18974 8.71329 5.1204C8.68227 4.89332 8.71341 4.66224 8.80321 4.45153C8.89301 4.24079 9.03828 4.05838 9.22353 3.92356C9.62529 3.64582 10.1737 3.64947 10.7272 3.93308C11.4362 4.29613 11.1858 5.52168 11.1832 5.53401C11.1692 5.60124 11.1816 5.67129 11.2179 5.72959C11.224 5.73876 11.7971 6.664 11.4999 7.36191C11.3358 7.74623 10.9206 8.0093 10.2669 8.14361C10.1971 8.15607 10.1353 8.19627 10.0954 8.25492C10.0557 8.31357 10.0412 8.38585 10.0553 8.45543C10.0696 8.5249 10.1112 8.58566 10.1709 8.6241C10.2305 8.66253 10.3031 8.67522 10.3722 8.65936C10.7984 8.58743 11.2004 8.41183 11.5428 8.14809C11.7214 8.40784 11.7657 8.73707 11.6623 9.0348ZM7.52019 6.28014C7.40559 6.19046 7.38526 6.02485 7.47494 5.91025C7.5645 5.79554 7.73023 5.77532 7.84483 5.86489C8.37928 6.28213 8.85036 6.41223 9.24552 6.25192C9.74835 6.04764 10.0501 5.4005 10.1254 4.84972C10.1451 4.70562 10.278 4.60478 10.4221 4.62464C10.5662 4.64439 10.667 4.7772 10.6473 4.9213C10.5583 5.5708 10.1895 6.43666 9.44357 6.73981C9.35083 6.77671 9.25433 6.80386 9.15595 6.82067C9.17958 6.93045 9.23094 7.03235 9.30522 7.1165C9.47941 7.27964 9.71342 7.36332 9.95155 7.34769C10.0971 7.3491 10.2138 7.46805 10.2124 7.61344C10.211 7.75883 10.092 7.87566 9.94661 7.87425H9.94191C9.55556 7.89106 9.18037 7.74237 8.91065 7.46534C8.75186 7.28293 8.65113 7.05737 8.62104 6.8175C8.21565 6.73099 7.83766 6.54646 7.52019 6.28014ZM9.98951 10.0539C9.98751 10.1979 9.87021 10.3135 9.72623 10.3135H9.72364C9.54346 10.3154 9.36456 10.3444 9.19308 10.3995C9.18861 10.4014 9.18391 10.4025 9.17909 10.404C8.97093 10.4652 8.78028 10.5749 8.62255 10.7239C8.39735 10.9627 8.27992 11.2832 8.29744 11.6109C8.29744 11.7563 8.17955 11.8741 8.03415 11.8741C7.88864 11.8741 7.77087 11.7563 7.77087 11.6109C7.75089 11.141 7.92602 10.6837 8.25477 10.3471C8.42602 10.1817 8.62818 10.0517 8.84973 9.96432C8.87629 9.59525 8.77556 9.22808 8.56435 8.92415C8.30295 8.62456 7.92648 8.45025 7.52885 8.44496C7.38393 8.43285 7.27638 8.30556 7.28849 8.16064C7.29342 8.09083 7.32645 8.02595 7.37993 7.9807C7.43341 7.93545 7.50287 7.9137 7.57257 7.92028C8.11876 7.93415 8.63253 8.18309 8.98196 8.60327C9.23925 8.95645 9.37758 9.3823 9.37689 9.81928C9.49325 9.79977 9.61102 9.78907 9.72915 9.78743C9.79896 9.78825 9.86572 9.81669 9.9145 9.86664C9.9634 9.91672 9.99033 9.98406 9.98951 10.0539ZM2.53966 5.20958C2.52238 5.06689 2.62275 4.93678 2.76509 4.91715C2.90743 4.89752 3.03919 4.99566 3.06117 5.13764C3.13698 5.68863 3.43846 6.33578 3.94189 6.53984C4.33681 6.70039 4.80777 6.57017 5.34198 6.15305C5.4567 6.06866 5.61784 6.09099 5.70552 6.20336C5.7932 6.3156 5.77557 6.47721 5.66591 6.56806C5.34868 6.8344 4.97114 7.01879 4.56611 7.10521C4.53625 7.34521 4.43541 7.57089 4.2765 7.75317C4.00663 8.03008 3.63156 8.17887 3.24524 8.16232H3.24054C3.09514 8.16361 2.97608 8.0469 2.97479 7.90151C2.97338 7.75612 3.09009 7.63705 3.23549 7.63576C3.47538 7.65163 3.71105 7.56653 3.88536 7.40093C3.958 7.31736 4.00842 7.21687 4.03193 7.10862C3.93343 7.09193 3.83681 7.06478 3.74396 7.02776C2.99783 6.72476 2.62884 5.85862 2.53966 5.20958ZM4.35631 10.6355C4.68519 10.9719 4.86043 11.4292 4.84045 11.8992C4.84045 12.0446 4.72256 12.1625 4.57717 12.1625C4.43177 12.1625 4.31388 12.0446 4.31388 11.8992C4.3314 11.5715 4.21386 11.2509 3.98855 11.0123C3.68026 10.752 3.2912 10.6068 2.8877 10.6017H2.88535C2.73996 10.6029 2.62113 10.486 2.61995 10.3406C2.61878 10.1952 2.73573 10.0764 2.88112 10.0752C2.99936 10.0758 3.11725 10.0862 3.23374 10.1066C3.23315 9.66979 3.37149 9.24434 3.62866 8.89124C3.97797 8.47069 4.49175 8.22129 5.03829 8.20672C5.18322 8.19462 5.31051 8.3024 5.32262 8.44743C5.33461 8.59235 5.22694 8.71964 5.0819 8.73175C4.68439 8.73715 4.30791 8.91158 4.04676 9.21139C3.83578 9.51544 3.73519 9.88252 3.76162 10.2516C3.98317 10.3392 4.18495 10.47 4.35631 10.6355Z" stroke="url(#paint1_linear_2421_4324)" stroke-width="0.382444" mask="url(#path-1-outside-1_2421_4324)"/>
</g>
<defs>
<linearGradient id="paint0_linear_2421_4324" x1="6.44922" y1="0.524902" x2="6.44922" y2="13.4752" gradientUnits="userSpaceOnUse">
<stop offset="0.188426" stop-color="#4828DE"/>
<stop offset="1" stop-color="#DB17B0"/>
</linearGradient>
<linearGradient id="paint1_linear_2421_4324" x1="6.44922" y1="0.524902" x2="6.44922" y2="13.4752" gradientUnits="userSpaceOnUse">
<stop offset="0.188426" stop-color="#4828DE"/>
<stop offset="1" stop-color="#DB17B0"/>
</linearGradient>
</defs>
</svg>
