<svg
      xmlns="http://www.w3.org/2000/svg"
      width="19"
      height="19"
      viewBox="0 0 20 18"
      fill="currentColor"
    >
      <path d="M19.2143 6.18136C18.7123 4.99321 17.9846 3.91374 17.0714 3.00279C16.1605 2.08964 15.081 1.36191 13.8929 0.859933C12.6585 0.337612 11.3504 0.0742188 10 0.0742188C8.64955 0.0742188 7.34152 0.337612 6.10714 0.859933C4.91899 1.36191 3.83952 2.08964 2.92857 3.00279C2.01542 3.91374 1.28769 4.99321 0.785714 6.18136C0.263393 7.41574 0 8.72377 0 10.0742C0 13.0363 1.30134 15.8265 3.5692 17.7327L3.60714 17.764C3.73661 17.8711 3.89955 17.9314 4.06696 17.9314H15.9353C16.1027 17.9314 16.2656 17.8711 16.3951 17.764L16.433 17.7327C18.6987 15.8265 20 13.0363 20 10.0742C20 8.72377 19.7344 7.41574 19.2143 6.18136ZM15.567 16.2349H4.43304C3.57053 15.4572 2.88118 14.5069 2.40972 13.4455C1.93827 12.3842 1.69525 11.2356 1.69643 10.0742C1.69643 7.85547 2.56027 5.77065 4.12946 4.20368C5.69866 2.63449 7.78348 1.77065 10 1.77065C12.2188 1.77065 14.3036 2.63449 15.8705 4.20368C17.4397 5.77288 18.3036 7.8577 18.3036 10.0742C18.3036 12.4314 17.3103 14.6613 15.567 16.2349ZM12.4888 6.9827C12.4553 6.94947 12.41 6.93083 12.3627 6.93083C12.3155 6.93083 12.2702 6.94947 12.2366 6.9827L10.3504 8.86886C9.93304 8.75726 9.47098 8.8644 9.14286 9.19252C9.02664 9.30852 8.93443 9.4463 8.87152 9.59798C8.80861 9.74965 8.77623 9.91225 8.77623 10.0765C8.77623 10.2407 8.80861 10.4032 8.87152 10.5549C8.93443 10.7066 9.02664 10.8444 9.14286 10.9604C9.25886 11.0766 9.39664 11.1688 9.54831 11.2317C9.69999 11.2946 9.86258 11.327 10.0268 11.327C10.191 11.327 10.3536 11.2946 10.5053 11.2317C10.6569 11.1688 10.7947 11.0766 10.9107 10.9604C11.0662 10.8054 11.178 10.6121 11.2348 10.4001C11.2916 10.188 11.2915 9.96475 11.2344 9.75279L13.1205 7.86663C13.1897 7.79743 13.1897 7.68359 13.1205 7.6144L12.4888 6.9827ZM9.50893 4.71708H10.4911C10.5893 4.71708 10.6696 4.63672 10.6696 4.53851V2.75279C10.6696 2.65458 10.5893 2.57422 10.4911 2.57422H9.50893C9.41071 2.57422 9.33036 2.65458 9.33036 2.75279V4.53851C9.33036 4.63672 9.41071 4.71708 9.50893 4.71708ZM15.3125 9.58315V10.5653C15.3125 10.6635 15.3929 10.7439 15.4911 10.7439H17.2768C17.375 10.7439 17.4554 10.6635 17.4554 10.5653V9.58315C17.4554 9.48493 17.375 9.40458 17.2768 9.40458H15.4911C15.3929 9.40458 15.3125 9.48493 15.3125 9.58315ZM15.596 5.18136L14.9018 4.48717C14.8682 4.45393 14.8229 4.43529 14.7757 4.43529C14.7284 4.43529 14.6831 4.45393 14.6496 4.48717L13.3862 5.75056C13.3529 5.78412 13.3343 5.82944 13.3343 5.87668C13.3343 5.92391 13.3529 5.96923 13.3862 6.00279L14.0804 6.69699C14.1496 6.76618 14.2634 6.76618 14.3326 6.69699L15.596 5.43359C15.6652 5.3644 15.6652 5.25056 15.596 5.18136ZM5.35938 4.48717C5.32581 4.45393 5.28049 4.43529 5.23326 4.43529C5.18603 4.43529 5.1407 4.45393 5.10714 4.48717L4.41295 5.18136C4.37971 5.21492 4.36107 5.26025 4.36107 5.30748C4.36107 5.35471 4.37971 5.40003 4.41295 5.43359L5.67634 6.69699C5.74554 6.76618 5.85938 6.76618 5.92857 6.69699L6.62277 6.00279C6.69196 5.93359 6.69196 5.81975 6.62277 5.75056L5.35938 4.48717ZM4.41964 9.40458H2.63393C2.53571 9.40458 2.45536 9.48493 2.45536 9.58315V10.5653C2.45536 10.6635 2.53571 10.7439 2.63393 10.7439H4.41964C4.51786 10.7439 4.59821 10.6635 4.59821 10.5653V9.58315C4.59821 9.48493 4.51786 9.40458 4.41964 9.40458Z" />
    </svg>