<svg
      xmlns="http://www.w3.org/2000/svg"
      width="19"
      height="19"
      viewBox="0 0 1000 1000"
      fill="currentColor"
    >
      <defs></defs>
      <rect x="0" y="0" width="100%" height="100%" fill="none" />
      <g transform="matrix(54.2741 0 0 54.2741 747.9894 481.2334)" id="87330">
        <path
          vector-effect="non-scaling-stroke"
          transform=" translate(-5, -8.375)"
          d="M 5.75 16 C 5.75 16.4142 5.41421 16.75 5 16.75 C 4.58579 16.75 4.25 16.4142 4.25 16 L 5.75 16 Z M 5 0 L 9.33013 7.5 L 0.669872 7.5 L 5 0 Z M 4.25 16 L 4.25 6.75 L 5.75 6.75 L 5.75 16 L 4.25 16 Z"
          stroke-linecap="round"
        />
      </g>
      <g transform="matrix(56.0373 0 0 56.0373 265.7803 502.8699)" id="632527">
        <path
          vector-effect="non-scaling-stroke"
          transform=" translate(-5, -8.625)"
          d="M 5.75 1 C 5.75 0.585786 5.41421 0.25 5 0.25 C 4.58579 0.25 4.25 0.585786 4.25 1 L 5.75 1 Z M 5 17 L 9.33013 9.5 L 0.669872 9.5 L 5 17 Z M 4.25 1 L 4.25 10.25 L 5.75 10.25 L 5.75 1 L 4.25 1 Z"
          stroke-linecap="round"
        />
      </g>
    </svg>