<svg
      xmlns="http://www.w3.org/2000/svg"
      width="19"
      height="19"
      viewBox="0 0 19 19"
      fill="currentColor"
    >
      <path d="M0.666687 18.3335C0.666687 16.5654 1.36907 14.8697 2.61931 13.6195C3.86955 12.3692 5.56524 11.6668 7.33335 11.6668C9.10146 11.6668 10.7972 12.3692 12.0474 13.6195C13.2976 14.8697 14 16.5654 14 18.3335H12.3334C12.3334 17.0074 11.8066 15.7356 10.8689 14.798C9.93121 13.8603 8.65944 13.3335 7.33335 13.3335C6.00727 13.3335 4.7355 13.8603 3.79782 14.798C2.86014 15.7356 2.33335 17.0074 2.33335 18.3335H0.666687ZM7.33335 10.8335C4.57085 10.8335 2.33335 8.596 2.33335 5.8335C2.33335 3.071 4.57085 0.833496 7.33335 0.833496C10.0959 0.833496 12.3334 3.071 12.3334 5.8335C12.3334 8.596 10.0959 10.8335 7.33335 10.8335ZM7.33335 9.16683C9.17502 9.16683 10.6667 7.67516 10.6667 5.8335C10.6667 3.99183 9.17502 2.50016 7.33335 2.50016C5.49169 2.50016 4.00002 3.99183 4.00002 5.8335C4.00002 7.67516 5.49169 9.16683 7.33335 9.16683ZM14.2367 12.2527C15.4078 12.7801 16.4017 13.6345 17.0988 14.7133C17.796 15.792 18.1668 17.0491 18.1667 18.3335H16.5C16.5002 17.3701 16.2221 16.4272 15.6993 15.6181C15.1764 14.8091 14.4309 14.1682 13.5525 13.7727L14.2359 12.2527H14.2367ZM13.6634 2.84433C14.503 3.19041 15.2208 3.77811 15.7259 4.53285C16.2309 5.2876 16.5004 6.17536 16.5 7.0835C16.5004 8.22711 16.0731 9.32952 15.3021 10.1742C14.5312 11.0189 13.4722 11.5447 12.3334 11.6485V9.971C12.9508 9.88256 13.5236 9.59851 13.9678 9.16054C14.4119 8.72258 14.7039 8.15376 14.801 7.53761C14.898 6.92145 14.795 6.29041 14.507 5.73712C14.219 5.18384 13.7612 4.73745 13.2009 4.4635L13.6634 2.84433Z" />
    </svg>