<svg xmlns="http://www.w3.org/2000/svg" viewBox="0 0 16 18" fill="none">
  <mask id="path-1-outside-1_207_36598" maskUnits="userSpaceOnUse" x="0" y="0" width="16" height="18" fill="black">
    <rect fill="white" width="16" height="18"/>
    <path d="M14.8939 9.91579C14.9357 9.84653 14.9727 9.77464 15.0048 9.70044C15.4277 8.70078 14.8747 7.55651 14.6733 7.19581C14.7452 6.73811 14.8873 5.21581 13.7472 4.63191C13.5192 4.51443 13.2777 4.42513 13.0281 4.36588C13.2366 3.23556 12.7132 2.4405 12.0902 2.16374C11.9481 2.10173 11.797 2.06296 11.6427 2.04888C11.6377 2.04438 11.6356 2.03813 11.63 2.03363C10.4915 1.12096 9.31595 0.779435 8.55599 1.14334C8.40627 1.21507 8.2731 1.31745 8.1652 1.44364C8.05745 1.3173 7.92442 1.21493 7.77485 1.14305C7.01563 0.779725 5.83777 1.11996 4.7008 2.03334C4.69528 2.03784 4.69296 2.04409 4.68817 2.04859C4.53366 2.06238 4.38248 2.10116 4.24045 2.16345C3.61745 2.44022 3.09408 3.23686 3.3026 4.3656C3.05297 4.4247 2.81147 4.51415 2.58346 4.63162C1.44494 5.21552 1.5855 6.73778 1.6574 7.19551C1.45598 7.55651 0.90138 8.70094 1.32586 9.70015C1.35795 9.77435 1.39499 9.84623 1.43681 9.9155C1.01538 10.4081 0.888011 11.0878 1.10237 11.6996C1.26037 12.2537 1.6099 12.7335 2.08899 13.0537C1.99474 13.7581 2.21185 14.4686 2.68367 15.0001C2.98805 15.3726 3.41266 15.6271 3.88465 15.7199C4.05034 16.1082 4.32917 16.4377 4.68454 16.6657C5.03989 16.8935 5.45565 17.0093 5.87768 16.9979C6.00169 16.9978 6.12557 16.9897 6.24857 16.9735C7.01868 16.9233 7.72403 16.5253 8.1652 15.892C8.60608 16.5257 9.31142 16.9243 10.0818 16.9748C10.2048 16.991 10.3287 16.9991 10.4527 16.9992C10.8748 17.0106 11.2903 16.8948 11.6459 16.6668C12.0012 16.439 12.2799 16.1095 12.4458 15.7212C12.9177 15.6284 13.3423 15.3739 13.6467 15.0014C14.1185 14.4699 14.3357 13.7594 14.2414 13.055C14.7207 12.7345 15.0703 12.2541 15.228 11.6995C15.4424 11.0879 15.3152 10.4084 14.8939 9.91579ZM6.16598 16.3299C4.80554 16.5012 4.46441 15.4393 4.43088 15.3192C4.38934 15.1637 4.24049 15.062 4.08046 15.0799C3.71973 15.0501 3.38935 14.8658 3.17458 14.5744C2.77828 14.1261 2.62868 13.511 2.77509 12.9307C2.79803 12.8407 2.78133 12.745 2.72905 12.668C2.67677 12.5911 2.59414 12.5401 2.50192 12.528C2.33303 12.506 1.89985 12.0941 1.72572 11.5139C1.59763 11.1466 1.6518 10.7403 1.87138 10.4193C2.2947 10.7454 2.79149 10.9622 3.31836 11.0509C3.49218 11.0822 3.65919 10.9689 3.69447 10.7959C3.72976 10.6228 3.62055 10.4532 3.44847 10.4137C2.64047 10.2479 2.12785 9.92293 1.92509 9.44796C1.55681 8.58465 2.26607 7.44168 2.27347 7.43123C2.31834 7.35921 2.33374 7.27281 2.31646 7.1896C2.31326 7.17435 2.00379 5.6608 2.8799 5.21165C3.56302 4.8614 4.24119 4.85675 4.73772 5.19989C4.96629 5.36645 5.14551 5.59168 5.25644 5.8519C5.36739 6.11212 5.40587 6.39747 5.36768 6.67773C5.34779 6.85634 5.4766 7.01724 5.65522 7.03713C5.83384 7.05703 5.99489 6.92822 6.01464 6.74961C6.06605 6.35229 6.00869 5.94861 5.84895 5.58121C5.68906 5.21397 5.43276 4.89683 5.10716 4.6636C4.76749 4.43082 4.36698 4.30303 3.95529 4.29563C3.79032 3.48608 4.10719 2.93441 4.50379 2.75813C4.97939 2.54699 5.52659 2.81767 5.93144 3.46459C6.02685 3.61721 6.22798 3.66368 6.38061 3.56828C6.53338 3.47302 6.57985 3.27189 6.48444 3.11913C6.26327 2.7391 5.94148 2.42761 5.55443 2.2191C6.41195 1.65769 7.12718 1.55386 7.49486 1.72958C7.61496 1.79769 7.71181 1.90006 7.77324 2.02364C7.83467 2.14707 7.85791 2.28619 7.8399 2.42297V5.52545C7.80926 5.50105 7.77978 5.47477 7.74754 5.45284C7.42254 5.22239 7.00226 5.17447 6.6337 5.32578C6.55136 5.35642 6.48485 5.41901 6.44927 5.49931C6.41384 5.57976 6.41238 5.67095 6.4452 5.75242C6.47802 5.83388 6.5425 5.89865 6.62383 5.9319C6.70515 5.96515 6.79649 5.96399 6.87709 5.92885C7.04554 5.86002 7.23782 5.88471 7.38347 5.99391C7.68495 6.23264 7.85442 6.60089 7.83988 6.98498V12.5147C7.78746 12.4672 7.73358 12.421 7.67724 12.3778C7.3123 12.0708 6.82623 11.9491 6.35978 12.048C6.18726 12.0982 6.08807 12.2787 6.13832 12.4514C6.18842 12.6239 6.36907 12.7231 6.54161 12.6728C6.81085 12.6371 7.08241 12.7192 7.28689 12.8979C7.61189 13.1245 7.81565 13.4872 7.83988 13.8826V14.9148C7.83988 14.9267 7.79432 16.1234 6.16598 16.3299ZM14.6061 11.5139C14.4322 12.0942 13.9988 12.506 13.8299 12.5281C13.7377 12.5401 13.6551 12.5911 13.6028 12.6681C13.5505 12.745 13.5338 12.8407 13.5568 12.9308C13.7031 13.511 13.5536 14.1261 13.1573 14.5744C12.9425 14.8659 12.6121 15.0502 12.2514 15.0799C12.0921 15.0621 11.9435 15.1628 11.9013 15.3174C11.8687 15.4393 11.5256 16.5036 10.1659 16.3299C8.53621 16.1234 8.49063 14.9267 8.49063 14.9147V5.4913C8.47727 5.33215 8.53448 5.17503 8.64703 5.0616C8.84569 4.92554 9.0866 4.86513 9.32594 4.89156C9.50457 4.91174 9.66576 4.78337 9.68595 4.60476C9.70613 4.4263 9.57776 4.26511 9.39914 4.24493C9.08837 4.21748 8.77558 4.2699 8.49062 4.39711V2.42296C8.47276 2.28602 8.49614 2.14691 8.55786 2.02333C8.61958 1.89976 8.71673 1.79753 8.83712 1.72957C9.20467 1.55386 9.92003 1.65769 10.7775 2.21908C10.3907 2.42775 10.0686 2.73923 9.84739 3.11911C9.75198 3.27188 9.79845 3.473 9.95122 3.56826C10.1038 3.66366 10.305 3.61719 10.4004 3.46457C10.8057 2.81766 11.3524 2.54696 11.828 2.75811C12.2246 2.9344 12.5414 3.48606 12.3765 4.29561C11.9643 4.30258 11.5632 4.43051 11.2231 4.66358C10.8975 4.89679 10.641 5.21395 10.4813 5.58119C10.3215 5.94858 10.2642 6.35227 10.3154 6.74959C10.3353 6.9282 10.4962 7.05701 10.675 7.03711C10.7607 7.02753 10.8393 6.9844 10.8931 6.91688C10.9472 6.8495 10.972 6.76339 10.9625 6.67771C10.9242 6.39716 10.9627 6.11165 11.0736 5.85132C11.1846 5.59095 11.3641 5.3656 11.593 5.19902C12.0893 4.85588 12.7669 4.86038 13.4508 5.21078C14.3267 5.65933 14.0174 7.17349 14.0142 7.18873C13.9969 7.27179 14.0122 7.35834 14.0571 7.43036C14.0646 7.44169 14.7727 8.58482 14.4054 9.44708C14.2027 9.92191 13.6898 10.2469 12.8821 10.4129C12.7958 10.4283 12.7194 10.4779 12.6702 10.5504C12.6211 10.6229 12.6032 10.7122 12.6207 10.7981C12.6382 10.8839 12.6897 10.959 12.7634 11.0065C12.837 11.054 12.9268 11.0697 13.0122 11.0501C13.5387 10.9612 14.0354 10.7443 14.4584 10.4184C14.6792 10.7393 14.7339 11.1461 14.6061 11.5139ZM9.48843 8.11056C9.34684 7.99976 9.32172 7.79515 9.43252 7.65357C9.54318 7.51184 9.74794 7.48687 9.88953 7.59752C10.5499 8.11302 11.1319 8.27376 11.6201 8.0757C12.2414 7.82331 12.6142 7.02377 12.7072 6.34329C12.7316 6.16526 12.8957 6.04067 13.0738 6.0652C13.2518 6.0896 13.3764 6.25369 13.352 6.43172C13.2421 7.23417 12.7864 8.30395 11.8648 8.67848C11.7502 8.72408 11.631 8.75762 11.5095 8.77838C11.5387 8.91401 11.6021 9.03992 11.6939 9.14389C11.9091 9.34544 12.1982 9.44883 12.4924 9.42952C12.6722 9.43126 12.8164 9.57822 12.8147 9.75784C12.8129 9.93747 12.666 10.0818 12.4863 10.0801H12.4805C12.0032 10.1008 11.5396 9.91715 11.2064 9.57487C11.0102 9.3495 10.8857 9.07082 10.8486 8.77447C10.3477 8.66759 9.88068 8.4396 9.48843 8.11056ZM12.5393 12.773C12.5369 12.9509 12.392 13.0938 12.2141 13.0938H12.2109C11.9882 13.0961 11.7672 13.132 11.5553 13.2001C11.5498 13.2024 11.544 13.2037 11.538 13.2056C11.2809 13.2812 11.0453 13.4167 10.8504 13.6009C10.5722 13.8958 10.4271 14.2918 10.4487 14.6967C10.4487 14.8763 10.3031 15.0219 10.1235 15.0219C9.94367 15.0219 9.79816 14.8763 9.79816 14.6967C9.77347 14.1161 9.98985 13.5511 10.396 13.1353C10.6076 12.9309 10.8574 12.7703 11.1311 12.6623C11.1639 12.2064 11.0395 11.7527 10.7785 11.3772C10.4556 11.0071 9.99042 10.7917 9.49913 10.7852C9.32008 10.7702 9.1872 10.613 9.20216 10.4339C9.20825 10.3477 9.24906 10.2675 9.31514 10.2116C9.38121 10.1557 9.46704 10.1288 9.55315 10.137C10.228 10.1541 10.8628 10.4616 11.2945 10.9808C11.6124 11.4171 11.7833 11.9433 11.7824 12.4831C11.9262 12.459 12.0717 12.4458 12.2177 12.4438C12.3039 12.4448 12.3864 12.48 12.4467 12.5417C12.5071 12.6035 12.5404 12.6867 12.5393 12.773ZM3.33484 6.78789C3.3135 6.6116 3.43751 6.45085 3.61338 6.4266C3.78924 6.40235 3.95203 6.5236 3.97918 6.69902C4.07285 7.37976 4.44534 8.17931 5.06734 8.43142C5.55528 8.62978 6.13716 8.46889 6.79719 7.95354C6.93893 7.84928 7.13803 7.87687 7.24636 8.0157C7.35469 8.15438 7.33291 8.35404 7.19742 8.46629C6.80547 8.79534 6.33901 9.02316 5.83858 9.12993C5.8017 9.42646 5.67709 9.70528 5.48076 9.93048C5.14733 10.2726 4.68392 10.4564 4.20661 10.436H4.2008C4.02117 10.4376 3.87406 10.2934 3.87246 10.1138C3.87072 9.93413 4.01492 9.78702 4.19456 9.78543C4.49096 9.80503 4.78213 9.6999 4.9975 9.49529C5.08724 9.39205 5.14954 9.26789 5.17859 9.13415C5.05689 9.11353 4.93752 9.07999 4.8228 9.03424C3.90093 8.65989 3.44503 7.58978 3.33484 6.78789ZM5.57937 13.4916C5.98571 13.9072 6.20222 14.4722 6.17754 15.0529C6.17754 15.2325 6.03188 15.3782 5.85224 15.3782C5.67261 15.3782 5.52695 15.2325 5.52695 15.0529C5.54859 14.648 5.40337 14.2519 5.125 13.9571C4.74409 13.6355 4.2634 13.4561 3.76486 13.4499H3.76196C3.58232 13.4513 3.4355 13.3068 3.43405 13.1272C3.4326 12.9476 3.57709 12.8008 3.75673 12.7993C3.90282 12.8 4.04848 12.813 4.1924 12.8381C4.19167 12.2985 4.3626 11.7728 4.68034 11.3366C5.11192 10.817 5.74671 10.5088 6.42198 10.4908C6.60104 10.4759 6.75831 10.609 6.77327 10.7882C6.78808 10.9673 6.65506 11.1246 6.47586 11.1395C5.98472 11.1462 5.51957 11.3617 5.19692 11.7321C4.93625 12.1078 4.81195 12.5613 4.84461 13.0172C5.11835 13.1256 5.36765 13.2871 5.57937 13.4916Z"/>
  </mask>
  <path d="M14.8939 9.91579C14.9357 9.84653 14.9727 9.77464 15.0048 9.70044C15.4277 8.70078 14.8747 7.55651 14.6733 7.19581C14.7452 6.73811 14.8873 5.21581 13.7472 4.63191C13.5192 4.51443 13.2777 4.42513 13.0281 4.36588C13.2366 3.23556 12.7132 2.4405 12.0902 2.16374C11.9481 2.10173 11.797 2.06296 11.6427 2.04888C11.6377 2.04438 11.6356 2.03813 11.63 2.03363C10.4915 1.12096 9.31595 0.779435 8.55599 1.14334C8.40627 1.21507 8.2731 1.31745 8.1652 1.44364C8.05745 1.3173 7.92442 1.21493 7.77485 1.14305C7.01563 0.779725 5.83777 1.11996 4.7008 2.03334C4.69528 2.03784 4.69296 2.04409 4.68817 2.04859C4.53366 2.06238 4.38248 2.10116 4.24045 2.16345C3.61745 2.44022 3.09408 3.23686 3.3026 4.3656C3.05297 4.4247 2.81147 4.51415 2.58346 4.63162C1.44494 5.21552 1.5855 6.73778 1.6574 7.19551C1.45598 7.55651 0.90138 8.70094 1.32586 9.70015C1.35795 9.77435 1.39499 9.84623 1.43681 9.9155C1.01538 10.4081 0.888011 11.0878 1.10237 11.6996C1.26037 12.2537 1.6099 12.7335 2.08899 13.0537C1.99474 13.7581 2.21185 14.4686 2.68367 15.0001C2.98805 15.3726 3.41266 15.6271 3.88465 15.7199C4.05034 16.1082 4.32917 16.4377 4.68454 16.6657C5.03989 16.8935 5.45565 17.0093 5.87768 16.9979C6.00169 16.9978 6.12557 16.9897 6.24857 16.9735C7.01868 16.9233 7.72403 16.5253 8.1652 15.892C8.60608 16.5257 9.31142 16.9243 10.0818 16.9748C10.2048 16.991 10.3287 16.9991 10.4527 16.9992C10.8748 17.0106 11.2903 16.8948 11.6459 16.6668C12.0012 16.439 12.2799 16.1095 12.4458 15.7212C12.9177 15.6284 13.3423 15.3739 13.6467 15.0014C14.1185 14.4699 14.3357 13.7594 14.2414 13.055C14.7207 12.7345 15.0703 12.2541 15.228 11.6995C15.4424 11.0879 15.3152 10.4084 14.8939 9.91579ZM6.16598 16.3299C4.80554 16.5012 4.46441 15.4393 4.43088 15.3192C4.38934 15.1637 4.24049 15.062 4.08046 15.0799C3.71973 15.0501 3.38935 14.8658 3.17458 14.5744C2.77828 14.1261 2.62868 13.511 2.77509 12.9307C2.79803 12.8407 2.78133 12.745 2.72905 12.668C2.67677 12.5911 2.59414 12.5401 2.50192 12.528C2.33303 12.506 1.89985 12.0941 1.72572 11.5139C1.59763 11.1466 1.6518 10.7403 1.87138 10.4193C2.2947 10.7454 2.79149 10.9622 3.31836 11.0509C3.49218 11.0822 3.65919 10.9689 3.69447 10.7959C3.72976 10.6228 3.62055 10.4532 3.44847 10.4137C2.64047 10.2479 2.12785 9.92293 1.92509 9.44796C1.55681 8.58465 2.26607 7.44168 2.27347 7.43123C2.31834 7.35921 2.33374 7.27281 2.31646 7.1896C2.31326 7.17435 2.00379 5.6608 2.8799 5.21165C3.56302 4.8614 4.24119 4.85675 4.73772 5.19989C4.96629 5.36645 5.14551 5.59168 5.25644 5.8519C5.36739 6.11212 5.40587 6.39747 5.36768 6.67773C5.34779 6.85634 5.4766 7.01724 5.65522 7.03713C5.83384 7.05703 5.99489 6.92822 6.01464 6.74961C6.06605 6.35229 6.00869 5.94861 5.84895 5.58121C5.68906 5.21397 5.43276 4.89683 5.10716 4.6636C4.76749 4.43082 4.36698 4.30303 3.95529 4.29563C3.79032 3.48608 4.10719 2.93441 4.50379 2.75813C4.97939 2.54699 5.52659 2.81767 5.93144 3.46459C6.02685 3.61721 6.22798 3.66368 6.38061 3.56828C6.53338 3.47302 6.57985 3.27189 6.48444 3.11913C6.26327 2.7391 5.94148 2.42761 5.55443 2.2191C6.41195 1.65769 7.12718 1.55386 7.49486 1.72958C7.61496 1.79769 7.71181 1.90006 7.77324 2.02364C7.83467 2.14707 7.85791 2.28619 7.8399 2.42297V5.52545C7.80926 5.50105 7.77978 5.47477 7.74754 5.45284C7.42254 5.22239 7.00226 5.17447 6.6337 5.32578C6.55136 5.35642 6.48485 5.41901 6.44927 5.49931C6.41384 5.57976 6.41238 5.67095 6.4452 5.75242C6.47802 5.83388 6.5425 5.89865 6.62383 5.9319C6.70515 5.96515 6.79649 5.96399 6.87709 5.92885C7.04554 5.86002 7.23782 5.88471 7.38347 5.99391C7.68495 6.23264 7.85442 6.60089 7.83988 6.98498V12.5147C7.78746 12.4672 7.73358 12.421 7.67724 12.3778C7.3123 12.0708 6.82623 11.9491 6.35978 12.048C6.18726 12.0982 6.08807 12.2787 6.13832 12.4514C6.18842 12.6239 6.36907 12.7231 6.54161 12.6728C6.81085 12.6371 7.08241 12.7192 7.28689 12.8979C7.61189 13.1245 7.81565 13.4872 7.83988 13.8826V14.9148C7.83988 14.9267 7.79432 16.1234 6.16598 16.3299ZM14.6061 11.5139C14.4322 12.0942 13.9988 12.506 13.8299 12.5281C13.7377 12.5401 13.6551 12.5911 13.6028 12.6681C13.5505 12.745 13.5338 12.8407 13.5568 12.9308C13.7031 13.511 13.5536 14.1261 13.1573 14.5744C12.9425 14.8659 12.6121 15.0502 12.2514 15.0799C12.0921 15.0621 11.9435 15.1628 11.9013 15.3174C11.8687 15.4393 11.5256 16.5036 10.1659 16.3299C8.53621 16.1234 8.49063 14.9267 8.49063 14.9147V5.4913C8.47727 5.33215 8.53448 5.17503 8.64703 5.0616C8.84569 4.92554 9.0866 4.86513 9.32594 4.89156C9.50457 4.91174 9.66576 4.78337 9.68595 4.60476C9.70613 4.4263 9.57776 4.26511 9.39914 4.24493C9.08837 4.21748 8.77558 4.2699 8.49062 4.39711V2.42296C8.47276 2.28602 8.49614 2.14691 8.55786 2.02333C8.61958 1.89976 8.71673 1.79753 8.83712 1.72957C9.20467 1.55386 9.92003 1.65769 10.7775 2.21908C10.3907 2.42775 10.0686 2.73923 9.84739 3.11911C9.75198 3.27188 9.79845 3.473 9.95122 3.56826C10.1038 3.66366 10.305 3.61719 10.4004 3.46457C10.8057 2.81766 11.3524 2.54696 11.828 2.75811C12.2246 2.9344 12.5414 3.48606 12.3765 4.29561C11.9643 4.30258 11.5632 4.43051 11.2231 4.66358C10.8975 4.89679 10.641 5.21395 10.4813 5.58119C10.3215 5.94858 10.2642 6.35227 10.3154 6.74959C10.3353 6.9282 10.4962 7.05701 10.675 7.03711C10.7607 7.02753 10.8393 6.9844 10.8931 6.91688C10.9472 6.8495 10.972 6.76339 10.9625 6.67771C10.9242 6.39716 10.9627 6.11165 11.0736 5.85132C11.1846 5.59095 11.3641 5.3656 11.593 5.19902C12.0893 4.85588 12.7669 4.86038 13.4508 5.21078C14.3267 5.65933 14.0174 7.17349 14.0142 7.18873C13.9969 7.27179 14.0122 7.35834 14.0571 7.43036C14.0646 7.44169 14.7727 8.58482 14.4054 9.44708C14.2027 9.92191 13.6898 10.2469 12.8821 10.4129C12.7958 10.4283 12.7194 10.4779 12.6702 10.5504C12.6211 10.6229 12.6032 10.7122 12.6207 10.7981C12.6382 10.8839 12.6897 10.959 12.7634 11.0065C12.837 11.054 12.9268 11.0697 13.0122 11.0501C13.5387 10.9612 14.0354 10.7443 14.4584 10.4184C14.6792 10.7393 14.7339 11.1461 14.6061 11.5139ZM9.48843 8.11056C9.34684 7.99976 9.32172 7.79515 9.43252 7.65357C9.54318 7.51184 9.74794 7.48687 9.88953 7.59752C10.5499 8.11302 11.1319 8.27376 11.6201 8.0757C12.2414 7.82331 12.6142 7.02377 12.7072 6.34329C12.7316 6.16526 12.8957 6.04067 13.0738 6.0652C13.2518 6.0896 13.3764 6.25369 13.352 6.43172C13.2421 7.23417 12.7864 8.30395 11.8648 8.67848C11.7502 8.72408 11.631 8.75762 11.5095 8.77838C11.5387 8.91401 11.6021 9.03992 11.6939 9.14389C11.9091 9.34544 12.1982 9.44883 12.4924 9.42952C12.6722 9.43126 12.8164 9.57822 12.8147 9.75784C12.8129 9.93747 12.666 10.0818 12.4863 10.0801H12.4805C12.0032 10.1008 11.5396 9.91715 11.2064 9.57487C11.0102 9.3495 10.8857 9.07082 10.8486 8.77447C10.3477 8.66759 9.88068 8.4396 9.48843 8.11056ZM12.5393 12.773C12.5369 12.9509 12.392 13.0938 12.2141 13.0938H12.2109C11.9882 13.0961 11.7672 13.132 11.5553 13.2001C11.5498 13.2024 11.544 13.2037 11.538 13.2056C11.2809 13.2812 11.0453 13.4167 10.8504 13.6009C10.5722 13.8958 10.4271 14.2918 10.4487 14.6967C10.4487 14.8763 10.3031 15.0219 10.1235 15.0219C9.94367 15.0219 9.79816 14.8763 9.79816 14.6967C9.77347 14.1161 9.98985 13.5511 10.396 13.1353C10.6076 12.9309 10.8574 12.7703 11.1311 12.6623C11.1639 12.2064 11.0395 11.7527 10.7785 11.3772C10.4556 11.0071 9.99042 10.7917 9.49913 10.7852C9.32008 10.7702 9.1872 10.613 9.20216 10.4339C9.20825 10.3477 9.24906 10.2675 9.31514 10.2116C9.38121 10.1557 9.46704 10.1288 9.55315 10.137C10.228 10.1541 10.8628 10.4616 11.2945 10.9808C11.6124 11.4171 11.7833 11.9433 11.7824 12.4831C11.9262 12.459 12.0717 12.4458 12.2177 12.4438C12.3039 12.4448 12.3864 12.48 12.4467 12.5417C12.5071 12.6035 12.5404 12.6867 12.5393 12.773ZM3.33484 6.78789C3.3135 6.6116 3.43751 6.45085 3.61338 6.4266C3.78924 6.40235 3.95203 6.5236 3.97918 6.69902C4.07285 7.37976 4.44534 8.17931 5.06734 8.43142C5.55528 8.62978 6.13716 8.46889 6.79719 7.95354C6.93893 7.84928 7.13803 7.87687 7.24636 8.0157C7.35469 8.15438 7.33291 8.35404 7.19742 8.46629C6.80547 8.79534 6.33901 9.02316 5.83858 9.12993C5.8017 9.42646 5.67709 9.70528 5.48076 9.93048C5.14733 10.2726 4.68392 10.4564 4.20661 10.436H4.2008C4.02117 10.4376 3.87406 10.2934 3.87246 10.1138C3.87072 9.93413 4.01492 9.78702 4.19456 9.78543C4.49096 9.80503 4.78213 9.6999 4.9975 9.49529C5.08724 9.39205 5.14954 9.26789 5.17859 9.13415C5.05689 9.11353 4.93752 9.07999 4.8228 9.03424C3.90093 8.65989 3.44503 7.58978 3.33484 6.78789ZM5.57937 13.4916C5.98571 13.9072 6.20222 14.4722 6.17754 15.0529C6.17754 15.2325 6.03188 15.3782 5.85224 15.3782C5.67261 15.3782 5.52695 15.2325 5.52695 15.0529C5.54859 14.648 5.40337 14.2519 5.125 13.9571C4.74409 13.6355 4.2634 13.4561 3.76486 13.4499H3.76196C3.58232 13.4513 3.4355 13.3068 3.43405 13.1272C3.4326 12.9476 3.57709 12.8008 3.75673 12.7993C3.90282 12.8 4.04848 12.813 4.1924 12.8381C4.19167 12.2985 4.3626 11.7728 4.68034 11.3366C5.11192 10.817 5.74671 10.5088 6.42198 10.4908C6.60104 10.4759 6.75831 10.609 6.77327 10.7882C6.78808 10.9673 6.65506 11.1246 6.47586 11.1395C5.98472 11.1462 5.51957 11.3617 5.19692 11.7321C4.93625 12.1078 4.81195 12.5613 4.84461 13.0172C5.11835 13.1256 5.36765 13.2871 5.57937 13.4916Z" fill="url(#paint0_linear_207_36598)"/>
  <path d="M14.8939 9.91579C14.9357 9.84653 14.9727 9.77464 15.0048 9.70044C15.4277 8.70078 14.8747 7.55651 14.6733 7.19581C14.7452 6.73811 14.8873 5.21581 13.7472 4.63191C13.5192 4.51443 13.2777 4.42513 13.0281 4.36588C13.2366 3.23556 12.7132 2.4405 12.0902 2.16374C11.9481 2.10173 11.797 2.06296 11.6427 2.04888C11.6377 2.04438 11.6356 2.03813 11.63 2.03363C10.4915 1.12096 9.31595 0.779435 8.55599 1.14334C8.40627 1.21507 8.2731 1.31745 8.1652 1.44364C8.05745 1.3173 7.92442 1.21493 7.77485 1.14305C7.01563 0.779725 5.83777 1.11996 4.7008 2.03334C4.69528 2.03784 4.69296 2.04409 4.68817 2.04859C4.53366 2.06238 4.38248 2.10116 4.24045 2.16345C3.61745 2.44022 3.09408 3.23686 3.3026 4.3656C3.05297 4.4247 2.81147 4.51415 2.58346 4.63162C1.44494 5.21552 1.5855 6.73778 1.6574 7.19551C1.45598 7.55651 0.90138 8.70094 1.32586 9.70015C1.35795 9.77435 1.39499 9.84623 1.43681 9.9155C1.01538 10.4081 0.888011 11.0878 1.10237 11.6996C1.26037 12.2537 1.6099 12.7335 2.08899 13.0537C1.99474 13.7581 2.21185 14.4686 2.68367 15.0001C2.98805 15.3726 3.41266 15.6271 3.88465 15.7199C4.05034 16.1082 4.32917 16.4377 4.68454 16.6657C5.03989 16.8935 5.45565 17.0093 5.87768 16.9979C6.00169 16.9978 6.12557 16.9897 6.24857 16.9735C7.01868 16.9233 7.72403 16.5253 8.1652 15.892C8.60608 16.5257 9.31142 16.9243 10.0818 16.9748C10.2048 16.991 10.3287 16.9991 10.4527 16.9992C10.8748 17.0106 11.2903 16.8948 11.6459 16.6668C12.0012 16.439 12.2799 16.1095 12.4458 15.7212C12.9177 15.6284 13.3423 15.3739 13.6467 15.0014C14.1185 14.4699 14.3357 13.7594 14.2414 13.055C14.7207 12.7345 15.0703 12.2541 15.228 11.6995C15.4424 11.0879 15.3152 10.4084 14.8939 9.91579ZM6.16598 16.3299C4.80554 16.5012 4.46441 15.4393 4.43088 15.3192C4.38934 15.1637 4.24049 15.062 4.08046 15.0799C3.71973 15.0501 3.38935 14.8658 3.17458 14.5744C2.77828 14.1261 2.62868 13.511 2.77509 12.9307C2.79803 12.8407 2.78133 12.745 2.72905 12.668C2.67677 12.5911 2.59414 12.5401 2.50192 12.528C2.33303 12.506 1.89985 12.0941 1.72572 11.5139C1.59763 11.1466 1.6518 10.7403 1.87138 10.4193C2.2947 10.7454 2.79149 10.9622 3.31836 11.0509C3.49218 11.0822 3.65919 10.9689 3.69447 10.7959C3.72976 10.6228 3.62055 10.4532 3.44847 10.4137C2.64047 10.2479 2.12785 9.92293 1.92509 9.44796C1.55681 8.58465 2.26607 7.44168 2.27347 7.43123C2.31834 7.35921 2.33374 7.27281 2.31646 7.1896C2.31326 7.17435 2.00379 5.6608 2.8799 5.21165C3.56302 4.8614 4.24119 4.85675 4.73772 5.19989C4.96629 5.36645 5.14551 5.59168 5.25644 5.8519C5.36739 6.11212 5.40587 6.39747 5.36768 6.67773C5.34779 6.85634 5.4766 7.01724 5.65522 7.03713C5.83384 7.05703 5.99489 6.92822 6.01464 6.74961C6.06605 6.35229 6.00869 5.94861 5.84895 5.58121C5.68906 5.21397 5.43276 4.89683 5.10716 4.6636C4.76749 4.43082 4.36698 4.30303 3.95529 4.29563C3.79032 3.48608 4.10719 2.93441 4.50379 2.75813C4.97939 2.54699 5.52659 2.81767 5.93144 3.46459C6.02685 3.61721 6.22798 3.66368 6.38061 3.56828C6.53338 3.47302 6.57985 3.27189 6.48444 3.11913C6.26327 2.7391 5.94148 2.42761 5.55443 2.2191C6.41195 1.65769 7.12718 1.55386 7.49486 1.72958C7.61496 1.79769 7.71181 1.90006 7.77324 2.02364C7.83467 2.14707 7.85791 2.28619 7.8399 2.42297V5.52545C7.80926 5.50105 7.77978 5.47477 7.74754 5.45284C7.42254 5.22239 7.00226 5.17447 6.6337 5.32578C6.55136 5.35642 6.48485 5.41901 6.44927 5.49931C6.41384 5.57976 6.41238 5.67095 6.4452 5.75242C6.47802 5.83388 6.5425 5.89865 6.62383 5.9319C6.70515 5.96515 6.79649 5.96399 6.87709 5.92885C7.04554 5.86002 7.23782 5.88471 7.38347 5.99391C7.68495 6.23264 7.85442 6.60089 7.83988 6.98498V12.5147C7.78746 12.4672 7.73358 12.421 7.67724 12.3778C7.3123 12.0708 6.82623 11.9491 6.35978 12.048C6.18726 12.0982 6.08807 12.2787 6.13832 12.4514C6.18842 12.6239 6.36907 12.7231 6.54161 12.6728C6.81085 12.6371 7.08241 12.7192 7.28689 12.8979C7.61189 13.1245 7.81565 13.4872 7.83988 13.8826V14.9148C7.83988 14.9267 7.79432 16.1234 6.16598 16.3299ZM14.6061 11.5139C14.4322 12.0942 13.9988 12.506 13.8299 12.5281C13.7377 12.5401 13.6551 12.5911 13.6028 12.6681C13.5505 12.745 13.5338 12.8407 13.5568 12.9308C13.7031 13.511 13.5536 14.1261 13.1573 14.5744C12.9425 14.8659 12.6121 15.0502 12.2514 15.0799C12.0921 15.0621 11.9435 15.1628 11.9013 15.3174C11.8687 15.4393 11.5256 16.5036 10.1659 16.3299C8.53621 16.1234 8.49063 14.9267 8.49063 14.9147V5.4913C8.47727 5.33215 8.53448 5.17503 8.64703 5.0616C8.84569 4.92554 9.0866 4.86513 9.32594 4.89156C9.50457 4.91174 9.66576 4.78337 9.68595 4.60476C9.70613 4.4263 9.57776 4.26511 9.39914 4.24493C9.08837 4.21748 8.77558 4.2699 8.49062 4.39711V2.42296C8.47276 2.28602 8.49614 2.14691 8.55786 2.02333C8.61958 1.89976 8.71673 1.79753 8.83712 1.72957C9.20467 1.55386 9.92003 1.65769 10.7775 2.21908C10.3907 2.42775 10.0686 2.73923 9.84739 3.11911C9.75198 3.27188 9.79845 3.473 9.95122 3.56826C10.1038 3.66366 10.305 3.61719 10.4004 3.46457C10.8057 2.81766 11.3524 2.54696 11.828 2.75811C12.2246 2.9344 12.5414 3.48606 12.3765 4.29561C11.9643 4.30258 11.5632 4.43051 11.2231 4.66358C10.8975 4.89679 10.641 5.21395 10.4813 5.58119C10.3215 5.94858 10.2642 6.35227 10.3154 6.74959C10.3353 6.9282 10.4962 7.05701 10.675 7.03711C10.7607 7.02753 10.8393 6.9844 10.8931 6.91688C10.9472 6.8495 10.972 6.76339 10.9625 6.67771C10.9242 6.39716 10.9627 6.11165 11.0736 5.85132C11.1846 5.59095 11.3641 5.3656 11.593 5.19902C12.0893 4.85588 12.7669 4.86038 13.4508 5.21078C14.3267 5.65933 14.0174 7.17349 14.0142 7.18873C13.9969 7.27179 14.0122 7.35834 14.0571 7.43036C14.0646 7.44169 14.7727 8.58482 14.4054 9.44708C14.2027 9.92191 13.6898 10.2469 12.8821 10.4129C12.7958 10.4283 12.7194 10.4779 12.6702 10.5504C12.6211 10.6229 12.6032 10.7122 12.6207 10.7981C12.6382 10.8839 12.6897 10.959 12.7634 11.0065C12.837 11.054 12.9268 11.0697 13.0122 11.0501C13.5387 10.9612 14.0354 10.7443 14.4584 10.4184C14.6792 10.7393 14.7339 11.1461 14.6061 11.5139ZM9.48843 8.11056C9.34684 7.99976 9.32172 7.79515 9.43252 7.65357C9.54318 7.51184 9.74794 7.48687 9.88953 7.59752C10.5499 8.11302 11.1319 8.27376 11.6201 8.0757C12.2414 7.82331 12.6142 7.02377 12.7072 6.34329C12.7316 6.16526 12.8957 6.04067 13.0738 6.0652C13.2518 6.0896 13.3764 6.25369 13.352 6.43172C13.2421 7.23417 12.7864 8.30395 11.8648 8.67848C11.7502 8.72408 11.631 8.75762 11.5095 8.77838C11.5387 8.91401 11.6021 9.03992 11.6939 9.14389C11.9091 9.34544 12.1982 9.44883 12.4924 9.42952C12.6722 9.43126 12.8164 9.57822 12.8147 9.75784C12.8129 9.93747 12.666 10.0818 12.4863 10.0801H12.4805C12.0032 10.1008 11.5396 9.91715 11.2064 9.57487C11.0102 9.3495 10.8857 9.07082 10.8486 8.77447C10.3477 8.66759 9.88068 8.4396 9.48843 8.11056ZM12.5393 12.773C12.5369 12.9509 12.392 13.0938 12.2141 13.0938H12.2109C11.9882 13.0961 11.7672 13.132 11.5553 13.2001C11.5498 13.2024 11.544 13.2037 11.538 13.2056C11.2809 13.2812 11.0453 13.4167 10.8504 13.6009C10.5722 13.8958 10.4271 14.2918 10.4487 14.6967C10.4487 14.8763 10.3031 15.0219 10.1235 15.0219C9.94367 15.0219 9.79816 14.8763 9.79816 14.6967C9.77347 14.1161 9.98985 13.5511 10.396 13.1353C10.6076 12.9309 10.8574 12.7703 11.1311 12.6623C11.1639 12.2064 11.0395 11.7527 10.7785 11.3772C10.4556 11.0071 9.99042 10.7917 9.49913 10.7852C9.32008 10.7702 9.1872 10.613 9.20216 10.4339C9.20825 10.3477 9.24906 10.2675 9.31514 10.2116C9.38121 10.1557 9.46704 10.1288 9.55315 10.137C10.228 10.1541 10.8628 10.4616 11.2945 10.9808C11.6124 11.4171 11.7833 11.9433 11.7824 12.4831C11.9262 12.459 12.0717 12.4458 12.2177 12.4438C12.3039 12.4448 12.3864 12.48 12.4467 12.5417C12.5071 12.6035 12.5404 12.6867 12.5393 12.773ZM3.33484 6.78789C3.3135 6.6116 3.43751 6.45085 3.61338 6.4266C3.78924 6.40235 3.95203 6.5236 3.97918 6.69902C4.07285 7.37976 4.44534 8.17931 5.06734 8.43142C5.55528 8.62978 6.13716 8.46889 6.79719 7.95354C6.93893 7.84928 7.13803 7.87687 7.24636 8.0157C7.35469 8.15438 7.33291 8.35404 7.19742 8.46629C6.80547 8.79534 6.33901 9.02316 5.83858 9.12993C5.8017 9.42646 5.67709 9.70528 5.48076 9.93048C5.14733 10.2726 4.68392 10.4564 4.20661 10.436H4.2008C4.02117 10.4376 3.87406 10.2934 3.87246 10.1138C3.87072 9.93413 4.01492 9.78702 4.19456 9.78543C4.49096 9.80503 4.78213 9.6999 4.9975 9.49529C5.08724 9.39205 5.14954 9.26789 5.17859 9.13415C5.05689 9.11353 4.93752 9.07999 4.8228 9.03424C3.90093 8.65989 3.44503 7.58978 3.33484 6.78789ZM5.57937 13.4916C5.98571 13.9072 6.20222 14.4722 6.17754 15.0529C6.17754 15.2325 6.03188 15.3782 5.85224 15.3782C5.67261 15.3782 5.52695 15.2325 5.52695 15.0529C5.54859 14.648 5.40337 14.2519 5.125 13.9571C4.74409 13.6355 4.2634 13.4561 3.76486 13.4499H3.76196C3.58232 13.4513 3.4355 13.3068 3.43405 13.1272C3.4326 12.9476 3.57709 12.8008 3.75673 12.7993C3.90282 12.8 4.04848 12.813 4.1924 12.8381C4.19167 12.2985 4.3626 11.7728 4.68034 11.3366C5.11192 10.817 5.74671 10.5088 6.42198 10.4908C6.60104 10.4759 6.75831 10.609 6.77327 10.7882C6.78808 10.9673 6.65506 11.1246 6.47586 11.1395C5.98472 11.1462 5.51957 11.3617 5.19692 11.7321C4.93625 12.1078 4.81195 12.5613 4.84461 13.0172C5.11835 13.1256 5.36765 13.2871 5.57937 13.4916Z" stroke="#1169F9" stroke-width="0.2" mask="url(#path-1-outside-1_207_36598)"/>
  <defs>
    <linearGradient id="paint0_linear_207_36598" x1="8.16522" y1="1" x2="8.16522" y2="17" gradientUnits="userSpaceOnUse">
      <stop offset="0.188426" stop-color="#4828DE"/>
      <stop offset="1" stop-color="#DB17B0"/>
    </linearGradient>
  </defs>
</svg>
