<svg viewBox="0 0 15 16" fill="none" xmlns="http://www.w3.org/2000/svg">
<path d="M13.9129 8.92702C13.9547 8.85775 13.9918 8.78587 14.0239 8.71167C14.4468 7.71201 13.8938 6.56774 13.6923 6.20703C13.7642 5.74934 13.9064 4.22704 12.7663 3.64314C12.5383 3.52566 12.2968 3.43636 12.0471 3.37712C12.2557 2.24679 11.7323 1.45173 11.1093 1.17497C10.9671 1.11296 10.8161 1.07419 10.6617 1.06011C10.6568 1.05561 10.6546 1.04936 10.6491 1.04486C9.51055 0.132188 8.335 -0.209335 7.57504 0.154567H7.57489C7.42517 0.226303 7.29215 0.328677 7.18424 0.454866C7.07649 0.328532 6.94346 0.226157 6.79389 0.154277C6.03467 -0.209045 4.85681 0.131188 3.71985 1.04457C3.71433 1.04907 3.712 1.05532 3.70721 1.05982C3.5527 1.07361 3.40152 1.11239 3.2595 1.17468C2.63649 1.45145 2.11312 2.24809 2.32165 3.37683C2.07201 3.43593 1.83051 3.52538 1.60251 3.64285C0.463979 4.22675 0.604543 5.74901 0.676442 6.20674C0.47502 6.56774 -0.0795772 7.71217 0.344903 8.71138C0.376997 8.78558 0.414029 8.85746 0.455852 8.92673C0.0344207 9.41929 -0.092946 10.099 0.121409 10.7108C0.279409 11.2649 0.628942 11.7447 1.10803 12.0649C1.01378 12.7694 1.23089 13.4799 1.70271 14.0114C2.00709 14.3838 2.4317 14.6384 2.90369 14.7312C3.06939 15.1195 3.34821 15.449 3.70358 15.6769C4.05893 15.9048 4.47469 16.0205 4.89672 16.0092C5.02074 16.009 5.14461 16.0009 5.26761 15.9848C6.03772 15.9345 6.74307 15.5365 7.18424 14.9032C7.62512 15.5369 8.33047 15.9356 9.10087 15.9861C9.22388 16.0022 9.34775 16.0103 9.47177 16.0105C9.89379 16.0218 10.3094 15.9061 10.6649 15.6781C11.0203 15.4502 11.299 15.1208 11.4648 14.7324C11.9367 14.6396 12.3614 14.3851 12.6658 14.0126C13.1376 13.4811 13.3547 12.7706 13.2605 12.0662C13.7397 11.7457 14.0894 11.2653 14.2471 10.7108C14.4614 10.0991 14.3342 9.41956 13.9129 8.927V8.92702ZM5.18502 15.3411C3.82458 15.5125 3.48345 14.4505 3.44992 14.3304V14.3306C3.40839 14.175 3.25954 14.0732 3.0995 14.0911C2.73878 14.0613 2.40839 13.8771 2.19363 13.5856C1.79733 13.1373 1.64773 12.5222 1.79413 11.9419C1.81707 11.8519 1.80037 11.7562 1.74809 11.6792C1.69582 11.6023 1.61318 11.5513 1.52097 11.5393C1.35207 11.5172 0.918895 11.1054 0.744761 10.5251C0.616677 10.1579 0.670843 9.75153 0.890418 9.4305C1.31375 9.75664 1.81053 9.97343 2.3374 10.0622C2.51123 10.0934 2.67823 9.98012 2.71351 9.80717C2.7488 9.63408 2.63959 9.46447 2.46751 9.42498C1.65952 9.25915 1.14689 8.93416 0.94413 8.45918C0.575853 7.59588 1.28511 6.45291 1.29251 6.44246V6.44261C1.33739 6.37058 1.35278 6.28404 1.3355 6.20083C1.3323 6.18558 1.02284 4.67203 1.89894 4.22288C2.58206 3.87263 3.26023 3.86798 3.75676 4.21112H3.75661C3.98519 4.37768 4.16455 4.60291 4.27549 4.86313C4.38644 5.12335 4.42492 5.4087 4.38672 5.68896C4.36683 5.86757 4.49564 6.02847 4.67426 6.04836C4.85288 6.06826 5.01393 5.93945 5.03368 5.76084C5.08509 5.36352 5.02773 4.95984 4.86799 4.59244C4.7081 4.2252 4.4518 3.90806 4.12621 3.67483C3.78654 3.44205 3.38603 3.31426 2.97433 3.30686C2.80936 2.49731 3.12623 1.94564 3.52283 1.76936C3.99843 1.55822 4.54563 1.8289 4.95048 2.47582C5.04589 2.62844 5.24702 2.67491 5.39965 2.57951C5.55242 2.48425 5.59889 2.28312 5.50348 2.13036C5.28231 1.75033 4.96052 1.43884 4.57348 1.23033C5.43099 0.66892 6.14623 0.565091 6.5139 0.740815H6.51375C6.63385 0.808919 6.73086 0.911294 6.79229 1.03487C6.85371 1.1583 6.87695 1.29742 6.85894 1.4342V4.53668C6.8283 4.51228 6.79882 4.486 6.76658 4.46407V4.46422C6.44158 4.23377 6.02131 4.1857 5.65274 4.33701C5.5704 4.36765 5.50389 4.43024 5.46831 4.51054C5.43288 4.59099 5.43143 4.68218 5.46425 4.76365C5.49707 4.84511 5.56155 4.90988 5.64287 4.94313C5.72419 4.97638 5.81553 4.97522 5.89613 4.94008C6.06459 4.87125 6.25686 4.89594 6.40251 5.00514C6.70399 5.24387 6.87346 5.61212 6.85893 5.99621V11.5259C6.8065 11.4784 6.75262 11.4323 6.69628 11.389C6.33134 11.082 5.84528 10.9603 5.37882 11.0592C5.2063 11.1095 5.10712 11.29 5.15736 11.4626C5.20747 11.6351 5.38812 11.7343 5.56065 11.6841C5.82989 11.6484 6.10146 11.7304 6.30593 11.9092C6.63093 12.1357 6.83469 12.4984 6.85893 12.8938V13.926C6.85893 13.9379 6.81333 15.1346 5.18499 15.3411L5.18502 15.3411ZM13.6252 10.5252C13.4512 11.1054 13.0179 11.5173 12.849 11.5393C12.7568 11.5514 12.6741 11.6023 12.6218 11.6793C12.5696 11.7563 12.5529 11.852 12.5758 11.942C12.7222 12.5222 12.5726 13.1374 12.1763 13.5857C11.9615 13.8771 11.6312 14.0614 11.2704 14.0912C11.1111 14.0733 10.9626 14.1741 10.9203 14.3286C10.8878 14.4506 10.5446 15.5148 9.18491 15.3411C7.55525 15.1347 7.50967 13.938 7.50967 13.9259V4.50253C7.49631 4.34338 7.55353 4.18626 7.66607 4.07283C7.86474 3.93677 8.10565 3.87636 8.34499 3.90279C8.52361 3.92297 8.6848 3.7946 8.70499 3.616C8.72517 3.43753 8.5968 3.27634 8.41818 3.25616C8.10741 3.22871 7.79462 3.28113 7.50966 3.40834V1.43419C7.4918 1.29725 7.51518 1.15814 7.5769 1.03456C7.63862 0.910986 7.73577 0.808755 7.85616 0.740797C8.22371 0.565087 8.93907 0.668916 9.79658 1.23031H9.79644C9.40958 1.43898 9.08763 1.75046 8.86643 2.13034C8.77102 2.28311 8.81749 2.48423 8.97026 2.57949C9.12289 2.67489 9.32402 2.62842 9.41943 2.4758C9.82473 1.82889 10.3715 1.55819 10.8471 1.76934C11.2437 1.94563 11.5604 2.49729 11.3956 3.30684C10.9833 3.31381 10.5822 3.44174 10.2421 3.67481C9.91652 3.90802 9.66007 4.22518 9.50033 4.59243C9.34058 4.95981 9.28322 5.3635 9.33449 5.76082C9.35438 5.93943 9.51529 6.06824 9.69405 6.04834C9.77973 6.03876 9.8583 5.99563 9.91217 5.92811C9.96619 5.86073 9.99103 5.77462 9.98159 5.68894C9.94325 5.40839 9.98173 5.12288 10.0927 4.86255C10.2036 4.60218 10.3831 4.37683 10.612 4.21025C11.1084 3.86711 11.786 3.87161 12.4698 4.22201C13.3458 4.67056 13.0365 6.18472 13.0333 6.19996H13.0331C13.0158 6.28302 13.0312 6.36957 13.0761 6.44159C13.0837 6.45292 13.7917 7.59605 13.4245 8.45831C13.2218 8.93314 12.7088 9.25816 11.9011 9.4241C11.8148 9.4395 11.7385 9.48916 11.6892 9.56162C11.6401 9.63408 11.6223 9.72339 11.6397 9.80936C11.6573 9.89518 11.7087 9.97025 11.7825 10.0177C11.8561 10.0652 11.9458 10.0809 12.0312 10.0613C12.5578 9.97243 13.0544 9.75548 13.4775 9.42963C13.6982 9.75055 13.7529 10.1573 13.6252 10.5251L13.6252 10.5252ZM8.50747 7.12179C8.36588 7.01099 8.34076 6.80639 8.45156 6.6648C8.56222 6.52307 8.76698 6.4981 8.90857 6.60875C9.5689 7.12425 10.1509 7.28499 10.6392 7.08693C11.2604 6.83455 11.6332 6.035 11.7263 5.35452C11.7507 5.17649 11.9148 5.0519 12.0928 5.07643C12.2709 5.10083 12.3955 5.26492 12.3711 5.44295C12.2611 6.2454 11.8054 7.31517 10.8839 7.68971H10.8837C10.7691 7.73531 10.6501 7.76885 10.5285 7.78962C10.5577 7.92524 10.6212 8.05115 10.7129 8.15512C10.9282 8.35667 11.2173 8.46006 11.5115 8.44075C11.6913 8.44249 11.8355 8.58945 11.8337 8.76907C11.832 8.9487 11.685 9.09304 11.5054 9.0913H11.4996C11.0222 9.11207 10.5587 8.92838 10.2254 8.5861C10.0292 8.36073 9.90478 8.08205 9.86761 7.7857C9.36673 7.67882 8.89972 7.45084 8.50747 7.1218L8.50747 7.12179ZM11.5584 11.7842C11.5559 11.9621 11.411 12.105 11.2331 12.105H11.2299C11.0073 12.1073 10.7862 12.1432 10.5744 12.2113C10.5689 12.2136 10.563 12.2149 10.5571 12.2168C10.2999 12.2925 10.0644 12.428 9.86948 12.6121C9.59123 12.907 9.44615 13.303 9.46779 13.7079C9.46779 13.8875 9.32213 14.0332 9.14249 14.0332C8.96271 14.0332 8.8172 13.8875 8.8172 13.7079C8.79251 13.1273 9.00889 12.5623 9.41507 12.1466C9.62666 11.9421 9.87643 11.7815 10.1502 11.6736C10.183 11.2176 10.0585 10.764 9.79756 10.3885C9.47459 10.0183 9.00946 9.80296 8.51817 9.79641C8.33912 9.78146 8.20624 9.62419 8.2212 9.44514C8.2273 9.35889 8.2681 9.27873 8.33418 9.22282C8.40025 9.16691 8.48608 9.14005 8.5722 9.14818C9.24702 9.16532 9.88181 9.47288 10.3135 9.99201C10.6314 10.4284 10.8023 10.9545 10.8015 11.4944C10.9452 11.4703 11.0908 11.4571 11.2367 11.455C11.323 11.456 11.4054 11.4912 11.4657 11.5529C11.5261 11.6148 11.5594 11.698 11.5584 11.7842L11.5584 11.7842ZM2.35389 5.79912C2.33254 5.62283 2.45656 5.46208 2.63242 5.43783C2.80828 5.41358 2.97107 5.53483 2.99823 5.71025C3.09189 6.39099 3.46438 7.19054 4.08638 7.44265C4.57432 7.64101 5.15621 7.48012 5.81624 6.96477L5.81638 6.96492C5.95812 6.86066 6.15707 6.8881 6.2654 7.02693C6.37373 7.16561 6.35195 7.36527 6.21646 7.47752C5.82451 7.80657 5.35806 8.03439 4.85763 8.14116C4.82074 8.43769 4.69614 8.71651 4.4998 8.94171C4.16637 9.28383 3.70296 9.46766 3.22565 9.44721H3.21985C3.04021 9.44881 2.8931 9.30462 2.8915 9.12498C2.88976 8.94536 3.03396 8.79825 3.2136 8.79666C3.51 8.81626 3.80118 8.71113 4.01654 8.50652C4.10629 8.40328 4.16858 8.27912 4.19763 8.14538C4.07594 8.12476 3.95656 8.09122 3.84184 8.04547C2.91998 7.67112 2.46412 6.60106 2.35393 5.79916L2.35389 5.79912ZM4.59841 12.5028C5.00475 12.9184 5.22127 13.4834 5.19658 14.0641C5.19658 14.2438 5.05092 14.3894 4.87129 14.3894C4.69165 14.3894 4.54599 14.2438 4.54599 14.0641C4.56763 13.6593 4.42241 13.2631 4.14404 12.9683C3.76313 12.6467 3.28244 12.4673 2.78391 12.4611H2.781C2.60136 12.4625 2.45455 12.3181 2.45309 12.1384C2.45164 11.9588 2.59614 11.812 2.77577 11.8105C2.92187 11.8113 3.06752 11.8242 3.21144 11.8493C3.21072 11.3097 3.38164 10.784 3.69938 10.3478C4.13097 9.82821 4.76575 9.52007 5.44102 9.50208C5.62008 9.48712 5.77736 9.62028 5.79231 9.79947C5.80713 9.97852 5.6741 10.1358 5.4949 10.1507C5.00376 10.1574 4.53861 10.3729 4.21596 10.7433C3.95529 11.119 3.831 11.5725 3.86365 12.0285C4.13739 12.1368 4.38702 12.2977 4.59874 12.5021L4.59841 12.5028Z" fill="currentColor"/>
</svg>
