<svg width="10" height="10" viewBox="0 0 10 10" fill="none" xmlns="http://www.w3.org/2000/svg">
<path d="M5.69354 4.99937L9.20917 0.808747C9.2681 0.739104 9.21854 0.633301 9.12747 0.633301H8.05872C7.99578 0.633301 7.93551 0.661426 7.89399 0.70964L4.99444 4.16634L2.09488 0.70964C2.0547 0.661426 1.99444 0.633301 1.93015 0.633301H0.861401C0.770329 0.633301 0.720776 0.739104 0.779704 0.808747L4.29533 4.99937L0.779704 9.19C0.766504 9.20552 0.758035 9.22451 0.755303 9.2447C0.752572 9.26489 0.755692 9.28545 0.764293 9.30392C0.772895 9.32239 0.786617 9.33801 0.80383 9.34891C0.821043 9.35982 0.841024 9.36556 0.861401 9.36544H1.93015C1.9931 9.36544 2.05336 9.33732 2.09488 9.2891L4.99444 5.83241L7.89399 9.2891C7.93417 9.33732 7.99444 9.36544 8.05872 9.36544H9.12747C9.21854 9.36544 9.2681 9.25964 9.20917 9.19L5.69354 4.99937Z" fill="#8D8D8D"/>
</svg>
