<svg xmlns="http://www.w3.org/2000/svg" width="81" height="39" viewBox="0 0 81 39" fill="none">
<path d="M35.257 11.2609L35.9344 10.5253L35.1448 9.79817L34.4754 10.6372L35.257 11.2609ZM53.1079 27.6989L52.4306 28.4345L53.0644 29.0182L53.7354 28.4776L53.1079 27.6989ZM62.0334 20.5073L62.7315 19.7913L62.0965 19.1722L61.406 19.7286L62.0334 20.5073ZM81 39L77.8706 27.8851L69.8095 36.1527L81 39ZM27.8791 20.5073L27.2918 21.3166L28.0649 21.8777L28.6608 21.131L27.8791 20.5073ZM34.5796 11.9965L52.4306 28.4345L53.7853 26.9633L35.9344 10.5253L34.5796 11.9965ZM53.7354 28.4776L62.6608 21.2859L61.406 19.7286L52.4805 26.9202L53.7354 28.4776ZM61.3353 21.2233L73.8579 33.433L75.2542 32.0011L62.7315 19.7913L61.3353 21.2233ZM34.4754 10.6372L27.0975 19.8836L28.6608 21.131L36.0387 11.8846L34.4754 10.6372ZM28.4665 19.6979L1.58736 0.190674L0.41264 1.80933L27.2918 21.3166L28.4665 19.6979Z" fill="#1BA543"/>
</svg>