<svg xmlns="http://www.w3.org/2000/svg" width="151" height="126" viewBox="0 0 151 126" fill="none">
    <path opacity="0.1"
        d="M149.812 86.8734C145.715 66.5178 121.713 50.249 117.031 29.037C108.523 2.04968 80.4783 -2.21708 62.2543 9.50352C33.3783 28.075 64.183 32.6836 7.56652 76.6225C-6.41336 87.4718 -1.95874 135.364 42.0211 124.373C65.6892 118.458 72.8842 117.628 83.5302 116.654C110.364 114.199 156.689 121.043 149.812 86.8734Z"
        fill="#7D7D7D" />
    <path d="M117.756 91.9751L76.2819 113.558L34.8704 91.9751V59.3839H117.756V91.9751Z"
        fill="#EFEFEF" />
    <path
        d="M76.2819 113.889C76.2271 113.889 76.1731 113.875 76.1247 113.85L34.7145 92.2674C34.6607 92.2394 34.6156 92.1975 34.5841 92.1462C34.5525 92.0949 34.5357 92.0361 34.5355 91.9761V59.3839C34.5355 59.2961 34.5709 59.2119 34.6339 59.1498C34.6969 59.0877 34.7824 59.0529 34.8715 59.0529H117.756C117.845 59.0529 117.931 59.0877 117.994 59.1498C118.057 59.2119 118.092 59.2961 118.092 59.3839V91.9751C118.092 92.035 118.075 92.0938 118.043 92.1452C118.012 92.1965 117.967 92.2384 117.913 92.2664L76.4389 113.849C76.3906 113.875 76.3367 113.888 76.2819 113.889ZM35.2064 91.7762L76.2819 113.183L117.42 91.7757V59.7149H35.2064V91.7762Z"
        fill="#262626" />
    <path d="M117.756 52.3903L76.282 30.8079L94.9189 21.9568L136.393 43.5395L117.756 52.3903Z"
        fill="#EFEFEF" />
    <path
        d="M117.756 52.7213C117.701 52.7213 117.648 52.7082 117.599 52.6832L76.125 31.1005C76.07 31.0718 76.0242 31.0287 75.9926 30.976C75.9611 30.9232 75.945 30.8628 75.9461 30.8016C75.9472 30.7404 75.9656 30.6806 75.9991 30.6291C76.0326 30.5775 76.08 30.5361 76.136 30.5094L94.7729 21.6584C94.8202 21.6358 94.8724 21.6245 94.925 21.6254C94.9776 21.6264 95.0293 21.6396 95.0758 21.6639L136.55 43.2466C136.605 43.2753 136.651 43.3183 136.682 43.3711C136.714 43.4238 136.73 43.4841 136.729 43.5454C136.728 43.6066 136.709 43.6663 136.676 43.7179C136.642 43.7694 136.595 43.8108 136.539 43.8374L117.902 52.6885C117.856 52.7101 117.807 52.7213 117.756 52.7213ZM77.0272 30.8208L117.763 52.019L135.648 43.5255L94.9118 22.3278L77.0272 30.8208Z"
        fill="#262626" />
    <path d="M34.8704 52.3903L76.3445 30.8079L57.7076 21.9568L16.2335 43.5395L34.8704 52.3903Z"
        fill="#EFEFEF" />
    <path
        d="M34.8704 52.7213C34.8199 52.7213 34.77 52.7101 34.7245 52.6885L16.0887 43.8374C16.0327 43.8108 15.9853 43.7695 15.9518 43.7179C15.9182 43.6663 15.8999 43.6066 15.8987 43.5454C15.8976 43.4841 15.9137 43.4238 15.9453 43.3711C15.9769 43.3183 16.0227 43.2753 16.0777 43.2466L57.5518 21.6639C57.5983 21.6396 57.6499 21.6264 57.7026 21.6254C57.7552 21.6245 57.8073 21.6358 57.8547 21.6584L76.4916 30.5094C76.5476 30.5361 76.5949 30.5775 76.6284 30.6291C76.662 30.6806 76.6803 30.7404 76.6815 30.8016C76.6826 30.8628 76.6665 30.9232 76.6349 30.976C76.6033 31.0287 76.5575 31.0718 76.5026 31.1005L35.0285 52.6832C34.9797 52.7084 34.9255 52.7215 34.8704 52.7213ZM16.9789 43.526L34.8634 52.0195L75.5993 30.8214L57.7147 22.3278L16.9789 43.526Z"
        fill="#262626" />
    <path d="M34.8705 52.3903L76.3446 73.9729L55.02 85.4719L13.5459 63.8895L34.8705 52.3903Z"
        fill="#EFEFEF" />
    <path
        d="M55.02 85.8029C54.9652 85.803 54.9114 85.7898 54.863 85.7645L13.3889 64.1818C13.3353 64.1538 13.2905 64.1121 13.259 64.061C13.2276 64.01 13.2108 63.9515 13.2103 63.8918C13.2099 63.8321 13.2259 63.7733 13.2565 63.7218C13.2872 63.6703 13.3315 63.628 13.3846 63.5992L34.7092 52.1C34.7579 52.0737 34.8125 52.0597 34.868 52.0593C34.9236 52.059 34.9783 52.0722 35.0274 52.0979L76.5015 73.6806C76.5551 73.7086 76.5999 73.7503 76.6314 73.8014C76.6628 73.8524 76.6796 73.9109 76.6801 73.9706C76.6805 74.0303 76.6646 74.0891 76.6339 74.1406C76.6032 74.1921 76.559 74.2344 76.5058 74.2632L55.1812 85.7624C55.1318 85.789 55.0763 85.8029 55.02 85.8029ZM14.2554 63.8842L55.017 85.0961L75.6353 73.978L34.8734 52.766L14.2554 63.8842Z"
        fill="#262626" />
    <path d="M117.756 52.3903L76.282 73.9729L97.6066 85.4719L139.081 63.8895L117.756 52.3903Z"
        fill="#EFEFEF" />
    <path
        d="M97.6071 85.8029C97.5508 85.8029 97.4953 85.789 97.4459 85.7624L76.1213 74.2632C76.0682 74.2344 76.0239 74.1921 75.9932 74.1406C75.9625 74.0891 75.9466 74.0303 75.947 73.9706C75.9475 73.9109 75.9643 73.8524 75.9957 73.8014C76.0272 73.7503 76.072 73.7086 76.1256 73.6806L117.6 52.0979C117.649 52.0722 117.704 52.059 117.759 52.0593C117.815 52.0597 117.869 52.0737 117.918 52.1L139.243 63.5992C139.296 63.628 139.34 63.6703 139.371 63.7218C139.401 63.7733 139.417 63.8321 139.417 63.8918C139.416 63.9515 139.4 64.01 139.368 64.061C139.337 64.1121 139.292 64.1538 139.238 64.1818L97.7641 85.7645C97.7158 85.7898 97.6619 85.803 97.6071 85.8029ZM76.9924 73.978L97.6104 85.0961L138.372 63.8842L117.754 52.766L76.9924 73.978Z"
        fill="#262626" />
    <path d="M76.3446 30.8079L34.8705 52.3903L76.282 73.973L117.756 52.3903L76.3446 30.8079Z"
        fill="white" />
    <path d="M76.618 73.9727H75.946V113.557H76.618V73.9727Z" fill="#262626" />
    <path
        d="M53.0448 50.4309C52.9892 50.4309 52.9349 50.4138 52.8897 50.3819C52.8315 50.3413 52.7921 50.2796 52.7801 50.2104C52.7681 50.1412 52.7845 50.0701 52.8257 50.0128C52.8755 49.9436 57.733 43.0245 52.3102 36.7165C51.3505 35.5942 50.1532 34.6923 48.8024 34.074C47.4515 33.4558 45.9798 33.136 44.4903 33.1372H44.4172C44.9322 34.8998 44.8403 36.467 44.1111 37.6693C43.8004 38.2126 43.3419 38.6596 42.7873 38.96C42.2326 39.2604 41.6039 39.4022 40.9718 39.3694C40.4487 39.3272 39.9493 39.1356 39.535 38.818C39.1207 38.5004 38.8094 38.0707 38.6392 37.5814C38.0428 36.0486 38.666 34.5625 40.3088 33.6046C41.3494 33.0392 42.5058 32.7115 43.6923 32.6457C43.3063 31.6374 42.8044 30.6759 42.1964 29.7801C40.2384 26.8337 36.6699 24.7941 32.4056 24.1842C28.7917 23.6676 25.3283 24.2761 23.581 25.7342C23.5266 25.7796 23.4561 25.8018 23.385 25.796C23.314 25.7901 23.2482 25.7567 23.2021 25.7031C23.1561 25.6495 23.1336 25.58 23.1395 25.51C23.1454 25.44 23.1793 25.3752 23.2337 25.3298C25.0931 23.7783 28.7234 23.1223 32.4827 23.6615C36.8994 24.2933 40.6036 26.418 42.6463 29.4912C43.3085 30.4658 43.8472 31.5167 44.2503 32.6203C45.8571 32.5823 47.452 32.8999 48.9177 33.5498C50.3834 34.1997 51.6824 35.1653 52.719 36.3754C58.4151 43.0009 53.3149 50.2479 53.2628 50.3205C53.2379 50.3546 53.2052 50.3824 53.1673 50.4016C53.1294 50.4208 53.0874 50.4308 53.0448 50.4309ZM43.8668 33.1565C42.7164 33.2049 41.5929 33.5143 40.5837 34.0606C39.1657 34.8874 38.6405 36.1019 39.1423 37.3921C39.2783 37.7874 39.5282 38.1351 39.8616 38.3926C40.195 38.6502 40.5973 38.8064 41.0194 38.8422C41.5508 38.8657 42.0784 38.743 42.5432 38.4879C43.0079 38.2328 43.3915 37.8554 43.651 37.3979C44.3202 36.2936 44.3815 34.8257 43.866 33.1565H43.8668Z"
        fill="#262626" />
    <path
        d="M95.2752 35.1588C95.2177 35.1588 95.1617 35.1406 95.1154 35.1069C95.0692 35.0732 95.0351 35.0258 95.0183 34.9716C94.1268 31.6915 93.8889 28.2722 94.3179 24.903C95.0126 19.9773 97.7697 13.5129 106.958 10.6822C108.251 10.2726 109.577 9.9731 110.922 9.78686C111.355 7.12253 113.002 4.2323 116.686 2.23822C125.437 -2.49991 131.349 1.75122 131.408 1.79465C131.465 1.83679 131.502 1.89952 131.512 1.96905C131.522 2.03858 131.504 2.10921 131.461 2.16539C131.419 2.22158 131.355 2.25873 131.284 2.26866C131.214 2.27859 131.142 2.2605 131.085 2.21836C131.029 2.17704 125.38 -1.86435 116.945 2.70271C113.503 4.56624 111.927 7.2409 111.479 9.72384C115.532 9.33058 117.473 10.6626 118.344 11.6687C118.883 12.2736 119.229 13.0215 119.34 13.8191C119.45 14.6166 119.32 15.4286 118.966 16.1539C118.686 16.7401 118.232 17.2288 117.664 17.5555C117.096 17.8821 116.441 18.0314 115.785 17.9835C113.522 17.8527 111.649 15.9767 111.014 13.2041C110.804 12.2655 110.749 11.3 110.849 10.344C109.584 10.5231 108.336 10.8057 107.119 11.1891C99.9575 13.3953 95.8305 18.0346 94.85 24.9774C94.43 28.2702 94.6616 31.612 95.5322 34.818C95.5445 34.8576 95.5472 34.8995 95.5401 34.9403C95.533 34.9811 95.5163 35.0197 95.4913 35.053C95.4663 35.0863 95.4338 35.1134 95.3962 35.1321C95.3587 35.1507 95.3173 35.1604 95.2752 35.1604V35.1588ZM111.397 10.2778C111.285 11.2155 111.332 12.1651 111.538 13.0873C112.119 15.6237 113.798 17.3379 115.816 17.4547C116.366 17.4935 116.916 17.3676 117.392 17.0935C117.868 16.8194 118.249 16.4099 118.485 15.9187C118.792 15.2863 118.904 14.5788 118.806 13.8842C118.708 13.1897 118.405 12.5389 117.934 12.0129C116.677 10.5599 114.384 9.97303 111.397 10.2778Z"
        fill="#262626" />
</svg>