<svg width="14" height="14" viewBox="0 0 14 14" fill="none" xmlns="http://www.w3.org/2000/svg">
<path fill-rule="evenodd" clip-rule="evenodd" d="M7.35563 0.615404C6.42648 0.595183 5.50411 0.778006 4.65292 1.15111C3.80173 1.52422 3.04223 2.07861 2.42745 2.77558C1.81267 3.47256 1.35743 4.29532 1.0935 5.18643C0.829566 6.07754 0.763314 7.01551 0.899365 7.93487C1.03542 8.85423 1.37049 9.73282 1.8812 10.5093C2.3919 11.2858 3.06593 11.9414 3.85622 12.4305C4.64652 12.9195 5.53403 13.2302 6.4568 13.3408C7.37957 13.4513 8.31535 13.3592 9.19882 13.0707C9.34978 13.0214 9.47495 12.9141 9.54681 12.7725C9.61866 12.6309 9.63132 12.4665 9.58199 12.3156C9.53266 12.1646 9.42539 12.0394 9.28377 11.9676C9.14215 11.8957 8.97778 11.8831 8.82683 11.9324C7.86676 12.2459 6.83608 12.2724 5.86117 12.0086C4.88626 11.7449 4.00952 11.2023 3.33847 10.4475C2.66742 9.69276 2.23124 8.75855 2.08341 7.75947C1.93558 6.76039 2.08253 5.73989 2.50624 4.82311C2.92996 3.90634 3.61201 3.13315 4.46876 2.59837C5.32551 2.06359 6.3197 1.79046 7.32942 1.81249C8.33913 1.83452 9.32047 2.15074 10.1531 2.72238C10.9857 3.29402 11.6334 4.09622 12.0167 5.03061C12.0769 5.17753 12.1931 5.29452 12.3395 5.35582C12.4121 5.38618 12.4899 5.40195 12.5685 5.40223C12.6471 5.40252 12.725 5.38732 12.7978 5.35749C12.8706 5.32767 12.9367 5.28381 12.9925 5.22841C13.0483 5.17302 13.0927 5.10718 13.123 5.03465C13.1534 4.96211 13.1691 4.88431 13.1694 4.80569C13.1697 4.72706 13.1545 4.64915 13.1247 4.57639C12.6529 3.42633 11.8558 2.43894 10.831 1.73534C9.80624 1.03174 8.5984 0.642517 7.35563 0.615404ZM7.81463 3.6073C7.81463 3.44851 7.75156 3.29623 7.63928 3.18396C7.527 3.07168 7.37472 3.0086 7.21593 3.0086C7.05715 3.0086 6.90487 3.07168 6.79259 3.18396C6.68031 3.29623 6.61724 3.44851 6.61724 3.6073V6.75246L4.99357 8.37533C4.93474 8.43014 4.88756 8.49624 4.85484 8.56968C4.82212 8.64312 4.80452 8.7224 4.80311 8.80279C4.80169 8.88317 4.81648 8.96303 4.84659 9.03757C4.8767 9.11212 4.92152 9.17984 4.97837 9.23669C5.03522 9.29354 5.10294 9.33836 5.17749 9.36847C5.25204 9.39859 5.33189 9.41337 5.41227 9.41195C5.49266 9.41054 5.57194 9.39294 5.64538 9.36022C5.71882 9.3275 5.78492 9.28032 5.83973 9.2215L7.63901 7.423L7.81463 7.24739V3.6073ZM12.8038 12.5878C12.8038 12.7995 12.7197 13.0025 12.57 13.1522C12.4203 13.3019 12.2172 13.386 12.0055 13.386C11.7938 13.386 11.5908 13.3019 11.4411 13.1522C11.2914 13.0025 11.2073 12.7995 11.2073 12.5878C11.2073 12.3761 11.2914 12.173 11.4411 12.0233C11.5908 11.8736 11.7938 11.7895 12.0055 11.7895C12.2172 11.7895 12.4203 11.8736 12.57 12.0233C12.7197 12.173 12.8038 12.3761 12.8038 12.5878ZM12.6042 7.59862C12.6042 7.43984 12.5411 7.28756 12.4289 7.17528C12.3166 7.063 12.1643 6.99992 12.0055 6.99992C11.8467 6.99992 11.6945 7.063 11.5822 7.17528C11.4699 7.28756 11.4068 7.43984 11.4068 7.59862V10.3925C11.4068 10.5513 11.4699 10.7036 11.5822 10.8159C11.6945 10.9282 11.8467 10.9912 12.0055 10.9912C12.1643 10.9912 12.3166 10.9282 12.4289 10.8159C12.5411 10.7036 12.6042 10.5513 12.6042 10.3925V7.59862Z" fill="#262626"/>
</svg>
