<svg width="16" height="16" viewBox="0 0 16 16" fill="none" xmlns="http://www.w3.org/2000/svg">
<g id="group-user">
<path id="Vector" d="M4.60735 15.5C4.60735 15.6326 4.55465 15.7598 4.46094 15.8536C4.36712 15.9473 4.23995 16 4.10728 16H0.499957C0.36741 16.0001 0.24013 15.9474 0.14641 15.8536C0.0525848 15.7599 -0.000114193 15.6326 1.85798e-07 15.5V12.1423C1.85798e-07 11.9636 0.0953156 11.7985 0.249973 11.7092C0.40463 11.6199 0.595249 11.6199 0.750041 11.7092C0.904698 11.7985 1.00001 11.9636 1.00001 12.1423V14.9996H4.1073C4.24007 14.9996 4.36724 15.0523 4.46105 15.1461C4.55476 15.2401 4.60746 15.3673 4.60734 15.5L4.60735 15.5ZM15.5003 11.6426C15.3676 11.6426 15.2405 11.6953 15.1467 11.7891C15.0529 11.8828 15.0002 12.01 15.0002 12.1426V14.9996H11.8929C11.7142 14.9996 11.5491 15.0949 11.4599 15.2495C11.3705 15.4043 11.3705 15.5948 11.4599 15.7496C11.5491 15.9043 11.7142 15.9996 11.8929 15.9996H15.5003C15.6328 15.9996 15.7601 15.947 15.8538 15.8532C15.9476 15.7595 16.0003 15.6322 16.0002 15.4996V12.1422C16.0001 12.0096 15.9474 11.8825 15.8537 11.7887C15.7599 11.6951 15.6328 11.6424 15.5003 11.6424L15.5003 11.6426ZM15.5003 0H11.893C11.7142 0 11.5492 0.0953154 11.4599 0.249973C11.3706 0.404744 11.3706 0.595249 11.4599 0.750041C11.5492 0.904698 11.7142 1.00001 11.893 1.00001H15V4.35776C15 4.53636 15.0953 4.70145 15.2499 4.79081C15.4047 4.88017 15.5952 4.88017 15.75 4.79081C15.9047 4.70145 16 4.53637 16 4.35776V0.499681C16 0.367249 15.9473 0.240198 15.8536 0.146487C15.7598 0.0527754 15.6328 7.6258e-05 15.5004 7.6258e-05L15.5003 0ZM0.499992 4.85698C0.632654 4.85698 0.759819 4.80428 0.853539 4.71057C0.947365 4.61674 1.00006 4.48958 1.00006 4.35702V1.00016H4.10735C4.28606 1.00016 4.45116 0.904845 4.5404 0.750188C4.62976 0.595416 4.62976 0.404912 4.5404 0.250119C4.45116 0.095462 4.28607 0.000146642 4.10735 0.000146642H0.500025C0.367592 0.000146642 0.240541 0.0528458 0.14683 0.146557C0.0531187 0.240268 0.0004195 0.367316 0.0004195 0.499752V4.35724C0.0004195 4.48979 0.0530042 4.61684 0.146715 4.71067C0.240426 4.80438 0.367475 4.85708 0.500028 4.85719L0.499992 4.85698ZM5.9708 5.90612C5.9708 5.3679 6.18458 4.85182 6.56516 4.47123C6.94575 4.09064 7.46183 3.87687 8.00005 3.87687C8.53828 3.87687 9.05436 4.09065 9.43495 4.47123C9.81553 4.85182 10.0293 5.3679 10.0293 5.90612C10.0293 6.44435 9.81553 6.96043 9.43495 7.34101C9.05436 7.7216 8.53828 7.93537 8.00005 7.93537C7.46206 7.9348 6.94619 7.7208 6.56586 7.34034C6.18539 6.95987 5.97139 6.44411 5.97083 5.90615L5.9708 5.90612ZM6.97082 5.90612C6.97082 6.17901 7.07931 6.44089 7.27222 6.6338C7.46526 6.82684 7.72704 6.93532 8.00002 6.93532C8.27301 6.93532 8.53479 6.82683 8.72782 6.6338C8.92074 6.44088 9.02922 6.17899 9.02922 5.90612C9.02922 5.63312 8.92073 5.37136 8.72782 5.17832C8.53479 4.98529 8.27301 4.87692 8.00002 4.87692C7.72714 4.87727 7.46558 4.98575 7.27266 5.17868C7.07974 5.37171 6.97114 5.63326 6.97079 5.90615L6.97082 5.90612ZM11.9709 12.1224C12.1036 12.1224 12.2307 12.0697 12.3245 11.976C12.4183 11.8823 12.471 11.7552 12.471 11.6226C12.471 10.0182 10.5073 8.76165 7.99997 8.76165C5.49279 8.76153 3.52894 10.0182 3.52894 11.6226C3.52894 11.8012 3.62426 11.9663 3.77891 12.0555C3.93369 12.1449 4.12431 12.1449 4.27898 12.0555C4.43364 11.9663 4.52896 11.8012 4.52896 11.6226C4.52896 11.0191 5.10451 10.5869 5.44739 10.3828C6.22891 9.95529 7.10922 9.74105 7.99981 9.76155C8.8903 9.74082 9.77048 9.95482 10.552 10.382C10.8949 10.586 11.4704 11.0183 11.4704 11.6218C11.4702 11.7546 11.5229 11.8818 11.6166 11.9758C11.7104 12.0697 11.8377 12.1224 11.9705 12.1224L11.9709 12.1224Z" fill="black"/>
</g>
</svg>
