<svg width="18" height="20" viewBox="0 0 18 20" fill="none" xmlns="http://www.w3.org/2000/svg">
<path d="M7.43003 20C6.86146 19.9993 6.31088 19.8006 5.87295 19.438C5.43502 19.0754 5.1371 18.5715 5.0304 18.0131C4.62205 18.1726 4.17844 18.22 3.7456 18.1503C3.31277 18.0805 2.90648 17.8962 2.5689 17.6165C2.23133 17.3368 1.97477 16.9718 1.82586 16.5594C1.67694 16.1471 1.6411 15.7024 1.72204 15.2715C1.45707 15.063 1.23755 14.8025 1.07698 14.506C0.916407 14.2096 0.818187 13.8834 0.788356 13.5475C0.758526 13.2117 0.797715 12.8733 0.903514 12.5532C1.00931 12.233 1.17949 11.9379 1.40356 11.686C1.15884 11.4116 0.978609 11.086 0.876081 10.7329C0.773553 10.3798 0.751326 10.0083 0.81103 9.6455C0.870733 9.28273 1.01085 8.93791 1.22112 8.63632C1.43139 8.33473 1.70648 8.08401 2.02623 7.90253C1.85019 7.60537 1.73867 7.27448 1.69892 6.93139C1.65916 6.58829 1.69207 6.24067 1.79549 5.91113C1.89891 5.58158 2.07053 5.2775 2.2992 5.01864C2.52786 4.75978 2.80845 4.55195 3.12272 4.40866C3.07283 3.81458 3.24337 3.22293 3.6018 2.74654C3.96023 2.27015 4.48147 1.94237 5.06611 1.8257C5.21571 1.25283 5.56826 0.753783 6.05822 0.421366C6.54818 0.0889481 7.14219 -0.0542154 7.72979 0.0184983C8.31739 0.0912119 8.85858 0.374854 9.25273 0.816677C9.64688 1.2585 9.86715 1.82843 9.87259 2.42049V4.06743H13.073V2.58649C12.8663 2.50888 12.6933 2.36119 12.5842 2.16916C12.4752 1.97713 12.437 1.75292 12.4763 1.53561C12.5155 1.31829 12.6298 1.12165 12.7992 0.979932C12.9685 0.838219 13.1823 0.760423 13.4031 0.760098C13.6239 0.759773 13.8379 0.836941 14.0077 0.978156C14.1775 1.11937 14.2923 1.31568 14.3322 1.53288C14.3721 1.75008 14.3346 1.97439 14.2261 2.16675C14.1176 2.3591 13.9451 2.50729 13.7386 2.58551V4.40019C13.7386 4.4439 13.73 4.48719 13.7133 4.52757C13.6966 4.56796 13.6721 4.60465 13.6412 4.63556C13.6103 4.66647 13.5736 4.69098 13.5332 4.70769C13.4928 4.72441 13.4495 4.733 13.4058 4.73297H9.8726V7.00721H13.268L15.4187 4.862C15.3273 4.66103 15.3092 4.43432 15.3677 4.22139C15.4262 4.00846 15.5575 3.8228 15.7388 3.69675C15.9201 3.57071 16.1399 3.51227 16.3599 3.53162C16.5798 3.55096 16.786 3.64687 16.9426 3.80264C17.0991 3.9584 17.196 4.16414 17.2164 4.38401C17.2368 4.60388 17.1795 4.82395 17.0543 5.00587C16.9291 5.18778 16.7441 5.32002 16.5315 5.37955C16.3188 5.43907 16.092 5.4221 15.8906 5.3316L13.6411 7.5756C13.5786 7.63782 13.494 7.67275 13.4058 7.67277H9.8726V9.65615H13.1348C13.2133 9.44981 13.3617 9.27755 13.5542 9.16939C13.7466 9.06123 13.9709 9.02403 14.188 9.06426C14.4051 9.10449 14.6012 9.21961 14.7421 9.38956C14.883 9.5595 14.9599 9.7735 14.9592 9.99428C14.9586 10.215 14.8805 10.4286 14.7386 10.5977C14.5966 10.7668 14.3999 10.8808 14.1826 10.9198C13.9653 10.9587 13.7412 10.9202 13.5494 10.8109C13.3575 10.7016 13.2101 10.5285 13.1328 10.3217H9.8726V12.3074H13.4058C13.494 12.3074 13.5786 12.3423 13.6411 12.4045L15.8906 14.6482C16.092 14.5575 16.3189 14.5402 16.5317 14.5996C16.7444 14.6589 16.9297 14.791 17.055 14.9729C17.1804 15.1548 17.238 15.3749 17.2177 15.5949C17.1975 15.8148 17.1007 16.0207 16.9442 16.1767C16.7877 16.3326 16.5815 16.4287 16.3615 16.4482C16.1414 16.4677 15.9215 16.4093 15.7401 16.2833C15.5586 16.1573 15.4272 15.9717 15.3686 15.7587C15.31 15.5457 15.328 15.3189 15.4194 15.1178L13.268 12.9729H9.8726V15.2471H13.4058C13.4495 15.2471 13.4928 15.2557 13.5332 15.2724C13.5736 15.2891 13.6103 15.3137 13.6412 15.3446C13.6721 15.3755 13.6966 15.4122 13.7133 15.4525C13.73 15.4929 13.7386 15.5362 13.7386 15.5799V17.3947C13.9451 17.4729 14.1176 17.6211 14.2261 17.8134C14.3346 18.0058 14.3722 18.2301 14.3323 18.4473C14.2923 18.6645 14.1775 18.8608 14.0077 19.002C13.8379 19.1432 13.624 19.2204 13.4031 19.2201C13.1823 19.2197 12.9686 19.142 12.7992 19.0002C12.6298 18.8585 12.5156 18.6619 12.4763 18.4446C12.437 18.2273 12.4752 18.003 12.5843 17.811C12.6933 17.619 12.8663 17.4713 13.073 17.3937V15.9127H9.8726V17.5575C9.87182 18.205 9.61423 18.8259 9.15633 19.2838C8.69842 19.7416 8.0776 19.9992 7.43003 20ZM5.65238 17.6481C5.68129 18.1076 5.88717 18.5379 6.22675 18.8488C6.56634 19.1596 7.01319 19.3267 7.47341 19.315C7.93363 19.3032 8.37138 19.1135 8.69466 18.7858C9.01795 18.458 9.20161 18.0177 9.20704 17.5574V15.5224C9.033 15.5898 8.8834 15.7082 8.77785 15.8622C8.6723 16.0161 8.61573 16.1983 8.61556 16.3849C8.61556 16.4732 8.5805 16.5578 8.5181 16.6202C8.45569 16.6826 8.37104 16.7177 8.28278 16.7177C8.19452 16.7177 8.10988 16.6826 8.04747 16.6202C7.98506 16.5578 7.95 16.4732 7.95 16.3849C7.95041 16.0211 8.07535 15.6685 8.30405 15.3855C8.53274 15.1026 8.85141 14.9065 9.20704 14.8299C9.20704 13.634 9.20704 11.2313 9.20704 10.027C8.90361 10.2473 8.03062 10.5997 7.94997 9.99126C7.94996 9.94756 7.95855 9.90428 7.97527 9.86389C7.99199 9.82351 8.0165 9.78682 8.0474 9.75591C8.07831 9.72501 8.115 9.70049 8.15538 9.68378C8.19577 9.66706 8.23905 9.65847 8.28276 9.65848C8.52784 9.65817 8.7628 9.56065 8.93607 9.38731C9.10934 9.21398 9.20678 8.979 9.20701 8.73391V7.36957C9.20538 7.34989 9.20538 7.33011 9.20701 7.31043V2.42042C9.20211 2.00847 9.05441 1.61098 8.78911 1.29579C8.52382 0.980599 8.15737 0.767233 7.7523 0.692102C7.34723 0.616971 6.92864 0.684731 6.56796 0.883821C6.20727 1.08291 5.92685 1.40099 5.77455 1.78378C6.17725 1.83903 7.30192 2.05837 7.01083 2.64689C6.96174 2.72018 6.88562 2.77104 6.79913 2.78834C6.71263 2.80564 6.62281 2.78798 6.5493 2.73923C6.28062 2.56294 5.96939 2.46232 5.64836 2.44795C5.32732 2.43359 5.00835 2.50601 4.72499 2.6576C4.44164 2.80918 4.20437 3.03434 4.03816 3.30937C3.87195 3.5844 3.78293 3.89915 3.78047 4.22049C4.13734 4.17276 4.50034 4.20378 4.84394 4.31135C5.18754 4.41892 5.50342 4.60044 5.76936 4.84315C5.80202 4.8727 5.82849 4.90843 5.84724 4.94828C5.86599 4.98813 5.87664 5.0313 5.87858 5.0753C5.88052 5.1193 5.87371 5.16324 5.85853 5.20458C5.84336 5.24593 5.82014 5.28385 5.7902 5.31615C5.76027 5.34845 5.72422 5.37449 5.68414 5.39276C5.64407 5.41102 5.60077 5.42115 5.55675 5.42256C5.51274 5.42396 5.46888 5.41662 5.42772 5.40095C5.38656 5.38528 5.34892 5.3616 5.31699 5.33128C5.06133 5.10265 4.74527 4.95242 4.40656 4.89853C4.06784 4.84463 3.72077 4.88935 3.40678 5.02734C3.09279 5.16532 2.82513 5.39075 2.63577 5.67672C2.44641 5.96268 2.34334 6.29709 2.33886 6.64004C2.33743 7.07206 2.49629 7.48925 2.78471 7.8109C2.82346 7.85206 2.8511 7.90241 2.86501 7.95721C2.87891 8.012 2.87864 8.06944 2.8642 8.1241C2.84976 8.17876 2.82164 8.22884 2.78249 8.26962C2.74334 8.3104 2.69444 8.34054 2.64041 8.35719C2.39439 8.4401 2.16958 8.57604 1.98189 8.75541C1.7942 8.93477 1.64821 9.15319 1.55424 9.3952C1.46027 9.63722 1.42062 9.89692 1.43809 10.156C1.45557 10.415 1.52973 10.667 1.65535 10.8942C1.78097 11.1214 1.95497 11.3182 2.16505 11.4708C2.37513 11.6233 2.61616 11.7278 2.87109 11.7769C3.12602 11.8261 3.38863 11.8186 3.64034 11.755C3.89205 11.6914 4.12672 11.5733 4.32776 11.409C4.58121 11.2082 4.77383 10.9409 4.8841 10.6369C4.91549 10.5545 4.97831 10.4879 5.05876 10.4518C5.13921 10.4156 5.23071 10.4129 5.31318 10.4441C5.39566 10.4754 5.46236 10.5381 5.49866 10.6185C5.53495 10.6988 5.53787 10.7903 5.50676 10.8729C5.3792 11.2125 5.1783 11.5197 4.91838 11.7728C4.65846 12.0258 4.34593 12.2184 4.00305 12.3369C3.66017 12.4553 3.29539 12.4966 2.93471 12.4579C2.57402 12.4193 2.22631 12.3015 1.91635 12.113C1.65738 12.3967 1.4966 12.7562 1.45781 13.1384C1.41901 13.5205 1.50427 13.905 1.70096 14.235C1.89766 14.5649 2.19534 14.8228 2.54996 14.9704C2.90458 15.118 3.2973 15.1476 3.67002 15.0547C3.71221 15.0432 3.75625 15.0402 3.79961 15.0458C3.84296 15.0514 3.88478 15.0656 3.92265 15.0874C3.96052 15.1093 3.9937 15.1384 4.02028 15.1731C4.04685 15.2078 4.06629 15.2475 4.07749 15.2897C4.18398 16.0067 2.72299 15.778 2.34339 15.6209C2.32974 15.8575 2.36351 16.0945 2.4427 16.318C2.5219 16.5414 2.64494 16.7468 2.80459 16.922C2.96423 17.0972 3.15728 17.2388 3.37239 17.3384C3.5875 17.438 3.82035 17.4937 4.05725 17.5021C4.29416 17.5105 4.53036 17.4715 4.75198 17.3873C4.97361 17.3032 5.17619 17.1756 5.34784 17.0121C5.5195 16.8486 5.65676 16.6525 5.75158 16.4352C5.84639 16.218 5.89685 15.9839 5.89999 15.7469C5.9 15.6587 5.93507 15.574 5.99748 15.5116C6.05989 15.4492 6.14454 15.4141 6.2328 15.4142C6.32106 15.4142 6.4057 15.4492 6.46811 15.5116C6.53051 15.5741 6.56556 15.6587 6.56556 15.747C6.56543 16.112 6.48331 16.4724 6.32526 16.8014C6.1672 17.1305 5.93725 17.4198 5.65238 17.6481ZM13.4045 17.9991C13.3318 18.0006 13.2626 18.0305 13.2117 18.0824C13.1609 18.1343 13.1324 18.2041 13.1324 18.2768C13.1324 18.3495 13.1609 18.4193 13.2117 18.4712C13.2626 18.5231 13.3318 18.553 13.4045 18.5545C13.4772 18.553 13.5464 18.5231 13.5973 18.4712C13.6482 18.4193 13.6767 18.3495 13.6767 18.2768C13.6767 18.2041 13.6482 18.1343 13.5973 18.0824C13.5464 18.0305 13.4772 18.0006 13.4045 17.9991ZM16.0707 15.3235C16.0418 15.357 16.0215 15.397 16.0113 15.44C16.0012 15.483 16.0015 15.5279 16.0123 15.5707C16.0231 15.6136 16.0441 15.6532 16.0735 15.6863C16.1028 15.7193 16.1397 15.7448 16.181 15.7606C16.2223 15.7764 16.2668 15.782 16.3107 15.777C16.3546 15.772 16.3967 15.7565 16.4334 15.7318C16.47 15.7071 16.5002 15.6739 16.5214 15.6351C16.5425 15.5963 16.554 15.5529 16.5549 15.5087C16.5503 15.4548 16.5306 15.4033 16.4981 15.36C16.4655 15.3168 16.4214 15.2836 16.3709 15.2642C16.3203 15.2449 16.2653 15.2402 16.2122 15.2507C16.1591 15.2612 16.1101 15.2864 16.0707 15.3235ZM14.0161 9.71336C13.9434 9.71483 13.8742 9.74473 13.8234 9.79665C13.7725 9.84856 13.744 9.91836 13.744 9.99106C13.744 10.0637 13.7725 10.1335 13.8234 10.1855C13.8742 10.2374 13.9434 10.2673 14.0161 10.2688C14.0889 10.2674 14.1582 10.2375 14.2091 10.1856C14.2601 10.1336 14.2886 10.0638 14.2886 9.99105C14.2886 9.9183 14.2601 9.84845 14.2091 9.79652C14.1582 9.74459 14.0889 9.71474 14.0161 9.71336ZM16.0947 4.68037C16.4987 4.94331 16.7913 4.25051 16.2773 4.19384C16.2213 4.19482 16.1668 4.21262 16.1211 4.24492C16.0753 4.27723 16.0403 4.32256 16.0206 4.37502C16.0009 4.42748 15.9975 4.48464 16.0107 4.53909C16.0239 4.59354 16.0531 4.64278 16.0947 4.68037ZM13.4045 1.42565C13.3318 1.42712 13.2626 1.45702 13.2118 1.50894C13.1609 1.56086 13.1324 1.63065 13.1324 1.70335C13.1324 1.77604 13.1609 1.84584 13.2118 1.89776C13.2626 1.94967 13.3318 1.97958 13.4045 1.98104C13.4772 1.97958 13.5464 1.94967 13.5973 1.89776C13.6482 1.84584 13.6767 1.77604 13.6767 1.70335C13.6767 1.63065 13.6482 1.56086 13.5973 1.50894C13.5464 1.45702 13.4772 1.42712 13.4045 1.42565ZM4.98746 14.9527C4.94376 14.9527 4.90047 14.9441 4.86008 14.9274C4.8197 14.9107 4.783 14.8862 4.7521 14.8553C4.72119 14.8244 4.69668 14.7877 4.67996 14.7473C4.66325 14.7069 4.65466 14.6636 4.65468 14.6199C4.65542 13.972 4.91314 13.3508 5.37129 12.8927C5.82945 12.4345 6.45062 12.1768 7.09855 12.176C7.47411 12.2051 8.31448 12.211 8.17298 12.7714C7.96009 13.2223 7.45945 12.7758 7.09856 12.8417C6.62708 12.8421 6.17505 13.0297 5.84166 13.363C5.50827 13.6964 5.32075 14.1484 5.32025 14.6199C5.32027 14.6636 5.31168 14.7069 5.29497 14.7473C5.27825 14.7877 5.25374 14.8244 5.22283 14.8553C5.19193 14.8862 5.15523 14.9107 5.11484 14.9274C5.07446 14.9441 5.03117 14.9527 4.98746 14.9527ZM4.81912 9.52517C4.74068 9.52328 4.6654 9.49383 4.6065 9.442C4.54759 9.39016 4.5088 9.31925 4.49695 9.24168C4.48509 9.16411 4.50091 9.08485 4.54164 9.01778C4.58237 8.95072 4.64541 8.90013 4.71971 8.87488C4.80064 8.84935 4.87969 8.81819 4.95627 8.78162C5.20683 8.66003 5.42562 8.48175 5.5953 8.26091C5.76498 8.04006 5.88088 7.78273 5.93382 7.50931C5.57709 7.49976 5.22684 7.41181 4.90794 7.25168C4.58903 7.09155 4.30929 6.86318 4.08857 6.58278C4.06131 6.54857 4.04106 6.50931 4.029 6.46726C4.01693 6.42521 4.01328 6.38119 4.01824 6.33773C4.02321 6.29427 4.0367 6.25221 4.05795 6.21397C4.07919 6.17573 4.10777 6.14205 4.14205 6.11487C4.17632 6.08769 4.21562 6.06753 4.2577 6.05556C4.29978 6.04359 4.3438 6.04003 4.38725 6.0451C4.43071 6.05016 4.47273 6.06375 4.51093 6.08508C4.54912 6.10641 4.58273 6.13507 4.60984 6.16941C4.84119 6.45455 5.15479 6.66148 5.50795 6.76203C5.86111 6.86258 6.23668 6.85187 6.58353 6.73136C6.93039 6.61084 7.23169 6.38638 7.44642 6.08851C7.66115 5.79065 7.77888 5.43385 7.78359 5.06669C7.78543 4.97964 7.8213 4.89677 7.88351 4.83586C7.94573 4.77495 8.02934 4.74084 8.11641 4.74085C8.20348 4.74086 8.28708 4.77499 8.34928 4.83591C8.41148 4.89684 8.44734 4.97971 8.44915 5.06676C8.44848 5.60815 8.26833 6.13403 7.93692 6.56212C7.6055 6.9902 7.14151 7.29634 6.61756 7.43261C6.56741 7.92335 6.36817 8.38695 6.04665 8.76106C5.72513 9.13517 5.29674 9.40182 4.81912 9.52517Z" fill="white"/>
</svg>
