<svg width="12" height="12" viewBox="0 0 12 12" fill="none" xmlns="http://www.w3.org/2000/svg">
<path d="M9.84583 0.1032C9.82797 -0.0344002 9.62809 -0.0344002 9.61071 0.1032C9.47407 1.17454 8.63062 2.01747 7.55974 2.15417C7.42166 2.17203 7.42166 2.37191 7.55974 2.38929C8.6306 2.52593 9.47401 3.36938 9.61071 4.44026C9.62809 4.57834 9.82797 4.57834 9.84583 4.44026C9.98247 3.3694 10.8254 2.52599 11.8968 2.38929C12.0349 2.37191 12.0349 2.17203 11.8968 2.15417C10.8255 2.01753 9.98253 1.17456 9.84583 0.1032Z" fill="url(#paint0_linear_4697_87)"/>
<path d="M4.91887 2.77266C4.887 2.52402 4.52731 2.52402 4.49545 2.77266C4.20818 5.0225 2.43681 6.79439 0.18648 7.08113C-0.0621601 7.113 -0.0621601 7.47317 0.18648 7.50455C2.43681 7.79182 4.20821 9.56368 4.49545 11.8135C4.52731 12.0622 4.887 12.0622 4.91887 11.8135C5.20565 9.56368 6.9775 7.79179 9.22783 7.50455C9.47599 7.47317 9.47599 7.113 9.22783 7.08113C6.9775 6.79435 5.20561 5.0225 4.91887 2.77266Z" fill="url(#paint1_linear_4697_87)"/>
<defs>
<linearGradient id="paint0_linear_4697_87" x1="9.72827" y1="0" x2="9.72827" y2="4.54382" gradientUnits="userSpaceOnUse">
<stop offset="0.188426" stop-color="#4828DE"/>
<stop offset="1" stop-color="#DB17B0"/>
</linearGradient>
<linearGradient id="paint1_linear_4697_87" x1="4.70697" y1="2.58618" x2="4.70697" y2="12" gradientUnits="userSpaceOnUse">
<stop offset="0.188426" stop-color="#4828DE"/>
<stop offset="1" stop-color="#DB17B0"/>
</linearGradient>
</defs>
</svg>
