<svg viewBox="0 0 29 20" fill="none" xmlns="http://www.w3.org/2000/svg">
<path d="M20.9292 0.365323C21.4284 1.23597 21.7364 2.15779 21.3621 3.00076L21.4391 3.26343C21.9343 3.48861 22.1279 4.20601 21.8142 4.65417L22.7186 7.96076C23.1664 8.19509 23.3453 8.83771 23.0842 9.27365C23.116 9.52019 23.2156 9.55332 23.392 9.67234C23.9877 10.3099 24.2016 11.2411 24.1135 12.0161C24.0717 12.3873 23.7878 12.7187 23.4304 12.8135L17.821 14.282C17.5202 14.3611 17.1814 14.2739 16.9551 14.0583C16.3391 13.3551 16.0769 12.2159 16.3009 11.5395C16.394 11.4149 16.3402 11.3163 16.3395 11.1993C15.8103 10.9717 15.7414 10.1907 15.945 9.76974L1.90758 14.3696C1.35324 14.507 0.871078 14.3097 0.551045 13.9808C0.292735 13.7043 0.161943 13.4129 0.0795488 13.1055C-0.00263326 12.7982 -0.0353285 12.4747 0.0507754 12.1039C0.172411 11.6241 0.498075 11.2821 0.98398 11.0925L15.0309 6.48236C14.6217 6.23408 14.4671 5.63705 14.7037 5.21807L14.569 4.73176C13.8466 4.20402 13.6052 3.07746 13.655 2.32958C13.6831 1.94222 13.9754 1.58929 14.3477 1.49319L19.9571 0.0246647C20.3388 -0.0756089 20.6768 0.148259 20.9288 0.364939L20.9292 0.365323ZM19.6015 2.04769L15.6473 3.07855C15.947 3.28411 16.1593 3.58514 16.2631 3.90512L16.417 4.44964L19.5919 3.56465L19.4668 3.09773C19.3781 2.65914 19.4956 2.3254 19.6015 2.0475L19.6015 2.04769ZM21.3717 10.0125L18.1776 10.9074C18.32 11.2555 18.2801 11.6215 18.1872 11.9188C18.0769 12.045 18.1111 12.1444 18.1103 12.2787L22.2088 11.1992C22.1678 11.0806 22.0653 11.0538 21.9585 10.995C21.5572 10.7299 21.487 10.4474 21.3717 10.0127L21.3717 10.0125ZM26.3746 16.8881C26.7389 16.906 27.0807 17.163 27.2021 17.5104C27.8179 17.5063 28.1257 17.8176 28.1257 18.7357V20H13.3478C13.3609 19.338 13.336 18.7387 13.3478 18.1328C13.3478 17.8176 13.6556 17.5062 14.3099 17.5104C14.4379 17.1447 14.8113 16.882 15.1952 16.8881H26.3748H26.3746Z" fill="currentColor"/>
</svg>
