<?xml version="1.0" encoding="UTF-8"?>
<svg xmlns="http://www.w3.org/2000/svg" width="19px" height="19px"
     viewBox="0 0 19 19" version="1.1"
     fill="currentColor"
>
  <path d="M 15.832031 17.417969 L 3.167969 17.417969 C 2.730469 17.417969 2.375 17.0625 2.375 16.625 L 2.375 2.375 C 2.375 1.9375 2.730469 1.582031 3.167969 1.582031 L 15.832031 1.582031 C 16.269531 1.582031 16.625 1.9375 16.625 2.375 L 16.625 16.625 C 16.625 17.0625 16.269531 17.417969 15.832031 17.417969 Z M 15.042969 15.832031 L 15.042969 3.167969 L 3.957031 3.167969 L 3.957031 15.832031 Z M 5.542969 4.75 L 8.707031 4.75 L 8.707031 7.917969 L 5.542969 7.917969 Z M 5.542969 9.5 L 13.457031 9.5 L 13.457031 11.082031 L 5.542969 11.082031 Z M 5.542969 12.667969 L 13.457031 12.667969 L 13.457031 14.25 L 5.542969 14.25 Z M 10.292969 5.542969 L 13.457031 5.542969 L 13.457031 7.125 L 10.292969 7.125 Z M 10.292969 5.542969 "/>
</svg>
