<svg width="14" height="14" fill="none" xmlns="http://www.w3.org/2000/svg">
<path  fill="currentColor" d="M5.00016 8.66699V10.667H9.00016V8.66699H13.6668V13.3337C13.6668 13.5105 13.5966 13.68 13.4716 13.8051C13.3465 13.9301 13.177 14.0003 13.0002 14.0003H1.00016C0.823352 14.0003 0.653782 13.9301 0.528758 13.8051C0.403734 13.68 0.333496 13.5105 0.333496 13.3337V8.66699H5.00016ZM6.3335 7.33366H7.66683V9.33366H6.3335V7.33366ZM3.66683 3.33366V1.33366C3.66683 1.15685 3.73707 0.987279 3.86209 0.862254C3.98712 0.73723 4.15668 0.666992 4.3335 0.666992H9.66683C9.84364 0.666992 10.0132 0.73723 10.1382 0.862254C10.2633 0.987279 10.3335 1.15685 10.3335 1.33366V3.33366H13.0002C13.177 3.33366 13.3465 3.4039 13.4716 3.52892C13.5966 3.65395 13.6668 3.82351 13.6668 4.00033V7.33366H9.00016V6.00033H5.00016V7.33366H0.333496V4.00033C0.333496 3.82351 0.403734 3.65395 0.528758 3.52892C0.653782 3.4039 0.823352 3.33366 1.00016 3.33366H3.66683ZM5.00016 2.00033V3.33366H9.00016V2.00033H5.00016Z"/>
</svg>
