<svg width="24" height="20" viewBox="0 0 24 20" fill="none" xmlns="http://www.w3.org/2000/svg">
<path d="M8 6.75C7.58579 6.75 7.25 6.41421 7.25 6C7.25 5.58579 7.58579 5.25 8 5.25L8 6.75ZM24 6L16.5 10.3301L16.5 1.66987L24 6ZM8 5.25L17.25 5.25L17.25 6.75L8 6.75L8 5.25Z" fill="currentColor"/>
<path d="M16 14.75C16.4142 14.75 16.75 14.4142 16.75 14C16.75 13.5858 16.4142 13.25 16 13.25L16 14.75ZM0 14L7.5 18.3301L7.5 9.66987L0 14ZM16 13.25L6.75 13.25L6.75 14.75L16 14.75L16 13.25Z" fill="#DFE6F2"/>
</svg>
