<svg viewBox="0 0 17 16" fill="none" xmlns="http://www.w3.org/2000/svg">
<g clip-path="url(#clip0_494_30314)">
<path d="M14.8989 6.65605L11.928 2.888C11.8738 2.81922 11.8048 2.76359 11.726 2.72532C11.6472 2.68704 11.5608 2.6671 11.4733 2.66699H10.2994C10.178 2.66699 10.111 2.80648 10.1853 2.9025L12.7993 6.21765H1.83578C1.75607 6.21765 1.69086 6.28287 1.69086 6.36258V7.44951C1.69086 7.52922 1.75607 7.59444 1.83578 7.59444H14.4424C14.9279 7.59444 15.1979 7.03648 14.8989 6.65605Z" fill="currentColor"/>
<path d="M1.81614 9.76485L4.7871 13.5329C4.84128 13.6017 4.91034 13.6573 4.98909 13.6956C5.06784 13.7339 5.15424 13.7538 5.2418 13.7539H6.41569C6.53707 13.7539 6.6041 13.6144 6.52982 13.5184L3.91574 10.2032L14.8793 10.2032C14.959 10.2032 15.0242 10.138 15.0242 10.0583V8.97139C15.0242 8.89168 14.959 8.82646 14.8793 8.82646L2.27266 8.82646C1.78716 8.82646 1.51724 9.38442 1.81614 9.76485Z" fill="currentColor"/>
</g>
<defs>
<clipPath id="clip0_494_30314">
<rect width="16" height="16" transform="translate(0.357544)"/>
</clipPath>
</defs>
</svg>
