<svg viewBox="0 0 362 305" fill="none" xmlns="http://www.w3.org/2000/svg">
    <style>

    </style>
    <defs>
        <path id="animatedstroke"
              d="M61.7362 280.123C93.6652 202.612 118.176 30.5185 83.0007 34.2812C52.8563 37.5064 39.9772 81.6909 39.6547 127.853C39.3322 174.016 55.3504 215.793 118.477 196.012C181.604 176.231 250.687 121.575 267.952 106.202C285.217 90.8073 304.375 78.8742 316.953 93.6454C329.51 108.395 311.621 134.39 286.766 139.486C262.469 144.474 222.134 146.71 180.357 119.081C138.581 91.4523 114.005 66.4252 93.3642 40.5165"
              stroke="#1169F9" stroke-width="34.4016" stroke-linecap="round" stroke-linejoin="round" />
        <mask id="1_flag_pole">
            <path
                    d="M68.0541 210.716L67.2541 214.716C63.0441 233.356 58.1941 252.286 50.3041 269.836C49.9441 270.686 49.7541 271.596 49.7441 272.516C49.7441 273.436 49.9141 274.346 50.2741 275.196C50.6341 276.056 51.1541 276.816 51.8141 277.456C52.4741 278.096 53.2541 278.596 54.1141 278.926L66.6641 283.636C68.2541 284.236 70.0141 284.216 71.5941 283.576C73.1641 282.946 74.4541 281.736 75.1841 280.206C77.4541 275.406 79.2641 269.956 82.5241 260.996C87.3341 247.036 91.2141 232.766 94.1541 218.286L95.0941 213.516C85.2241 214.256 75.8041 213.036 68.0541 210.716Z"
                    fill="white" stroke="white" stroke-miterlimit="10" />
        </mask>
        <mask id="2_join_flag_pole">
            <path
                    d="M99.4241 186.276C99.0741 186.326 98.7341 186.376 98.3841 186.426C97.6941 186.516 97.0041 186.596 96.3141 186.676C91.2941 187.436 86.1741 187.306 81.2141 186.276C80.5041 186.126 79.7941 185.966 79.0941 185.786C78.8241 185.716 78.5641 185.646 78.3041 185.566C78.0941 185.516 77.8941 185.456 77.6941 185.386C77.4341 185.316 77.1841 185.236 76.9441 185.156C76.6041 185.056 76.2641 184.936 75.9441 184.826C75.4841 184.676 75.0541 184.506 74.6241 184.346C74.2041 184.176 73.7941 184.006 73.3941 183.836L68.0441 210.716C69.9841 211.296 72.0241 211.806 74.1541 212.236C78.4141 213.096 83.0041 213.626 87.7941 213.716C90.1841 213.766 92.6241 213.696 95.0941 213.516L97.7741 199.826L100.454 186.136C100.104 186.186 99.7641 186.236 99.4241 186.276Z"
                    fill="white" stroke="white" stroke-miterlimit="10" />
        </mask>
        <mask id="3_gap_flag_hang">
            <path
                    d="M103.174 172.066L100.394 186.256C99.7042 186.356 99.0142 186.456 98.3242 186.546C97.6342 186.636 96.9442 186.716 96.2542 186.796C90.5142 187.666 84.6542 187.366 79.0342 185.906C78.7642 185.836 78.5042 185.766 78.2442 185.686C78.0342 185.636 77.8342 185.576 77.6342 185.506C77.3742 185.436 77.1242 185.356 76.8842 185.276C76.5442 185.166 76.2142 185.056 75.8842 184.946C74.9742 184.636 74.1342 184.296 73.3342 183.956L76.2442 169.316C76.0742 170.426 76.3142 171.566 76.9242 172.506C77.5342 173.456 78.4742 174.136 79.5542 174.426L80.6242 174.726C86.2542 176.186 92.1142 176.486 97.8642 175.606L99.2242 175.476C100.214 175.376 101.154 174.946 101.884 174.266C102.514 173.666 102.964 172.906 103.174 172.066Z"
                    fill="white" stroke="white" stroke-miterlimit="10" />
            <circle id="mask1_3_gap_flag_hang" cx="90" cy="220" r="30" fill="black" />
        </mask>
        <mask id="4_flag_hang">
            <path
                    d="M101.944 29.6564C101.614 29.2764 101.274 28.9264 100.924 28.5964C100.674 28.3664 100.424 28.1364 100.174 27.9164C99.6642 27.4664 99.1542 27.0364 98.6242 26.6164C98.3642 26.4064 98.0942 26.2064 97.8242 26.0064C97.7942 25.9764 97.7542 25.9464 97.7242 25.9264C97.3242 25.6264 96.9142 25.3364 96.5042 25.0564C96.4442 25.0164 96.3842 24.9764 96.3142 24.9264C95.9942 24.7164 95.6742 24.5064 95.3442 24.3064C95.1942 24.2164 95.0442 24.1164 94.8842 24.0264C94.5042 23.7964 94.1142 23.5764 93.7142 23.3664C93.3642 23.1764 93.0042 22.9964 92.6442 22.8264C92.3542 22.6764 92.0642 22.5464 91.7642 22.4164C91.4442 22.2764 91.1242 22.1364 90.7942 22.0064C89.7742 21.6064 88.7142 21.2564 87.6142 20.9664C87.3642 20.8964 87.1142 20.8364 86.8542 20.7764C86.5542 20.6964 86.2342 20.6264 85.9242 20.5664C69.5642 17.2964 53.6842 26.8664 42.4042 46.9064C27.1042 74.0464 24.7542 105.706 24.2742 130.256C23.7542 166.966 33.9942 192.036 54.7242 204.786C55.4542 205.236 56.1842 205.666 56.9242 206.066C58.1342 206.746 59.3542 207.366 60.6242 207.936C61.0342 208.126 61.4442 208.306 61.8642 208.486C62.7042 208.846 63.5542 209.186 64.4442 209.516C65.6042 209.946 66.8042 210.346 68.0542 210.716L73.4042 183.836C70.1142 182.426 67.6842 180.816 65.9642 179.426C65.8142 179.306 65.6642 179.186 65.5242 179.066C63.5542 177.406 62.6842 176.166 62.6842 176.166C54.9742 167.076 51.1942 151.966 51.4842 130.716C51.7842 109.456 53.7542 82.1164 66.0142 60.2464C69.7042 53.7264 75.0742 47.0664 79.7842 47.0664C80.0842 47.0364 80.3942 47.0364 80.6942 47.0664C84.9042 47.9064 86.7442 55.8364 86.1742 70.6164C84.9542 103.646 81.6542 136.576 76.3142 169.196C76.1442 170.306 76.3842 171.446 76.9942 172.386C77.6042 173.336 78.5442 174.016 79.6242 174.306L80.6942 174.606C86.3242 176.066 92.1842 176.366 97.9342 175.486L99.2942 175.356C100.284 175.256 101.224 174.826 101.954 174.146C102.584 173.546 103.034 172.786 103.244 171.946L103.324 171.556C107.334 146.716 110.304 120.956 112.024 93.7564C112.024 93.7564 112.034 93.6664 112.044 93.4864C112.104 92.5264 112.304 89.0864 112.384 84.2164C112.644 69.2064 111.734 40.6464 101.944 29.6564Z"
                    fill="white" stroke="white" stroke-miterlimit="10" />
            <circle id="mask1_4_flag_hang" cx="78" cy="197" r="20" fill="black" />
            <circle id="mask2_4_flag_hang" cx="120" cy="160" r="50" fill="black" />
        </mask>
        <mask id="5_corner_left_flag_pole">
            <path
                    d="M68.0542 210.716C66.8042 210.346 65.6042 209.946 64.4442 209.516C65.4542 209.906 66.2942 210.646 66.8142 211.596C67.3242 212.546 67.4842 213.656 67.2542 214.716L68.0542 210.716Z"
                    fill="white" stroke="white" stroke-miterlimit="10" />
        </mask>
        <mask id="6_corner_right_flag_pole">
            <path
                    d="M95.0942 213.516L94.1542 218.286C94.4542 216.906 95.1842 215.656 96.2342 214.706C97.2742 213.756 98.5942 213.156 99.9942 212.986C98.3542 213.216 96.7142 213.396 95.0942 213.516Z"
                    fill="white" stroke="white" stroke-miterlimit="10" />
        </mask>
        <mask id="7_flag_bottom">
            <path
                    d="M188.104 148.236C187.954 148.356 187.784 148.446 187.614 148.536C179.434 153.736 171.134 158.646 162.554 163.196C147.194 171.596 130.934 178.236 114.084 182.966C113.194 183.246 112.294 183.516 111.394 183.766C110.884 183.916 110.374 184.056 109.854 184.186C109.784 184.206 109.714 184.226 109.644 184.246C109.064 184.396 108.484 184.546 107.904 184.676C106.914 184.916 105.914 185.146 104.914 185.346C104.464 185.436 104.004 185.526 103.554 185.616C103.124 185.696 102.694 185.766 102.264 185.846C102.204 185.856 102.154 185.866 102.104 185.866C101.554 185.966 101.014 186.056 100.464 186.136L95.0941 213.516C96.7141 213.396 98.3541 213.216 99.9941 212.986C123.074 210.586 147.664 200.916 168.564 190.406C170.724 189.316 172.844 188.226 174.924 187.126C193.484 176.966 211.444 165.746 228.714 153.506L229.974 152.536C221.114 151.156 208.984 147.096 197.294 142.026L188.104 148.236Z"
                    fill="white" stroke="white" stroke-miterlimit="10" />
        </mask>
        <mask id="8_join_flag_loop">
            <path
                    d="M224.134 123.886L197.294 142.026C208.984 147.096 221.114 151.156 229.974 152.536L260.574 128.886C248.964 128.786 236.334 127.376 224.134 123.886Z"
                    fill="white" stroke="white" stroke-miterlimit="10" />
        </mask>
        <mask id="9_flag_loop">
            <path
                    d="M335.984 96.5664C334.494 90.8864 331.444 85.7464 327.174 81.7264C322.434 77.5764 316.644 74.8064 310.444 73.7164C304.234 72.6264 297.854 73.2664 291.994 75.5664C275.024 82.0064 261.854 93.4164 249.124 104.456C242.664 110.046 236.574 115.296 230.204 119.776L229.824 120.026L229.504 120.276L226.694 122.206C226.574 122.296 226.444 122.366 226.304 122.416L224.134 123.886C236.334 127.376 248.964 128.786 260.574 128.886L273.364 119.006C276.264 116.526 279.964 114.006 283.014 111.736C287.204 108.536 291.674 105.726 296.364 103.346C299.944 101.576 305.424 98.5764 309.054 101.886C309.374 102.186 310.654 103.346 309.734 106.736C308.914 109.316 307.654 111.726 306.054 113.856C304.444 115.996 302.484 117.856 300.234 119.366C295.264 122.766 289.674 125.146 283.784 126.366C283.264 126.496 282.724 126.626 282.174 126.746C281.884 126.816 281.584 126.886 281.274 126.946C277.794 127.696 274.274 128.266 270.734 128.646C270.504 128.656 270.274 128.676 270.044 128.676C266.984 128.836 263.814 128.916 260.574 128.886L245.434 140.596L229.974 152.536C230.554 152.626 231.124 152.706 231.674 152.776C237.444 153.456 243.494 154.146 249.674 154.626C266.484 155.926 284.334 155.656 300.524 149.476C301.304 149.176 302.074 148.866 302.844 148.536C303.664 148.196 304.474 147.826 305.284 147.446C306.804 146.736 308.294 145.976 309.764 145.146C311.774 144.016 313.744 142.776 315.664 141.416C325.284 134.796 332.334 125.056 335.624 113.826C337.354 108.216 337.484 102.236 335.984 96.5664Z"
                    fill="white" stroke="white" />

            <path id="mask2_9_flag_loop"
                  d="M194.134 143.886L205.125 136.135L239.611 141.906L230.574 148.886C218.964 148.786 206.334 147.376 194.134 143.886Z"
                  fill="black" stroke="black" stroke-width="2" stroke-miterlimit="10" />


            <path id="mask1_9_flag_loop"
                  d="M270.044 128.676C270.274 128.676 270.504 128.656 270.734 128.646L249.674 154.626C243.494 154.146 237.444 153.456 231.674 152.776C231.124 152.706 230.554 152.626 229.974 152.536L245.434 140.596L260.574 128.886C263.814 128.916 266.984 128.836 270.044 128.676Z"
                  fill="black" stroke="black" stroke-width="1.2px" stroke-miterlimit="10" />

        </mask>
        <mask id="10_corner_flag_loop">
            <path
                    d="M266.574 127.466C266.454 126.986 266.454 126.496 266.574 126.026C266.934 123.896 271.464 120.646 273.364 119.006L260.574 128.886C263.814 128.916 265.854 128.876 268.914 128.716C267.914 128.716 266.944 128.506 266.574 127.466Z"
                    fill="white" stroke="white" stroke-miterlimit="10" />
        </mask>
        <mask id="12_gap_flag_top">
            <path
                    d="M203.924 115.736C210.344 119.226 217.164 121.896 224.134 123.886L197.294 142.026C192.374 139.896 187.524 137.576 183.034 135.216C183.744 135.576 184.534 135.736 185.334 135.696C186.124 135.656 186.894 135.396 187.564 134.966L204.464 123.596C205.124 123.156 205.664 122.536 206.014 121.816C206.364 121.106 206.524 120.306 206.464 119.506C206.404 118.706 206.144 117.936 205.694 117.276C205.254 116.616 204.644 116.086 203.924 115.736Z"
                    fill="white" stroke="white" stroke-miterlimit="10" />
            <circle id="mask1_12_gap_flag_top" cx="210" cy="138" r="30" fill="black" />
        </mask>
        <mask id="13_flag_top">
            <path
                    d="M206.464 119.506C206.404 118.706 206.144 117.936 205.694 117.276C205.254 116.616 204.644 116.086 203.924 115.736C191.864 109.856 179.154 102.336 168.104 94.7064C159.454 88.7264 151.204 82.1764 143.434 75.0964C142.134 73.8964 140.834 72.6964 139.554 71.4764C138.434 70.4164 137.324 69.3364 136.214 68.2564C128.494 60.6664 121.204 52.6664 114.384 44.2764C112.654 42.1864 110.974 40.0264 109.284 37.9064C106.714 34.6964 104.884 32.3564 101.944 29.6564C106.784 35.0864 109.454 44.8164 110.884 55.0664C112.344 65.5664 112.514 76.6164 112.384 84.2164L119.594 90.7064C138.884 108.046 160.184 122.986 183.034 135.216C183.744 135.576 184.534 135.736 185.334 135.696C186.124 135.656 186.894 135.396 187.564 134.966L204.464 123.596C205.124 123.156 205.664 122.536 206.014 121.816C206.364 121.106 206.524 120.306 206.464 119.506Z"
                    fill="white" stroke="white" stroke-miterlimit="10" />
            <circle id="mask1_13_flag_top" cx="25" cy="60" r="100" fill="black" />
        </mask>
        <mask id="14_corner_flag_top">
            <path
                    d="M112.384 84.2164C112.304 89.0864 112.104 92.5264 112.044 93.4864C112.154 92.7364 112.434 92.0164 112.884 91.3964C113.384 90.7064 114.074 90.1764 114.864 89.8564C115.644 89.5364 116.514 89.4464 117.344 89.5964C118.074 89.7264 118.764 90.0464 119.354 90.4964L112.384 84.2164Z"
                    fill="white" stroke="white" stroke-miterlimit="10" />
        </mask>
        <mask id="16_flag_top_head">
            <path
                    d="M101.887 29.725C96.3837 24.617 88.7959 23.5164 83.6259 28.1864C78.4559 32.8564 79.1559 40.6464 82.1659 46.1964C85.1759 51.7464 100.476 73.2664 112.386 84.2164C112.386 84.2164 114.947 42.785 101.887 29.725Z"
                    fill="white" stroke="white" stroke-miterlimit="10" />
        </mask>

    </defs>

    <path mask="url(#1_flag_pole)" id="animatedstroke"
          d="M61.7362 280.123C93.6652 202.612 118.176 30.5185 83.0007 34.2812C52.8563 37.5064 39.9772 81.6909 39.6547 127.853C39.3322 174.016 55.3504 215.793 118.477 196.012C181.604 176.231 250.687 121.575 267.952 106.202C285.217 90.8073 304.375 78.8742 316.953 93.6454C329.51 108.395 311.621 134.39 286.766 139.486C262.469 144.474 222.134 146.71 180.357 119.081C138.581 91.4523 114.005 66.4252 93.3642 40.5165"
          stroke="#1169F9" stroke-width="34.4016" stroke-linecap="round" stroke-linejoin="round" />

    <path mask="url(#2_join_flag_pole)" id="animatedstroke"
          d="M61.7362 280.123C93.6652 202.612 118.176 30.5185 83.0007 34.2812C52.8563 37.5064 39.9772 81.6909 39.6547 127.853C39.3322 174.016 55.3504 215.793 118.477 196.012C181.604 176.231 250.687 121.575 267.952 106.202C285.217 90.8073 304.375 78.8742 316.953 93.6454C329.51 108.395 311.621 134.39 286.766 139.486C262.469 144.474 222.134 146.71 180.357 119.081C138.581 91.4523 114.005 66.4252 93.3642 40.5165"
          stroke="#1169F9" stroke-width="34.4016" stroke-linecap="round" stroke-linejoin="round" />

    <path mask="url(#3_gap_flag_hang)" id="animatedstroke"
          d="M61.7362 280.123C93.6652 202.612 118.176 30.5185 83.0007 34.2812C52.8563 37.5064 39.9772 81.6909 39.6547 127.853C39.3322 174.016 55.3504 215.793 118.477 196.012C181.604 176.231 250.687 121.575 267.952 106.202C285.217 90.8073 304.375 78.8742 316.953 93.6454C329.51 108.395 311.621 134.39 286.766 139.486C262.469 144.474 222.134 146.71 180.357 119.081C138.581 91.4523 114.005 66.4252 93.3642 40.5165"
          stroke="#1169F9" stroke-width="34.4016" stroke-linecap="round" stroke-linejoin="round" />

    <path mask="url(#4_flag_hang)" id="animatedstroke"
          d="M61.7362 280.123C93.6652 202.612 118.176 30.5185 83.0007 34.2812C52.8563 37.5064 39.9772 81.6909 39.6547 127.853C39.3322 174.016 55.3504 215.793 118.477 196.012C181.604 176.231 250.687 121.575 267.952 106.202C285.217 90.8073 304.375 78.8742 316.953 93.6454C329.51 108.395 311.621 134.39 286.766 139.486C262.469 144.474 222.134 146.71 180.357 119.081C138.581 91.4523 114.005 66.4252 93.3642 40.5165"
          stroke="#1169F9" stroke-width="34.4016" stroke-linecap="round" stroke-linejoin="round" />

    <path mask="url(#5_corner_left_flag_pole)" id="animatedstroke"
          d="M61.7362 280.123C93.6652 202.612 118.176 30.5185 83.0007 34.2812C52.8563 37.5064 39.9772 81.6909 39.6547 127.853C39.3322 174.016 55.3504 215.793 118.477 196.012C181.604 176.231 250.687 121.575 267.952 106.202C285.217 90.8073 304.375 78.8742 316.953 93.6454C329.51 108.395 311.621 134.39 286.766 139.486C262.469 144.474 222.134 146.71 180.357 119.081C138.581 91.4523 114.005 66.4252 93.3642 40.5165"
          stroke="#1169F9" stroke-width="34.4016" stroke-linecap="round" stroke-linejoin="round" />

    <path mask="url(#6_corner_right_flag_pole)" id="animatedstroke"
          d="M61.7362 280.123C93.6652 202.612 118.176 30.5185 83.0007 34.2812C52.8563 37.5064 39.9772 81.6909 39.6547 127.853C39.3322 174.016 55.3504 215.793 118.477 196.012C181.604 176.231 250.687 121.575 267.952 106.202C285.217 90.8073 304.375 78.8742 316.953 93.6454C329.51 108.395 311.621 134.39 286.766 139.486C262.469 144.474 222.134 146.71 180.357 119.081C138.581 91.4523 114.005 66.4252 93.3642 40.5165"
          stroke="#1169F9" stroke-width="34.4016" stroke-linecap="round" stroke-linejoin="round" />

    <path mask="url(#7_flag_bottom)" id="animatedstroke"
          d="M61.7362 280.123C93.6652 202.612 118.176 30.5185 83.0007 34.2812C52.8563 37.5064 39.9772 81.6909 39.6547 127.853C39.3322 174.016 55.3504 215.793 118.477 196.012C181.604 176.231 250.687 121.575 267.952 106.202C285.217 90.8073 304.375 78.8742 316.953 93.6454C329.51 108.395 311.621 134.39 286.766 139.486C262.469 144.474 222.134 146.71 180.357 119.081C138.581 91.4523 114.005 66.4252 93.3642 40.5165"
          stroke="#1169F9" stroke-width="34.4016" stroke-linecap="round" stroke-linejoin="round" />

    <path mask="url(#8_join_flag_loop)" id="animatedstroke"
          d="M61.7362 280.123C93.6652 202.612 118.176 30.5185 83.0007 34.2812C52.8563 37.5064 39.9772 81.6909 39.6547 127.853C39.3322 174.016 55.3504 215.793 118.477 196.012C181.604 176.231 250.687 121.575 267.952 106.202C285.217 90.8073 304.375 78.8742 316.953 93.6454C329.51 108.395 311.621 134.39 286.766 139.486C262.469 144.474 222.134 146.71 180.357 119.081C138.581 91.4523 114.005 66.4252 93.3642 40.5165"
          stroke="#1169F9" stroke-width="34.4016" stroke-linecap="round" stroke-linejoin="round" />

    <path mask="url(#9_flag_loop)" id="animatedstroke"
          d="M61.7362 280.123C93.6652 202.612 118.176 30.5185 83.0007 34.2812C52.8563 37.5064 39.9772 81.6909 39.6547 127.853C39.3322 174.016 55.3504 215.793 118.477 196.012C181.604 176.231 250.687 121.575 267.952 106.202C285.217 90.8073 304.375 78.8742 316.953 93.6454C329.51 108.395 311.621 134.39 286.766 139.486C262.469 144.474 222.134 146.71 180.357 119.081C138.581 91.4523 114.005 66.4252 93.3642 40.5165"
          stroke="#1169F9" stroke-width="34.4016" stroke-linecap="round" stroke-linejoin="round" />

    <path mask="url(#10_corner_flag_loop)" id="animatedstroke"
          d="M61.7362 280.123C93.6652 202.612 118.176 30.5185 83.0007 34.2812C52.8563 37.5064 39.9772 81.6909 39.6547 127.853C39.3322 174.016 55.3504 215.793 118.477 196.012C181.604 176.231 250.687 121.575 267.952 106.202C285.217 90.8073 304.375 78.8742 316.953 93.6454C329.51 108.395 311.621 134.39 286.766 139.486C262.469 144.474 222.134 146.71 180.357 119.081C138.581 91.4523 114.005 66.4252 93.3642 40.5165"
          stroke="#1169F9" stroke-width="34.4016" stroke-linecap="round" stroke-linejoin="round" />

    <path mask="url(#12_gap_flag_top)" id="animatedstroke"
          d="M61.7362 280.123C93.6652 202.612 118.176 30.5185 83.0007 34.2812C52.8563 37.5064 39.9772 81.6909 39.6547 127.853C39.3322 174.016 55.3504 215.793 118.477 196.012C181.604 176.231 250.687 121.575 267.952 106.202C285.217 90.8073 304.375 78.8742 316.953 93.6454C329.51 108.395 311.621 134.39 286.766 139.486C262.469 144.474 222.134 146.71 180.357 119.081C138.581 91.4523 114.005 66.4252 93.3642 40.5165"
          stroke="#1169F9" stroke-width="34.4016" stroke-linecap="round" stroke-linejoin="round" />

    <path mask="url(#13_flag_top)" id="animatedstroke"
          d="M61.7362 280.123C93.6652 202.612 118.176 30.5185 83.0007 34.2812C52.8563 37.5064 39.9772 81.6909 39.6547 127.853C39.3322 174.016 55.3504 215.793 118.477 196.012C181.604 176.231 250.687 121.575 267.952 106.202C285.217 90.8073 304.375 78.8742 316.953 93.6454C329.51 108.395 311.621 134.39 286.766 139.486C262.469 144.474 222.134 146.71 180.357 119.081C138.581 91.4523 114.005 66.4252 93.3642 40.5165"
          stroke="#1169F9" stroke-width="34.4016" stroke-linecap="round" stroke-linejoin="round" />

    <path mask="url(#14_corner_flag_top)" id="animatedstroke"
          d="M61.7362 280.123C93.6652 202.612 118.176 30.5185 83.0007 34.2812C52.8563 37.5064 39.9772 81.6909 39.6547 127.853C39.3322 174.016 55.3504 215.793 118.477 196.012C181.604 176.231 250.687 121.575 267.952 106.202C285.217 90.8073 304.375 78.8742 316.953 93.6454C329.51 108.395 311.621 134.39 286.766 139.486C262.469 144.474 222.134 146.71 180.357 119.081C138.581 91.4523 114.005 66.4252 93.3642 40.5165"
          stroke="#1169F9" stroke-width="34.4016" stroke-linecap="round" stroke-linejoin="round" />

    <path mask="url(#16_flag_top_head)" id="animatedstroke"
          d="M61.7362 280.123C93.6652 202.612 118.176 30.5185 83.0007 34.2812C52.8563 37.5064 39.9772 81.6909 39.6547 127.853C39.3322 174.016 55.3504 215.793 118.477 196.012C181.604 176.231 250.687 121.575 267.952 106.202C285.217 90.8073 304.375 78.8742 316.953 93.6454C329.51 108.395 311.621 134.39 286.766 139.486C262.469 144.474 222.134 146.71 180.357 119.081C138.581 91.4523 114.005 66.4252 93.3642 40.5165"
          stroke="#1169F9" stroke-width="34.4016" stroke-linecap="round" stroke-linejoin="round" />

</svg>
