<?xml version="1.0" standalone="no"?>
<!DOCTYPE svg PUBLIC "-//W3C//DTD SVG 20010904//EN"
 "http://www.w3.org/TR/2001/REC-SVG-20010904/DTD/svg10.dtd">
<svg version="1.0" xmlns="http://www.w3.org/2000/svg"
 width="32.000000pt" height="32.000000pt" viewBox="0 0 32.000000 32.000000"
 preserveAspectRatio="xMidYMid meet">

<g transform="translate(0.000000,32.000000) scale(0.100000,-0.100000)"
fill="#000000" stroke="none">
<path d="M40 225 c0 -60 3 -75 15 -75 12 0 15 15 15 75 0 60 -3 75 -15 75 -12
0 -15 -15 -15 -75z"/>
<path d="M110 255 l0 -45 45 0 c55 0 65 27 13 32 -28 2 -34 8 -36 31 -5 44
-22 31 -22 -18z"/>
<path d="M175 290 c-3 -5 7 -12 22 -16 39 -9 53 -23 53 -50 0 -33 -36 -54 -92
-54 -27 0 -48 -4 -48 -10 0 -5 19 -10 43 -10 57 0 91 -19 95 -52 3 -28 -27
-58 -60 -58 -10 0 -18 -4 -18 -10 0 -20 66 -10 88 13 26 27 29 79 7 97 -14 12
-14 15 0 36 22 34 19 77 -8 102 -24 23 -71 30 -82 12z"/>
<path d="M40 65 l0 -45 45 0 c25 0 45 5 45 10 0 6 -13 10 -30 10 -23 0 -30 4
-30 20 0 18 7 20 65 20 51 0 65 3 65 15 0 12 -16 15 -80 15 l-80 0 0 -45z"/>
</g>
</svg>
