<svg width="67" height="16" viewBox="0 0 67 16" fill="none" xmlns="http://www.w3.org/2000/svg">
<g clip-path="url(#clip0_750_63765)">
<path d="M7.57377 4.79547C7.27783 6.1293 6.17284 7.07777 4.08312 7.07777C1.66652 7.07777 0.453551 5.58313 0.453551 3.78437C0.453551 2.05727 1.64784 0.5 4.1666 0.5C6.37948 0.5 7.41675 1.60984 7.58311 2.74619H5.4537C5.3859 2.47317 5.21575 2.23417 4.97615 2.07543C4.73656 1.91669 4.44456 1.8495 4.15667 1.88687C3.16435 1.88687 2.68453 2.63899 2.68453 3.7398C2.68453 4.74187 3.07329 5.67284 4.16601 5.67284C4.76608 5.74168 5.32411 5.36421 5.46245 4.79547H7.57377ZM15.7575 3.77534C15.7575 5.54758 14.5352 7.07777 11.9797 7.07777C9.62847 7.07777 8.33202 5.6277 8.33202 3.78437C8.33202 2.04824 9.59111 0.5 12.0725 0.5C14.4243 0.5 15.7575 1.98561 15.7575 3.77534ZM10.5624 3.74882C10.5624 4.84963 11.016 5.65479 12.0801 5.65479C13.1822 5.65479 13.5248 4.73284 13.5248 3.78437C13.5248 2.69259 13.1267 1.88687 12.0246 1.88687C10.9798 1.88687 10.5636 2.71911 10.5636 3.74882H10.5624ZM23.0248 4.81352L23.099 1.86938H23.0803L21.6916 6.93502H19.9597L18.7006 1.85189H18.682L18.8028 4.88574V6.93558H16.9139V0.643314H19.9416L20.9596 4.66175H20.969L22.0711 0.643314H25.0895V6.93446H23.0248V4.81352ZM26.6258 0.643314H30.2828C31.8478 0.643314 32.9417 1.39599 32.9417 2.69372C32.9417 4.02755 31.9137 4.7966 30.2939 4.7966H28.7272V6.93558H26.6258V0.643314ZM28.7272 3.41762H29.9589C30.5239 3.41762 30.8572 3.19193 30.8572 2.71065C30.8572 2.30779 30.6074 2.02116 29.9589 2.02116H28.7272V3.41762ZM33.9025 0.643314H36.0231V5.47593H39.5138L39.2639 6.93446H33.9025V0.643314ZM40.92 6.93446V4.75089C40.9203 4.6622 40.8873 4.5764 40.8272 4.5094L38.2074 0.643314H40.6888L42.0775 3.16711C42.3921 2.52276 42.9659 1.59235 43.4942 0.643314H45.7707L43.0943 4.57203C43.0556 4.63689 43.0394 4.71204 43.0482 4.78644V6.93446H40.92ZM2.53743 14.1848L2.12066 15.3561H0L2.46272 9.06498H5.22196L7.8417 15.3561H5.57395L5.12973 14.1837L2.53743 14.1848ZM4.63883 12.7263L3.80527 10.3565H3.7685C3.62957 10.8756 3.34238 11.7705 2.9904 12.7263H4.63883ZM8.54508 9.06555H11.8396C14.1908 9.06555 15.3764 10.4524 15.3764 12.1084C15.3764 14.0505 13.9042 15.3573 11.8209 15.3573H8.54508V9.06555ZM10.6564 13.9456H11.5728C12.6189 13.9456 13.1489 13.3368 13.1489 12.1558C13.1489 11.1893 12.7321 10.4823 11.5728 10.4733H10.6564V13.9456ZM18.1444 15.3561L15.6081 9.06498H17.9132L18.867 11.8861C19.1039 12.5526 19.3046 13.2306 19.4682 13.9173H19.4869C19.6708 13.1996 19.8932 12.4915 20.1535 11.7964L21.0425 9.06667H23.3109L20.7291 15.3561H18.1444ZM25.1169 14.1848L24.7013 15.3561H22.5801L25.0428 9.06498H27.802L30.4218 15.3561H28.1534L27.7092 14.1837L25.1169 14.1848ZM27.2183 12.7263L26.3847 10.3565H26.348C26.209 10.8756 25.9219 11.7705 25.5699 12.7263H27.2183ZM31.1251 15.3561V9.06555H33.5884L35.9402 12.9491H35.977C35.9122 12.3499 35.9216 11.213 35.9216 10.1748V9.06555H37.8192V15.3561H35.4954L32.9954 11.0336H32.9679C33.0263 11.7496 33.0327 12.5908 33.0327 13.8259V15.3561H31.1251ZM40.8803 10.515H38.7205V9.06555H45.128V10.515H42.9933V15.3561H40.8803V10.515ZM47.0397 14.1848L46.6247 15.3561H44.504L46.9667 9.06498H49.726L52.3451 15.3561H50.0768L49.632 14.1837L47.0397 14.1848ZM49.1411 12.7263L48.3075 10.3565H48.2708C48.1318 10.8756 47.8446 11.7705 47.4932 12.7263H49.1411ZM59.6673 15.3567H58.2138C58.1572 15.1688 58.114 14.977 58.0843 14.7834C57.6675 15.2309 57.1211 15.4994 55.9245 15.4994C55.0215 15.5581 54.1366 15.2359 53.498 14.617C52.8594 13.998 52.5284 13.1415 52.5914 12.2687C52.5914 10.4789 53.7676 8.92167 56.3319 8.92167C58.3965 8.92167 59.4799 9.93276 59.6743 10.989H57.5583C57.3797 10.4942 56.8637 10.1906 56.3267 10.2645C55.2252 10.2645 54.8271 11.1419 54.8271 12.162C54.8271 13.2719 55.2806 14.1216 56.3734 14.1216C57.2992 14.1216 57.6325 13.6138 57.6325 13.1286V13.0654H56.3547V11.6875H59.6691L59.6673 15.3567ZM66.5926 12.851H63.1113V13.9072H67L66.7589 15.3561H61.0268V9.06555H66.7764V10.515H63.1101V11.3924H66.5914L66.5926 12.851Z" fill="black"/>
</g>
<defs>
<clipPath id="clip0_750_63765">
<rect width="67" height="15" fill="white" transform="translate(0 0.5)"/>
</clipPath>
</defs>
</svg>
