<svg width="40" height="40" viewBox="0 0 40 40" fill="none" xmlns="http://www.w3.org/2000/svg">
  <rect width="40" height="40" fill="rgba(17, 104, 249, 0.05)"/>
  <g id="side-nav" transform="translate(7,9)">
    <g id="state-is=collapsed">
      <rect width="60" height="832" transform="translate(-15 -52)"/>
      <g id="Frame 524876" clip-path="url(#clip0_1884_27450)">
        <g id="head  + top-links">
          <g id="head">
            <g id="Dark Blue Bg 1">
              <g id="Group">
                <path id="Vector"
                      d="M26.9464 5.98097C26.5406 5.6254 26.0453 5.38827 25.5146 5.29535C24.9838 5.20244 24.4378 5.2573 23.9359 5.45398C22.484 6.00432 21.3578 6.98053 20.2684 7.92564C19.7159 8.40403 19.1944 8.85325 18.6497 9.23634L18.6167 9.25775L18.5896 9.27917L18.3492 9.44443C18.3389 9.45142 18.3278 9.45728 18.3163 9.46199L15.048 11.6711C15.0348 11.681 15.0205 11.6895 15.0053 11.6964C14.3056 12.1417 13.5961 12.5617 12.8614 12.9507C11.5474 13.6699 10.1564 14.2375 8.715 14.6425C8.22029 14.7991 7.71115 14.9052 7.19525 14.9596C6.70411 15.0345 6.20292 15.0086 5.72201 14.8837C4.70431 14.6153 4.31662 14.0611 4.31662 14.0611C3.65754 13.2832 3.3338 11.99 3.359 10.1717C3.3842 8.35348 3.55286 6.01404 4.60157 4.14327C4.91754 3.58515 5.37697 3.01536 5.78018 3.01536C5.80594 3.01238 5.83193 3.01238 5.8577 3.01536C6.21825 3.08731 6.37528 3.76602 6.32682 5.03005C6.22208 7.85633 5.94045 10.6733 5.48359 13.4641C5.46835 13.5592 5.48884 13.6567 5.54114 13.7375C5.59342 13.8183 5.67377 13.8768 5.76659 13.9016L5.8577 13.9269C6.33928 14.0518 6.84108 14.0777 7.33288 14.0027L7.4492 13.9911C7.53438 13.9827 7.61441 13.9464 7.67682 13.8877C7.73923 13.8289 7.78051 13.751 7.79424 13.6663C8.13734 11.5408 8.3913 9.33748 8.53862 7.00971C8.54373 6.93687 8.56916 6.86694 8.61203 6.80793C8.65489 6.74892 8.71345 6.70323 8.781 6.67604C8.84856 6.64885 8.92236 6.64127 8.99399 6.6542C9.06563 6.66713 9.1322 6.70006 9.18607 6.74916C10.8361 8.23262 12.6585 9.51106 14.6138 10.5568C14.6746 10.5878 14.7424 10.602 14.8105 10.5983C14.8786 10.5945 14.9445 10.5729 15.0015 10.5354L16.4476 9.56305C16.5042 9.525 16.5499 9.47254 16.5798 9.4111C16.6098 9.34966 16.6232 9.28137 16.6185 9.21312C16.6137 9.14488 16.5911 9.07911 16.553 9.02241C16.5148 8.96571 16.4624 8.92013 16.4011 8.89024C15.3347 8.37098 14.31 7.76957 13.3364 7.09141C12.5962 6.57976 11.891 6.01906 11.2253 5.41315C10.3343 4.59581 9.5037 3.71449 8.74021 2.77617C8.0443 1.93413 7.45307 0.979306 6.3055 0.747892C4.90592 0.467861 3.54705 1.28659 2.5817 3.00178C1.27322 5.32371 1.07162 8.03261 1.03092 10.1328C0.986326 13.2734 1.86251 15.4185 3.63622 16.5094C3.89928 16.6717 4.17788 16.8072 4.46782 16.9139C4.5543 16.9471 4.62606 17.0103 4.67015 17.092C4.71423 17.1736 4.72774 17.2684 4.70819 17.3592C4.34764 18.9539 3.93281 20.5738 3.25822 22.075C3.22684 22.1473 3.21039 22.2253 3.20988 22.3042C3.20937 22.383 3.2248 22.4612 3.25524 22.5339C3.28567 22.6066 3.33049 22.6723 3.38697 22.7272C3.44345 22.782 3.51044 22.8247 3.58387 22.8529L4.65779 23.2555C4.79389 23.3067 4.9442 23.3051 5.07911 23.2508C5.21403 23.1964 5.32375 23.0933 5.38666 22.9618C5.58051 22.5515 5.73559 22.0848 6.01472 21.3185C6.42612 20.1239 6.75833 18.9032 7.00917 17.6646C7.03532 17.5463 7.09751 17.4392 7.18713 17.358C7.27676 17.2768 7.38934 17.2255 7.50928 17.2114C9.68813 16.9839 12.024 15.9999 13.9199 14.9984C15.5078 14.1295 17.0443 13.1691 18.5218 12.1222C18.5959 12.0709 18.6863 12.0487 18.7757 12.06C21.0456 12.3283 23.8157 12.6065 25.9616 11.0876C26.7847 10.5214 27.3879 9.68748 27.6694 8.72686C27.8173 8.24716 27.8278 7.73548 27.7 7.25004C27.5722 6.7646 27.3111 6.32486 26.9464 5.98097ZM25.4537 8.12011C25.3129 8.5624 25.0266 8.94363 24.6415 9.20135C24.2161 9.49166 23.7379 9.69521 23.2342 9.80032C22.8667 9.88999 22.4937 9.95499 22.1176 9.99483C21.9993 9.99483 21.8133 10.0395 21.7609 9.89367C21.7512 9.85345 21.7512 9.81134 21.7609 9.77112C21.7919 9.5883 22.1796 9.31027 22.3425 9.17026C22.5906 8.95829 22.9066 8.74244 23.1683 8.54797C23.5264 8.27451 23.9085 8.03429 24.31 7.83035C24.6164 7.67867 25.0854 7.422 25.3956 7.70592C25.4227 7.7312 25.5274 7.8265 25.448 8.11626L25.4537 8.12011Z"
                      fill="#1169F9"/>
              </g>
            </g>
          </g>
        </g>
      </g>
    </g>
    <rect x="-342.5" y="-71.5" width="615" height="871" rx="4.5" stroke="#9747FF" stroke-dasharray="10 5"/>
  </g>
  <defs>
    <clipPath id="clip0_1884_27450">
      <rect width="60" height="637" fill="currentColor" transform="translate(-15 -52)"/>
    </clipPath>
  </defs>
</svg>
