<?xml version="1.0" encoding="UTF-8" standalone="no" ?>
<!DOCTYPE svg PUBLIC "-//W3C//DTD SVG 1.1//EN" "http://www.w3.org/Graphics/SVG/1.1/DTD/svg11.dtd">
<svg xmlns="http://www.w3.org/2000/svg" xmlns:xlink="http://www.w3.org/1999/xlink" version="1.1" viewBox="21.416293808555622 200.9020704031238 260.2029838025078 53.24016664194903" xml:space="preserve" height="28" width="137" >
<desc>Created with Fabric.js 4.6.0</desc>
  <defs>
</defs>
  <g transform="matrix(0.2 0 0 0.2 50.92 229.14)" id="SyN4DidgKoA5Wzya6gkBh" clip-path="url(#CLIPPATH_10)"  >
<clipPath id="CLIPPATH_10" >
	<rect transform="matrix(1 0 0 1 0.02 0.05)" id="clip0_21_206" x="-141.995" y="-119.995" rx="0" ry="0" width="283.99" height="239.99" />
</clipPath>
    <path style="stroke: none; stroke-width: 1; stroke-dasharray: none; stroke-linecap: butt; stroke-dashoffset: 0; stroke-linejoin: miter; stroke-miterlimit: 4; fill: #1169f9; fill-rule: nonzero; opacity: 1;" vector-effect="non-scaling-stroke"  transform=" translate(-152.97, -126.95)" d="M 286.077 63.1152 C 281.769 59.3402 276.511 56.8227 270.876 55.8362 C 265.241 54.8497 259.444 55.4321 254.116 57.5202 C 238.702 63.363 226.745 73.7271 215.179 83.761 C 209.313 88.8399 203.777 93.6091 197.994 97.6763 L 197.644 97.9037 L 197.356 98.131 L 194.804 99.8856 C 194.694 99.9598 194.577 100.022 194.454 100.072 L 159.756 123.525 C 159.616 123.631 159.464 123.721 159.303 123.794 C 151.874 128.522 144.342 132.981 136.542 137.11 C 122.591 144.746 107.823 150.772 92.5207 155.072 C 87.2685 156.734 81.8631 157.861 76.386 158.438 C 71.1717 159.233 65.8507 158.959 60.7451 157.632 C 49.9405 154.783 45.8245 148.899 45.8245 148.899 C 38.8273 140.641 35.3902 126.911 35.6578 107.607 C 35.9253 88.3032 37.7159 63.4662 48.8497 43.6049 C 52.2043 37.6796 57.0819 31.6302 61.3626 31.6302 C 61.6361 31.5986 61.9121 31.5986 62.1856 31.6302 C 66.0135 32.3941 67.6806 39.5997 67.1661 53.0196 C 66.0542 83.0252 63.0642 112.931 58.2138 142.561 C 58.052 143.571 58.2696 144.606 58.8248 145.464 C 59.3799 146.322 60.2329 146.943 61.2184 147.206 L 62.1856 147.474 C 67.2984 148.801 72.6259 149.075 77.8471 148.279 L 79.0821 148.156 C 79.9864 148.067 80.836 147.681 81.4986 147.058 C 82.1612 146.434 82.5995 145.607 82.7452 144.708 C 86.3878 122.142 89.084 98.75 90.6481 74.0369 C 90.7023 73.2636 90.9723 72.5212 91.4274 71.8947 C 91.8825 71.2682 92.5042 70.7831 93.2214 70.4945 C 93.9386 70.2058 94.7221 70.1253 95.4826 70.2626 C 96.2432 70.3998 96.9499 70.7494 97.5218 71.2707 C 115.04 87.0201 134.388 100.593 155.146 111.695 C 155.792 112.023 156.512 112.175 157.235 112.136 C 157.957 112.096 158.657 111.866 159.262 111.468 L 174.615 101.145 C 175.216 100.741 175.701 100.184 176.019 99.5317 C 176.337 98.8795 176.479 98.1544 176.429 97.4299 C 176.378 96.7053 176.139 96.007 175.734 95.4051 C 175.328 94.8032 174.772 94.3192 174.121 94.0018 C 162.8 88.489 151.921 82.1041 141.584 74.9044 C 133.726 69.4722 126.239 63.5196 119.172 57.0867 C 109.712 48.4094 100.894 39.0526 92.7883 29.0908 C 85.4 20.1511 79.1232 10.0142 66.9398 7.5573 C 52.0809 4.5843 37.6543 13.2764 27.4054 31.4861 C 13.5138 56.1372 11.3734 84.8968 10.9413 107.194 C 10.4679 140.537 19.77 163.31 38.6009 174.892 C 41.3938 176.615 44.3516 178.054 47.4298 179.187 C 48.3479 179.539 49.1097 180.21 49.5778 181.077 C 50.0458 181.944 50.1892 182.95 49.9817 183.914 C 46.1538 200.844 41.7497 218.042 34.5878 233.98 C 34.2547 234.748 34.08 235.576 34.0746 236.413 C 34.0692 237.25 34.233 238.08 34.5562 238.852 C 34.8793 239.623 35.3551 240.321 35.9547 240.904 C 36.5544 241.486 37.2656 241.94 38.0452 242.239 L 49.4466 246.513 C 50.8915 247.057 52.4873 247.04 53.9196 246.463 C 55.352 245.886 56.5169 244.791 57.1848 243.395 C 59.2428 239.039 60.8892 234.084 63.8527 225.949 C 68.2204 213.266 71.7473 200.306 74.4104 187.156 C 74.688 185.9 75.3483 184.763 76.2998 183.901 C 77.2513 183.039 78.4466 182.495 79.7199 182.345 C 102.852 179.93 127.651 169.483 147.779 158.85 C 164.637 149.625 180.95 139.429 196.636 128.315 C 197.423 127.77 198.383 127.534 199.332 127.654 C 223.431 130.503 252.84 133.456 275.622 117.331 C 284.361 111.319 290.765 102.466 293.753 92.2674 C 295.323 87.1745 295.435 81.7422 294.078 76.5884 C 292.721 71.4346 289.949 66.7662 286.077 63.1152 L 286.077 63.1152 Z M 270.23 85.8256 C 268.735 90.5214 265.695 94.5688 261.607 97.3049 C 257.091 100.387 252.014 102.548 246.666 103.664 C 242.765 104.616 238.805 105.306 234.812 105.729 C 233.556 105.729 231.581 106.203 231.025 104.655 C 230.922 104.228 230.922 103.781 231.025 103.354 C 231.354 101.413 235.47 98.4612 237.199 96.9747 C 239.833 94.7243 243.188 92.4327 245.966 90.3681 C 249.768 87.4649 253.825 84.9146 258.088 82.7494 C 261.34 81.139 266.32 78.414 269.613 81.4283 C 269.901 81.6967 271.012 82.7086 270.169 85.7848 L 270.23 85.8256 Z" stroke-linecap="round" />
</g>
  <g transform="matrix(0.2 0 0 0.2 104.68 225.75)" id="-yPM0ipPl0xru-Ts6BjUE"  >
<path style="stroke: none; stroke-width: 1; stroke-dasharray: none; stroke-linecap: butt; stroke-dashoffset: 0; stroke-linejoin: miter; stroke-miterlimit: 4; fill: #2e4175; fill-rule: nonzero; opacity: 1;" vector-effect="non-scaling-stroke"  transform=" translate(-416.19, -110.31)" d="M 370.235 187.956 L 370.235 32.6643 L 462.137 32.6643 L 461.077 55.4545 L 398.749 55.4545 L 398.749 99.5509 L 458.003 99.5509 L 458.003 122.129 L 398.749 122.129 L 398.749 187.956 L 370.235 187.956 Z" stroke-linecap="round" />
</g>
  <g transform="matrix(0.2 0 0 0.2 124.19 225.3)" id="L-tpph7ylYXjJdwnU8HY0"  >
<path style="stroke: none; stroke-width: 1; stroke-dasharray: none; stroke-linecap: butt; stroke-dashoffset: 0; stroke-linejoin: miter; stroke-miterlimit: 4; fill: #2e4175; fill-rule: nonzero; opacity: 1;" vector-effect="non-scaling-stroke"  transform=" translate(-511.72, -108.14)" d="M 522.164 189.546 C 514.178 189.546 507.535 188.627 502.235 186.79 C 497.006 184.882 492.872 181.878 489.833 177.779 C 486.795 173.681 484.675 168.805 483.473 163.151 C 482.272 157.498 481.671 150.467 481.671 142.057 L 481.671 28.5303 L 509.443 26.7283 L 509.443 141.527 C 509.443 151.986 510.68 159.088 513.153 162.833 C 515.627 166.508 520.432 168.345 527.57 168.345 C 531.103 168.345 535.59 167.957 541.032 167.179 L 541.774 187.002 C 541.703 187.002 540.82 187.178 539.124 187.532 C 537.498 187.885 535.908 188.168 534.354 188.38 C 532.87 188.662 530.962 188.91 528.63 189.122 C 526.298 189.404 524.142 189.546 522.164 189.546 Z" stroke-linecap="round" />
</g>
  <g transform="matrix(0.2 0 0 0.2 141.41 229.64)" id="HPVOEJXxMTsBYKxDqX641"  >
<path style="stroke: none; stroke-width: 1; stroke-dasharray: none; stroke-linecap: butt; stroke-dashoffset: 0; stroke-linejoin: miter; stroke-miterlimit: 4; fill: #2e4175; fill-rule: nonzero; opacity: 1;" vector-effect="non-scaling-stroke"  transform=" translate(-596.08, -129.39)" d="M 583.038 190.182 C 572.226 190.182 563.463 187.214 556.749 181.278 C 550.107 175.271 546.785 166.649 546.785 155.413 C 546.785 143.329 550.743 134.39 558.658 128.595 C 566.572 122.73 578.515 119.02 594.486 117.465 C 596.676 117.182 599.044 116.9 601.588 116.617 C 604.132 116.334 606.994 116.052 610.174 115.769 C 613.354 115.486 615.863 115.239 617.7 115.027 L 617.7 108.879 C 617.7 101.812 616.075 96.6888 612.824 93.5088 C 609.573 90.2581 604.627 88.6328 597.984 88.6328 C 588.514 88.6328 576.819 91.2828 562.898 96.5828 C 562.827 96.3708 561.661 93.1555 559.4 86.9368 C 557.138 80.718 555.972 77.538 555.901 77.3967 C 569.611 71.5313 584.451 68.5986 600.422 68.5986 C 616.11 68.5986 627.523 72.026 634.66 78.8807 C 641.798 85.6647 645.366 96.6888 645.366 111.953 L 645.366 187.956 L 624.802 187.956 C 624.731 187.673 623.954 185.306 622.47 180.854 C 620.986 176.401 620.244 174.034 620.244 173.751 C 614.449 179.405 608.761 183.574 603.178 186.26 C 597.666 188.874 590.952 190.182 583.038 190.182 Z M 590.564 170.465 C 596.994 170.465 602.577 168.946 607.312 165.907 C 612.117 162.798 615.545 159.053 617.594 154.671 L 617.594 132.199 C 617.382 132.199 615.509 132.34 611.976 132.623 C 608.513 132.906 606.641 133.047 606.358 133.047 C 595.122 134.036 586.889 136.156 581.66 139.407 C 576.43 142.658 573.816 147.887 573.816 155.095 C 573.816 160.042 575.264 163.858 578.162 166.543 C 581.059 169.158 585.193 170.465 590.564 170.465 Z" stroke-linecap="round" />
</g>
  <g transform="matrix(0.2 0 0 0.2 166.82 234.74)" id="aasbMsACQR7M_3BYTfiQi"  >
<path style="stroke: none; stroke-width: 1; stroke-dasharray: none; stroke-linecap: butt; stroke-dashoffset: 0; stroke-linejoin: miter; stroke-miterlimit: 4; fill: #2e4175; fill-rule: nonzero; opacity: 1;" vector-effect="non-scaling-stroke"  transform=" translate(-720.5, -154.35)" d="M 693.414 240.108 L 691.824 217.636 L 705.922 217.636 C 722.247 217.636 733.659 215.445 740.161 211.064 C 746.662 206.753 749.913 198.803 749.913 187.214 C 749.913 182.479 749.701 177.355 749.277 171.843 C 747.439 174.387 745.673 176.507 743.977 178.204 C 742.351 179.829 740.267 181.454 737.723 183.08 C 735.249 184.705 732.246 185.942 728.713 186.79 C 725.25 187.567 721.293 187.956 716.84 187.956 C 701.435 187.956 688.75 182.408 678.786 171.313 C 668.893 160.219 663.946 145.909 663.946 128.383 C 663.946 119.055 665.324 110.575 668.08 102.943 C 670.836 95.2402 674.581 88.9154 679.316 83.9687 C 684.051 79.022 689.492 75.2413 695.64 72.6266 C 701.859 69.9413 708.466 68.5986 715.462 68.5986 C 731.08 68.5986 742.705 74.2873 750.337 85.6647 L 752.245 71.4606 L 777.049 71.4606 L 777.049 179.688 C 777.049 185.482 776.766 190.676 776.201 195.27 C 775.636 199.934 774.646 204.386 773.233 208.626 C 771.82 212.936 769.947 216.682 767.615 219.862 C 765.354 223.042 762.491 225.939 759.029 228.554 C 755.566 231.169 751.467 233.289 746.733 234.914 C 742.069 236.61 736.627 237.882 730.409 238.73 C 724.19 239.649 717.194 240.108 709.42 240.108 L 693.414 240.108 Z M 721.292 168.557 C 740.443 168.557 750.125 155.731 750.337 130.079 L 750.337 126.051 C 750.195 114.532 747.793 105.628 743.129 99.3389 C 738.465 93.0495 731.645 89.8694 722.671 89.7988 C 712.494 89.7988 704.792 93.2968 699.562 100.293 C 694.333 107.218 691.718 116.582 691.718 128.383 C 691.718 139.761 694.333 149.301 699.562 157.003 C 704.862 164.706 712.106 168.557 721.292 168.557 Z" stroke-linecap="round" />
</g>
  <g transform="matrix(0.2 0 0 0.2 190.23 229.65)" id="oLqgu2e5EpPyh7BQzwvcs"  >
<path style="stroke: none; stroke-width: 1; stroke-dasharray: none; stroke-linecap: butt; stroke-dashoffset: 0; stroke-linejoin: miter; stroke-miterlimit: 4; fill: #2e4175; fill-rule: nonzero; opacity: 1;" vector-effect="non-scaling-stroke"  transform=" translate(-835.11, -129.44)" d="M 801.353 187.956 L 801.353 71.4606 L 824.673 71.4606 L 828.277 89.2688 C 835.909 77.0433 846.969 70.9306 861.455 70.9306 C 864.494 70.9306 866.967 71.072 868.875 71.3546 L 868.451 94.5688 C 865.625 94.1448 862.692 93.9328 859.653 93.9328 C 849.407 93.9328 841.739 96.6535 836.651 102.095 C 831.634 107.536 829.125 115.098 829.125 124.779 L 829.125 187.956 L 801.353 187.956 Z" stroke-linecap="round" />
</g>
  <g transform="matrix(0.2 0 0 0.2 202.9 225.55)" id="cPQySVNlSCH0y2zt8ya3g"  >
<path style="stroke: none; stroke-width: 1; stroke-dasharray: none; stroke-linecap: butt; stroke-dashoffset: 0; stroke-linejoin: miter; stroke-miterlimit: 4; fill: #2e4175; fill-rule: nonzero; opacity: 1;" vector-effect="non-scaling-stroke"  transform=" translate(-897.15, -109.36)" d="M 883.215 187.956 L 883.215 71.4606 L 910.987 71.4606 L 910.987 187.956 L 883.215 187.956 Z M 883.215 54.5005 L 883.215 30.7563 L 911.093 30.7563 L 911.093 54.5005 L 883.215 54.5005 Z" stroke-linecap="round" />
</g>
  <g transform="matrix(0.2 0 0 0.2 221.28 234.74)" id="TyjRXyaeHxlvVs8zXDpHO"  >
<path style="stroke: none; stroke-width: 1; stroke-dasharray: none; stroke-linecap: butt; stroke-dashoffset: 0; stroke-linejoin: miter; stroke-miterlimit: 4; fill: #2e4175; fill-rule: nonzero; opacity: 1;" vector-effect="non-scaling-stroke"  transform=" translate(-987.18, -154.35)" d="M 960.096 240.108 L 958.506 217.636 L 972.604 217.636 C 988.928 217.636 1000.34 215.445 1006.84 211.064 C 1013.34 206.753 1016.59 198.803 1016.59 187.214 C 1016.59 182.479 1016.38 177.355 1015.96 171.843 C 1014.12 174.387 1012.35 176.507 1010.66 178.204 C 1009.03 179.829 1006.95 181.454 1004.4 183.08 C 1001.93 184.705 998.927 185.942 995.394 186.79 C 991.931 187.567 987.974 187.956 983.522 187.956 C 968.116 187.956 955.431 182.408 945.467 171.313 C 935.574 160.219 930.627 145.909 930.627 128.383 C 930.627 119.055 932.005 110.575 934.761 102.943 C 937.517 95.2402 941.263 88.9154 945.997 83.9687 C 950.732 79.022 956.173 75.2413 962.322 72.6266 C 968.54 69.9413 975.148 68.5986 982.144 68.5986 C 997.761 68.5986 1009.39 74.2873 1017.02 85.6647 L 1018.93 71.4606 L 1043.73 71.4606 L 1043.73 179.688 C 1043.73 185.482 1043.45 190.676 1042.88 195.27 C 1042.32 199.934 1041.33 204.386 1039.91 208.626 C 1038.5 212.936 1036.63 216.682 1034.3 219.862 C 1032.03 223.042 1029.17 225.939 1025.71 228.554 C 1022.25 231.169 1018.15 233.289 1013.41 234.914 C 1008.75 236.61 1003.31 237.882 997.09 238.73 C 990.871 239.649 983.875 240.108 976.102 240.108 L 960.096 240.108 Z M 987.974 168.557 C 1007.12 168.557 1016.81 155.731 1017.02 130.079 L 1017.02 126.051 C 1016.88 114.532 1014.47 105.628 1009.81 99.3389 C 1005.15 93.0495 998.327 89.8694 989.352 89.7988 C 979.176 89.7988 971.473 93.2968 966.244 100.293 C 961.014 107.218 958.4 116.582 958.4 128.383 C 958.4 139.761 961.014 149.301 966.244 157.003 C 971.544 164.706 978.787 168.557 987.974 168.557 Z" stroke-linecap="round" />
</g>
  <g transform="matrix(0.2 0 0 0.2 248.54 225.14)" id="YJo3ABgm_psGJjjm6GdGJ"  >
<path style="stroke: none; stroke-width: 1; stroke-dasharray: none; stroke-linecap: butt; stroke-dashoffset: 0; stroke-linejoin: miter; stroke-miterlimit: 4; fill: #2e4175; fill-rule: nonzero; opacity: 1;" vector-effect="non-scaling-stroke"  transform=" translate(-1120.66, -107.34)" d="M 1067.93 187.956 L 1067.93 28.5303 L 1095.7 26.7283 L 1095.7 60.3305 C 1095.7 61.9559 1095.59 66.4786 1095.38 73.8986 C 1095.17 81.248 1095.06 84.9934 1095.06 85.1347 C 1104.32 74.1107 1116.76 68.5986 1132.38 68.5986 C 1145.38 68.5986 1155.45 72.344 1162.59 79.8347 C 1169.79 87.2548 1173.4 98.7029 1173.4 114.179 L 1173.4 187.956 L 1145.63 187.956 L 1145.63 117.253 C 1145.63 107.713 1144.11 100.717 1141.07 96.2648 C 1138.03 91.8128 1132.87 89.5868 1125.59 89.5868 C 1119.37 89.5868 1113.86 91.1768 1109.06 94.3568 C 1104.25 97.4662 1100.65 101.494 1098.24 106.441 C 1096.55 112.942 1095.7 121.422 1095.7 131.881 L 1095.7 187.956 L 1067.93 187.956 Z" stroke-linecap="round" />
</g>
  <g transform="matrix(0.2 0 0 0.2 269.64 226.63)" id="oZSy1Odsc2b0JbEzsRivW"  >
<path style="stroke: none; stroke-width: 1; stroke-dasharray: none; stroke-linecap: butt; stroke-dashoffset: 0; stroke-linejoin: miter; stroke-miterlimit: 4; fill: #2e4175; fill-rule: nonzero; opacity: 1;" vector-effect="non-scaling-stroke"  transform=" translate(-1223.99, -114.66)" d="M 1244.13 189.546 C 1236.22 189.546 1229.61 188.627 1224.31 186.79 C 1219.08 184.882 1214.98 181.914 1212.01 177.885 C 1209.04 173.857 1206.92 169.123 1205.65 163.681 C 1204.45 158.169 1203.85 151.385 1203.85 143.329 L 1203.85 88.3148 L 1184.77 88.3148 L 1185.83 73.2626 L 1205.76 71.4606 L 1214.66 39.8724 L 1231.62 39.7664 L 1231.62 71.4606 L 1260.56 71.4606 L 1260.56 88.3148 L 1231.62 88.3148 L 1231.62 143.859 C 1231.62 152.693 1232.9 158.982 1235.44 162.727 C 1237.98 166.473 1242.68 168.345 1249.54 168.345 C 1253.57 168.345 1257.88 167.992 1262.47 167.285 L 1263.21 187.214 C 1263.07 187.214 1262.19 187.39 1260.56 187.744 C 1259.01 188.026 1257.49 188.274 1256 188.486 C 1254.59 188.768 1252.75 189.016 1250.49 189.228 C 1248.23 189.44 1246.11 189.546 1244.13 189.546 Z" stroke-linecap="round" />
</g></svg>
