<?xml version="1.0" encoding="UTF-8"?>
<svg version="1.1" xmlns="http://www.w3.org/2000/svg" width="400" height="182">
<path d="M0 0 C16.93534731 0 29.93942457 3.9717503 42.375 15.8125 C47.79244797 21.54299472 52.26487806 27.5409034 54 35.3125 C54.56239483 37.34078987 54.56239483 37.34078987 56 39 C59.35536583 40.56944531 62.731795 41.63328626 66.2734375 42.71484375 C71.77414781 44.61183923 76.29319955 47.63344103 81 51 C81.76054688 51.52335937 82.52109375 52.04671875 83.3046875 52.5859375 C83.86414063 53.05257812 84.42359375 53.51921875 85 54 C85 54.66 85 55.32 85 56 C86.485 56.495 86.485 56.495 88 57 C97.95675597 68.0657409 102.17605209 81.81325213 102.1875 96.375 C102.19974609 97.18710938 102.21199219 97.99921875 102.22460938 98.8359375 C102.26234663 114.53463754 95.38631242 127.4078043 84.61328125 138.4453125 C79.23085121 143.56580324 73.89735477 147.23889252 67 150 C66.20980469 150.31839844 65.41960937 150.63679687 64.60546875 150.96484375 C57.23154733 153.54988567 52.45962107 153 44 153 C44 144.42 44 135.84 44 127 C46.18625 126.5875 48.3725 126.175 50.625 125.75 C56.05746912 124.60314541 59.71231188 123.45397098 64 120 C64.66 120 65.32 120 66 120 C66.2784375 119.42121094 66.556875 118.84242187 66.84375 118.24609375 C68.30776388 115.40214787 70.03551686 112.77480189 71.78125 110.09765625 C75.58431248 103.55200064 75.71548923 97.43755473 75 90 C74.08292026 86.69851293 72.75442169 83.93362316 71 81 C70.45666016 80.04480469 70.45666016 80.04480469 69.90234375 79.0703125 C66.85498048 74.25651154 62.96473418 71.67331841 58 69 C57.79246094 69.73863281 57.58492187 70.47726563 57.37109375 71.23828125 C55.00262963 79.03736601 51.70527976 85.36238957 47 92 C46.47535156 92.763125 45.95070312 93.52625 45.41015625 94.3125 C44.94480469 94.869375 44.47945312 95.42625 44 96 C43.34 96 42.68 96 42 96 C41.76152344 96.58910156 41.52304687 97.17820312 41.27734375 97.78515625 C36.76827913 105.60362609 24.72101123 110.35069946 16.3984375 112.75 C10.67281263 114.02630028 6.11537878 114 0 114 C0 105.42 0 96.84 0 88 C1.959375 87.62875 3.91875 87.2575 5.9375 86.875 C15.06918015 84.74096605 21.48193391 80.86727249 26.78125 73.05078125 C31.18511783 65.64042673 32.04401675 58.59540001 31 50 C28.74188913 41.6220814 24.16100004 35.81182887 17 31 C11.27446823 27.99300316 6.48219904 26.92602843 0 26 C0 17.42 0 8.84 0 0 Z " fill="#041435" transform="translate(8,6)"/>
<path d="M0 0 C4.62 0 9.24 0 14 0 C14.33 10.56 14.66 21.12 15 32 C26.28546317 20.23334573 26.28546317 20.23334573 36.58203125 7.625 C37.04996094 7.08875 37.51789063 6.5525 38 6 C38.66 6 39.32 6 40 6 C40.433125 5.071875 40.433125 5.071875 40.875 4.125 C42 2 42 2 44 0 C46.50920846 -0.17495606 48.90624941 -0.23169569 51.4140625 -0.1953125 C52.14370209 -0.1924826 52.87334167 -0.18965271 53.62509155 -0.18673706 C55.95856028 -0.17553002 58.29164703 -0.1504251 60.625 -0.125 C62.20572363 -0.11497085 63.78645327 -0.10584489 65.3671875 -0.09765625 C69.24493914 -0.07558905 73.12240478 -0.04105615 77 0 C77.39106934 0.72227783 77.78213867 1.44455566 78.18505859 2.1887207 C81.44419033 8.18951059 84.79373656 14.11390056 88.2890625 19.98046875 C90.33336122 23.58832928 92.17781984 27.27623544 94 31 C96.06452187 27.52202944 98.12624017 24.04240467 100.1875 20.5625 C100.76564453 19.58861328 101.34378906 18.61472656 101.93945312 17.61132812 C105.38613599 11.78896555 108.74328414 5.93078011 112 0 C117.28 0 122.56 0 128 0 C126.88355003 6.69869983 126.88355003 6.69869983 124.3125 10.1875 C121.50954426 14.19078032 119.14822359 18.24293955 116.91796875 22.58984375 C115.38274213 25.31948293 113.78692466 27.76653552 111.98828125 30.31640625 C101.67362386 45.58891221 101.37830785 59.17417316 102 77 C97.05 77 92.1 77 87 77 C87.07863281 75.08960937 87.15726562 73.17921875 87.23828125 71.2109375 C87.55720396 53.79119817 85.15674422 42.08525589 74.78076172 27.57568359 C71.7965581 23.2593485 69.26456978 18.69172555 66.6875 14.125 C65.77631158 12.54336416 64.86371542 10.96253783 63.94921875 9.3828125 C63.30597656 8.26648437 62.66273438 7.15015625 62 6 C58.23610892 7.68508931 56.54842584 9.77199394 54 13 C53.34 13 52.68 13 52 13 C51.773125 13.721875 51.54625 14.44375 51.3125 15.1875 C49.73594914 18.56582327 47.69013425 20.43796738 45 23 C44.278125 23.928125 43.55625 24.85625 42.8125 25.8125 C42.214375 26.534375 41.61625 27.25625 41 28 C40.34 28 39.68 28 39 28 C38.566875 28.8971875 38.566875 28.8971875 38.125 29.8125 C37 32 37 32 35 35 C35.66418945 35.95084473 35.66418945 35.95084473 36.34179688 36.92089844 C51.79452055 59.05479452 51.79452055 59.05479452 57.51953125 67.79296875 C58.97421648 70.03014234 58.97421648 70.03014234 60.69921875 72.11328125 C62 74 62 74 62 77 C47.2970374 78.50371208 47.2970374 78.50371208 42.51171875 75.37109375 C40.40150994 72.70057254 38.72890303 69.9339998 37 67 C35.4545394 64.75077964 33.87007291 62.53244977 32.28051758 60.31420898 C30.22422983 57.43977283 28.21208442 54.53554375 26.20166016 51.62890625 C24.95870242 49.85920272 24.95870242 49.85920272 23 48 C19.37220175 50.14031833 17.1253265 52.34695467 15 56 C13.65431902 62.88266926 13.89879794 70.01705763 14 77 C9.38 77 4.76 77 0 77 C0 51.59 0 26.18 0 0 Z " fill="#041433" transform="translate(140,46)"/>
<path d="M0 0 C-0.41778991 5.7097955 -2.57546571 8.60957142 -6 13 C-9.02634761 12.55494888 -11.11404729 11.9366404 -13.8125 10.4375 C-18.01358069 8.54289498 -20.4058292 8.56245992 -25 9 C-29.13793544 10.78683576 -31.56814869 13.22643762 -34 17 C-34.8750382 19.65972064 -35.43998711 22.24660328 -36 25 C-35.48953125 24.71125 -34.9790625 24.4225 -34.453125 24.125 C-27.28795477 20.46618967 -20.14758085 19.45043455 -12.33984375 21.80078125 C-8.63558493 23.36078619 -5.62378129 24.8857923 -3 28 C-3 28.66 -3 29.32 -3 30 C-2.34 30 -1.68 30 -1 30 C3.5879576 38.97643878 3.99147129 48.40099321 1 58 C-1.34261202 64.4872333 -6.00448532 67.85446589 -12 71 C-18.50056975 73.31069503 -28.9412736 73.32966401 -35.3125 70.5625 C-36.199375 70.046875 -37.08625 69.53125 -38 69 C-38.66 68.67 -39.32 68.34 -40 68 C-40 67.34 -40 66.68 -40 66 C-40.99 65.67 -41.98 65.34 -43 65 C-50.85980632 56.4692346 -51.25364067 44.25358189 -51.3125 33.3125 C-51.31805908 32.4460083 -51.32361816 31.5795166 -51.3293457 30.68676758 C-51.19437785 18.52697135 -48.70074559 7.89848981 -40 -1 C-27.40480778 -10.64849094 -12.69724023 -7.86448449 0 0 Z M-31 37 C-33.50295041 39.97648157 -34.84530168 42.09114739 -35.5 45.9375 C-34.74426297 50.56638928 -32.97020958 54.38161356 -29.25 57.4375 C-23.958501 58.76037475 -20.37069676 58.73611493 -15.625 56.1875 C-12.09853291 53.24877743 -11.07885504 51.80169286 -10.625 47.1875 C-10.73699657 42.84363303 -12.15119071 40.32361084 -15 37 C-19.58170532 33.52422355 -26.23588943 34.16728561 -31 37 Z " fill="#041434" transform="translate(390,52)"/>
<path d="M0 0 C3.46650287 2.80711374 6.90601781 5.85932905 9.15625 9.74609375 C9.00992495 12.33116963 8.51235746 13.38232807 6.703125 15.23046875 C6.11015625 15.648125 5.5171875 16.06578125 4.90625 16.49609375 C4.32359375 16.9240625 3.7409375 17.35203125 3.140625 17.79296875 C0.57708404 19.02427582 -1.02922975 19.13748797 -3.84375 18.74609375 C-5.765625 17.3203125 -5.765625 17.3203125 -7.59375 15.43359375 C-12.38307186 11.01199135 -16.81067489 8.94680666 -23.35546875 8.62109375 C-30.3454907 8.96363694 -35.33009376 11.42019013 -40.37890625 16.19921875 C-45.43233627 21.79777096 -46.34188343 27.55772659 -46.2421875 34.85546875 C-45.67784383 38.94972676 -44.06519259 42.0896589 -42.03515625 45.65234375 C-40.84375 47.74609375 -40.84375 47.74609375 -39.84375 50.74609375 C-37.62941059 51.83352069 -37.62941059 51.83352069 -34.84375 52.74609375 C-33.750625 53.28234375 -32.6575 53.81859375 -31.53125 54.37109375 C-25.40581533 56.65515414 -21.00765755 56.44891114 -15.09375 53.99609375 C-11.71151897 52.36610289 -9.36157161 50.56605396 -6.84375 47.74609375 C-6.18375 47.74609375 -5.52375 47.74609375 -4.84375 47.74609375 C-4.51375 46.75609375 -4.18375 45.76609375 -3.84375 44.74609375 C1.8660455 45.16388366 4.76582142 47.32155946 9.15625 50.74609375 C7.67085715 56.02749054 4.06952696 60.02663476 0.15625 63.74609375 C-0.50375 63.74609375 -1.16375 63.74609375 -1.84375 63.74609375 C-1.84375 64.40609375 -1.84375 65.06609375 -1.84375 65.74609375 C-3.42449564 66.56361678 -5.00846223 67.37491372 -6.59375 68.18359375 C-7.47546875 68.63605469 -8.3571875 69.08851562 -9.265625 69.5546875 C-17.28475007 73.2604953 -29.3770225 73.17765445 -37.84375 70.62109375 C-48.42965302 66.23930797 -55.66149904 59.3604705 -60.08203125 48.859375 C-61.99264119 43.55865717 -62.06099822 38.64686612 -62.09375 33.05859375 C-62.114375 32.19814453 -62.135 31.33769531 -62.15625 30.45117188 C-62.22196225 19.55115161 -58.48717728 10.66993978 -50.95703125 2.765625 C-36.69115459 -10.37916115 -15.73870328 -11.11130284 0 0 Z " fill="#041433" transform="translate(325.84375,52.25390625)"/>
<path d="M0 0 C3.81159727 3.17633106 5.63118503 6.08300886 6.2578125 11.0390625 C6.5550593 16.80565043 5.5588921 21.37545095 2 26 C-1.8557741 29.66032012 -5.69552165 31.31489203 -11 31.625 C-17.29060439 31.295446 -21.7598392 28.45695055 -25.9375 23.875 C-28.7506559 18.91060724 -28.57960596 13.54198576 -28 8 C-26.25 4.5625 -26.25 4.5625 -24 2 C-23.34 1.236875 -22.68 0.47375 -22 -0.3125 C-16.14261756 -5.25466643 -5.9683476 -3.9788984 0 0 Z " fill="#1B9ED7" transform="translate(36,133)"/>
</svg>
