<svg width="166" height="38" viewBox="0 0 166 38" fill="none" xmlns="http://www.w3.org/2000/svg">
<g clip-path="url(#clip0)">
<path d="M145.728 15.9813V20.0808H124.532V17.2697C124.53 16.8341 124.562 16.3989 124.628 15.9683L145.728 15.9813Z" fill="#00CC6A"/>
<path d="M129.708 10.0034C133.005 10.0034 134.913 12.0119 134.913 15.517V27.3296H139.92V14.7492C139.92 9.10973 136.666 5.63928 131.43 5.63928H131.226C128.999 5.65729 126.822 6.29412 124.936 7.47862L124.502 7.75192V5.9603H119.526V27.3296H124.532V15.517C124.532 12.1681 126.567 10.0034 129.708 10.0034Z" fill="white"/>
<path d="M125.118 15.9814H95.2422V20.0765H125.118V15.9814Z" fill="#00CC6A"/>
<path d="M29.6722 14.3546L29.746 14.0249C29.9675 12.7749 30.6272 11.6447 31.6066 10.837C32.586 10.0293 33.8211 9.59693 35.0905 9.61744C38.1965 9.55237 40.205 11.2052 40.5521 14.0509L40.5868 14.3546L40.7213 16.5236L29.3686 16.3154L29.6722 14.3546ZM45.8055 16.1896C45.8055 16.1202 45.8055 16.0508 45.8055 15.9857C45.801 15.3752 45.7488 14.7661 45.6493 14.1637C44.8424 8.95806 40.8774 5.6004 35.238 5.6004C29.5985 5.6004 25.6856 8.94938 24.7268 14.1637C24.6154 14.7654 24.5472 15.3743 24.523 15.9857C24.523 16.2113 24.523 16.4195 24.523 16.6668C24.5223 17.1959 24.5527 17.7246 24.6141 18.2502C24.6801 18.8662 24.7977 19.4757 24.9654 20.0722C25.381 21.6521 26.1747 23.1072 27.2781 24.3119C28.3815 25.5166 29.7615 26.4347 31.299 26.987C35.0991 28.4489 41.0379 27.7939 43.8794 25.6249V21.1089C41.4524 23.0312 38.3691 23.9266 35.29 23.6033C33.0342 23.4255 30.8001 22.1804 29.9325 20.0722C29.7111 19.5202 29.5949 18.9316 29.5898 18.3369V18.0593H45.684C45.7676 17.4396 45.8082 16.8149 45.8055 16.1896Z" fill="white"/>
<path d="M66.2898 18.3369V18.6536C66.2837 19.1285 66.2344 19.6019 66.1423 20.0678H24.9308C24.763 19.4714 24.6455 18.8619 24.5794 18.2458C24.518 17.7203 24.4876 17.1916 24.4883 16.6625C24.4883 16.4325 24.4883 16.207 24.4883 15.9814H65.8777C66.1272 16.7428 66.2659 17.5361 66.2898 18.3369Z" fill="#00CC6A"/>
<path d="M113.544 27.3296V5.92134H108.499V8.41138L108.039 7.97757C106.349 6.43857 104.135 5.60234 101.849 5.63936C101.183 5.64129 100.518 5.70226 99.862 5.82156C94.7692 6.73255 91.2163 11.1704 91.2163 16.6146C91.2163 22.0589 94.7692 26.4967 99.862 27.4077C104.504 28.232 107.293 25.9805 108.039 25.2734L108.499 24.8396V27.3296H113.544ZM102.326 23.3777C98.9207 23.3777 96.153 20.341 96.153 16.6233C96.153 12.9056 98.9077 9.8733 102.326 9.8733C105.662 9.8733 108.43 12.8362 108.499 16.4802V16.7751C108.451 20.4191 105.662 23.3863 102.326 23.3863V23.3777Z" fill="white"/>
<path d="M71.335 26.9697V5.92142H66.2898V8.41146L65.83 7.97765C65.0838 7.26621 62.2945 5.01042 57.6527 5.83899C52.5642 6.74565 49.02 11.1835 49.02 16.6277C49.02 22.072 52.5772 26.5098 57.6658 27.4208C62.3031 28.245 65.0969 25.9936 65.843 25.2865L66.3028 24.8527V26.9783C66.3028 27.0607 66.472 29.5118 64.8583 31.3164C63.8432 32.4399 62.3639 33.0516 60.4595 33.095C58.6143 33.1919 56.7786 32.7728 55.1584 31.8847V36.4873C56.7401 37.1137 58.4287 37.426 60.1298 37.407C70.2418 37.407 71.335 30.1061 71.335 26.9697ZM66.2898 16.7752C66.2204 20.4192 63.4527 23.3864 60.1211 23.3864C56.7114 23.3864 53.9437 20.3498 53.9437 16.6321C53.9437 12.9144 56.7114 9.87338 60.1211 9.87338C63.4527 9.87338 66.2204 12.8363 66.2898 16.4802V16.7752Z" fill="white"/>
<path d="M165.995 27.3773L155.931 16.363L165.475 5.92125H159.284L150.734 15.2784V0.529053H145.728V27.3382H150.734V17.4475L159.805 27.3773H165.995Z" fill="white"/>
<path d="M22.9224 27.3298L14.9013 16.6278L15.3351 16.541C16.6532 16.3028 17.8987 15.764 18.9747 14.9663C19.9494 14.2047 20.7225 13.2156 21.2262 12.0859C21.7027 11.0125 21.9467 9.8505 21.942 8.67615C21.9437 7.57117 21.7277 6.47669 21.3062 5.45522C20.8848 4.43375 20.2663 3.50533 19.486 2.72298C18.7056 1.94064 17.7788 1.31971 16.7584 0.895668C15.7381 0.471627 14.6441 0.252786 13.5392 0.251648H0.381836V27.3298H5.38795V4.62875H12.6629C13.7306 4.62875 14.7545 5.05288 15.5095 5.80785C16.2644 6.56282 16.6886 7.58677 16.6886 8.65446C16.6886 9.72215 16.2644 10.7461 15.5095 11.5011C14.7545 12.256 13.7306 12.6802 12.6629 12.6802H6.33798L17.0877 27.3298H22.9224Z" fill="white"/>
<path d="M97.2072 15.9814H64.6284V20.0765H97.2072V15.9814Z" fill="#00CC6A"/>
<path d="M83.9151 27.3296H88.1013V23.2041H85.4594C84.8546 23.2029 84.2749 22.9621 83.8472 22.5345C83.4195 22.1068 83.1787 21.5271 83.1776 20.9222V10.4328H88.5524V5.60024H83.1863V0.529053H78.1411V21.5599C78.1423 23.0905 78.7511 24.5581 79.8338 25.6399C80.9165 26.7218 82.3845 27.3296 83.9151 27.3296Z" fill="white"/>
</g>
<defs>
<clipPath id="clip0">
<rect width="166" height="37.5806" fill="white"/>
</clipPath>
</defs>
</svg>
