<svg width="138" height="32" viewBox="0 0 138 32" fill="none" xmlns="http://www.w3.org/2000/svg">
<g clip-path="url(#clip0)">
<path d="M121.148 13.455V16.863H103.527V14.5261C103.525 14.1639 103.551 13.8022 103.606 13.4442L121.148 13.455Z" fill="#00CC6A"/>
<path d="M107.829 8.48552C110.57 8.48552 112.157 10.1552 112.157 13.0692V22.8892H116.319V12.4308C116.319 7.74261 113.614 4.85754 109.261 4.85754H109.092C107.24 4.87251 105.43 5.40193 103.862 6.38663L103.502 6.61383V5.12441H99.3652V22.8892H103.527V13.0692C103.527 10.2851 105.218 8.48552 107.829 8.48552Z" fill="#1B1B1B"/>
<path d="M104.014 13.4552H79.1772V16.8596H104.014V13.4552Z" fill="#00CC6A"/>
<path d="M24.6674 12.1028L24.7288 11.8287C24.9129 10.7895 25.4613 9.84996 26.2755 9.1785C27.0897 8.50704 28.1165 8.14761 29.1718 8.16466C31.7539 8.11057 33.4236 9.48458 33.7121 11.8503L33.741 12.1028L33.8528 13.9059L24.415 13.7328L24.6674 12.1028ZM38.0794 13.6283C38.0794 13.5706 38.0794 13.5129 38.0794 13.4588C38.0757 12.9513 38.0323 12.4448 37.9496 11.9441C37.2788 7.6165 33.9826 4.8252 29.2944 4.8252C24.6061 4.8252 21.3532 7.60929 20.5562 11.9441C20.4636 12.4443 20.4069 12.9505 20.3867 13.4588C20.3867 13.6463 20.3867 13.8194 20.3867 14.025C20.3862 14.4648 20.4115 14.9044 20.4625 15.3413C20.5174 15.8534 20.6151 16.3601 20.7546 16.8559C21.1 18.1694 21.7598 19.379 22.6772 20.3805C23.5945 21.382 24.7417 22.1453 26.0198 22.6044C29.179 23.8198 34.1161 23.2752 36.4782 21.472V17.7178C34.4606 19.3158 31.8974 20.0602 29.3377 19.7915C27.4624 19.6436 25.6051 18.6086 24.8838 16.8559C24.6998 16.397 24.6032 15.9078 24.5989 15.4134V15.1826H37.9784C38.048 14.6674 38.0817 14.1481 38.0794 13.6283Z" fill="#1B1B1B"/>
<path d="M55.1085 15.4134V15.6767C55.1035 16.0715 55.0625 16.465 54.9859 16.8524H20.7258C20.5863 16.3565 20.4886 15.8499 20.4337 15.3377C20.3826 14.9008 20.3574 14.4613 20.3579 14.0214C20.3579 13.8303 20.3579 13.6427 20.3579 13.4552H54.7659C54.9734 14.0882 55.0887 14.7477 55.1085 15.4134Z" fill="#00CC6A"/>
<path d="M94.3924 22.8892V5.09196H90.1982V7.162L89.8159 6.80136C88.4105 5.52195 86.57 4.82677 84.6697 4.85755C84.1157 4.85915 83.563 4.90983 83.018 5.00901C78.7842 5.76634 75.8306 9.45562 75.8306 13.9816C75.8306 18.5075 78.7842 22.1968 83.018 22.9541C86.8768 23.6393 89.1956 21.7677 89.8159 21.1798L90.1982 20.8192V22.8892H94.3924ZM85.0664 19.6039C82.2354 19.6039 79.9346 17.0794 79.9346 13.9888C79.9346 10.8982 82.2246 8.37733 85.0664 8.37733C87.8397 8.37733 90.1405 10.8405 90.1982 13.8698V14.115C90.1585 17.1443 87.8397 19.6111 85.0664 19.6111V19.6039Z" fill="#1B1B1B"/>
<path d="M59.3024 22.59V5.09207H55.1083V7.1621L54.726 6.80147C54.1057 6.21003 51.7868 4.33474 47.9281 5.02355C43.6978 5.77727 40.7515 9.46655 40.7515 13.9925C40.7515 18.5184 43.7087 22.2077 47.9389 22.9651C51.7941 23.6503 54.1165 21.7786 54.7368 21.1907L55.1191 20.8301V22.5972C55.1191 22.6657 55.2597 24.7033 53.9182 26.2035C53.0743 27.1376 51.8445 27.6461 50.2614 27.6821C48.7274 27.7627 47.2014 27.4143 45.8544 26.676V30.5023C47.1694 31.023 48.5731 31.2827 49.9873 31.2668C58.3937 31.2668 59.3024 25.1974 59.3024 22.59ZM55.1083 14.1151C55.0506 17.1444 52.7497 19.6112 49.9801 19.6112C47.1455 19.6112 44.8447 17.0867 44.8447 13.9961C44.8447 10.9055 47.1455 8.37744 49.9801 8.37744C52.7497 8.37744 55.0506 10.8406 55.1083 13.8699V14.1151Z" fill="#1B1B1B"/>
<path d="M137.996 22.9289L129.63 13.7724L137.563 5.09193H132.417L125.309 12.8708V0.609253H121.147V22.8964H125.309V14.674L132.85 22.9289H137.996Z" fill="#1B1B1B"/>
<path d="M19.0559 22.8894L12.3878 13.9926L12.7484 13.9204C13.8442 13.7224 14.8796 13.2744 15.7741 12.6113C16.5844 11.9782 17.2271 11.156 17.6458 10.2167C18.042 9.32446 18.2448 8.35843 18.2409 7.38216C18.2423 6.46357 18.0627 5.55369 17.7124 4.70452C17.3621 3.85535 16.8478 3.08353 16.1991 2.43315C15.5504 1.78276 14.7799 1.26657 13.9317 0.914052C13.0834 0.561537 12.174 0.379609 11.2554 0.378662H0.317383V22.8894H4.47909V4.01745H10.5269C11.4145 4.01745 12.2658 4.37005 12.8934 4.99767C13.521 5.6253 13.8736 6.47654 13.8736 7.36413C13.8736 8.25173 13.521 9.10297 12.8934 9.73059C12.2658 10.3582 11.4145 10.7108 10.5269 10.7108H5.26888L14.2054 22.8894H19.0559Z" fill="#1B1B1B"/>
<path d="M80.8106 13.4552H53.7271V16.8596H80.8106V13.4552Z" fill="#00CC6A"/>
<path d="M69.761 22.8892H73.2411V19.4596H71.0448C70.542 19.4586 70.0601 19.2585 69.7045 18.9029C69.349 18.5474 69.1488 18.0654 69.1479 17.5626V8.84252H73.6161V4.82506H69.1551V0.609253H64.9609V18.0928C64.9619 19.3652 65.468 20.5852 66.3681 21.4846C67.2682 22.384 68.4885 22.8892 69.761 22.8892Z" fill="#1B1B1B"/>
</g>
<defs>
<clipPath id="clip0">
<rect width="138" height="31.2417" fill="white" transform="translate(0 0.169434)"/>
</clipPath>
</defs>
</svg>
