<svg width="32" height="32" viewBox="0 0 32 32" fill="none" xmlns="http://www.w3.org/2000/svg">
<rect width="32" height="32" rx="5" fill="#231815"/>
<path d="M16.1898 14.038H11.5569L20.3399 4.99996H25L16.1898 14.038Z" fill="#00E27B"/>
<path d="M24.585 26.1495L18.3288 17.8117L18.667 17.7439C19.7829 17.5067 20.7636 17.0999 21.5076 16.5238C22.2854 15.9137 22.8603 15.168 23.2661 14.2868C23.6381 13.4395 23.841 12.5243 23.841 11.6092C23.8072 7.94873 20.8651 5 17.2466 5H7V26.1495H10.889V8.42323H16.5703C18.295 8.42323 19.7153 9.84676 19.7153 11.5753C19.7153 13.3039 18.295 14.7274 16.5703 14.7274H11.633L20.0196 26.1834H24.585V26.1495Z" fill="white"/>
</svg>
