<?xml version="1.0" standalone="no"?>
<!DOCTYPE svg PUBLIC "-//W3C//DTD SVG 20010904//EN"
 "http://www.w3.org/TR/2001/REC-SVG-20010904/DTD/svg10.dtd">
<svg version="1.0" xmlns="http://www.w3.org/2000/svg"
 width="800.000000pt" height="800.000000pt" viewBox="0 0 800.000000 800.000000"
 preserveAspectRatio="xMidYMid meet">

<g transform="translate(0.000000,800.000000) scale(0.100000,-0.100000)"
fill="#000000" stroke="none">
<path d="M7314 6737 c-12 -7 -394 -344 -848 -749 -454 -406 -828 -738 -832
-738 -3 0 -51 27 -106 61 -1417 861 -3398 782 -4415 -176 -295 -277 -482 -602
-560 -974 -23 -110 -27 -150 -27 -321 -1 -122 4 -223 12 -270 84 -468 296
-857 676 -1235 319 -318 669 -550 1123 -744 1178 -503 2592 -444 3541 150 501
314 822 748 929 1258 23 110 27 150 27 321 1 204 -6 266 -51 445 -81 328 -280
683 -542 967 -33 36 -61 69 -61 72 0 3 287 401 639 884 351 484 644 888 650
900 48 89 -67 199 -155 149z m-2929 -1316 c369 -50 671 -136 987 -283 49 -23
88 -44 87 -47 -1 -9 -1951 -1746 -1958 -1744 -3 1 -449 234 -991 517 -541 284
-988 516 -992 516 -19 0 -4 24 66 107 443 529 1187 877 2038 952 167 15 589 5
763 -18z m1755 -838 c240 -256 399 -589 439 -918 102 -835 -546 -1642 -1601
-1995 -326 -109 -647 -164 -1022 -177 l-189 -6 24 34 c94 137 2275 3129 2280
3129 4 0 35 -30 69 -67z m-3729 -1718 c556 -731 1016 -1335 1021 -1342 7 -9 0
-11 -29 -7 -536 75 -975 231 -1353 482 -347 230 -628 559 -758 885 -108 271
-139 568 -87 836 31 161 157 489 184 479 5 -1 465 -601 1022 -1333z"/>
</g>
</svg>
