<?xml version="1.0" standalone="no"?>
<!DOCTYPE svg PUBLIC "-//W3C//DTD SVG 20010904//EN"
 "http://www.w3.org/TR/2001/REC-SVG-20010904/DTD/svg10.dtd">
<svg version="1.0" xmlns="http://www.w3.org/2000/svg"
 width="2548.000000pt" height="508.000000pt" viewBox="0 0 2548.000000 508.000000"
 preserveAspectRatio="xMidYMid meet">

<g transform="translate(0.000000,508.000000) scale(0.100000,-0.100000)"
fill="#4169E1" stroke="none">
<path d="M675 4504 c-111 -27 -202 -80 -296 -174 -66 -65 -95 -103 -123 -160
-76 -156 -70 -17 -74 -1655 -2 -1082 0 -1490 8 -1545 40 -259 217 -458 476
-536 55 -17 148 -19 1539 -21 1638 -4 1570 -6 1709 60 137 66 258 182 316 303
65 135 62 47 62 1689 -1 1670 4 1557 -74 1709 -83 159 -238 281 -414 326 -75
19 -116 20 -1573 19 -1269 -1 -1505 -3 -1556 -15z m3128 -181 c129 -49 238
-154 289 -280 l23 -58 3 -1494 c2 -1347 1 -1500 -14 -1550 -52 -178 -195 -313
-372 -350 -74 -15 -2894 -16 -2977 0 -179 33 -319 154 -377 328 l-23 66 -3
1425 c-2 981 1 1451 8 1510 26 203 162 363 351 414 46 13 266 15 1544 13
l1490 -2 58 -22z"/>
<path d="M1840 3449 c-201 -116 -445 -256 -542 -311 -98 -55 -189 -113 -203
-130 -20 -24 -25 -40 -25 -84 0 -45 5 -59 28 -83 27 -30 480 -303 730 -440 72
-40 134 -76 136 -80 3 -4 -189 -119 -425 -256 -237 -136 -439 -259 -449 -273
-45 -56 -31 -138 31 -185 19 -13 151 -94 294 -178 230 -135 265 -153 305 -154
40 0 70 15 260 125 188 109 221 124 260 124 39 0 69 -14 237 -112 227 -133
254 -145 297 -137 17 4 137 69 266 145 129 75 257 150 284 165 65 38 88 76 83
138 -3 37 -11 56 -33 78 -16 16 -213 138 -438 272 -225 133 -409 247 -409 252
0 10 203 131 642 382 231 132 245 145 238 231 -5 70 -21 85 -186 179 -75 42
-316 182 -536 310 -343 201 -405 233 -440 233 -34 0 -96 -33 -405 -211z m710
-247 c151 -87 285 -164 296 -172 53 -33 69 -110 35 -167 -20 -33 -63 -59 -443
-278 l-187 -107 -120 67 c-67 36 -121 70 -121 73 0 4 70 47 155 95 180 103
205 127 205 198 0 42 -5 55 -33 85 -28 30 -42 37 -83 41 -48 4 -54 1 -239
-108 -104 -61 -203 -119 -220 -128 -65 -34 -167 -4 -200 59 -20 38 -19 95 2
130 25 43 594 370 643 370 28 0 96 -35 310 -158z m-9 -1212 c160 -93 302 -179
315 -191 57 -53 52 -133 -12 -189 -28 -24 -44 -30 -82 -30 -42 0 -69 13 -262
126 -203 118 -218 125 -260 121 -36 -3 -90 -30 -257 -125 -225 -130 -258 -141
-321 -108 -55 29 -77 63 -77 122 0 45 4 58 27 80 31 32 595 362 620 363 9 1
148 -75 309 -169z"/>
<path d="M23460 2675 l0 -895 175 0 175 0 0 895 0 895 -175 0 -175 0 0 -895z"/>
<path d="M17305 3484 c-115 -16 -168 -29 -225 -51 -240 -96 -399 -303 -454
-593 -21 -106 -21 -349 -1 -461 32 -187 96 -319 205 -430 86 -86 175 -138 297
-171 65 -17 106 -21 243 -21 176 0 261 12 386 55 l69 24 3 147 c1 81 0 147 -4
147 -3 0 -52 -13 -108 -29 -138 -40 -204 -51 -311 -51 -144 0 -231 33 -307
118 -48 53 -72 102 -100 199 -30 104 -32 371 -4 473 61 224 183 338 373 348
116 6 195 -13 374 -91 l36 -16 51 132 c28 73 52 138 54 146 4 18 -110 64 -238
97 -89 22 -273 37 -339 28z"/>
<path d="M5600 3315 l0 -145 230 0 230 0 0 -695 0 -695 180 0 180 0 0 695 0
695 230 0 230 0 0 145 0 145 -640 0 -640 0 0 -145z"/>
<path d="M15125 3213 c-26 -71 -53 -135 -61 -143 -7 -8 -51 -37 -98 -65 l-86
-50 0 -77 0 -78 84 0 85 0 3 -392 c4 -449 4 -449 89 -542 58 -64 118 -92 228
-108 93 -13 239 0 336 30 l60 18 3 131 3 130 -78 -18 c-149 -36 -237 -20 -278
51 -19 33 -20 54 -23 368 l-3 332 185 0 186 0 0 130 0 130 -182 2 -183 3 -3
138 -3 137 -108 0 -108 0 -48 -127z"/>
<path d="M7728 3077 c-92 -26 -189 -100 -265 -202 -28 -38 -33 -31 -62 90
l-23 95 -134 0 -134 0 0 -640 0 -640 174 0 175 0 3 373 c3 367 3 373 27 425
54 120 172 182 345 182 l92 0 12 157 c6 86 10 159 7 162 -12 11 -173 10 -217
-2z"/>
<path d="M8525 3075 c-133 -24 -295 -82 -295 -105 0 -6 25 -60 55 -120 l55
-109 47 20 c148 64 337 89 416 55 65 -27 107 -102 107 -192 0 -40 -1 -42 -37
-48 -21 -3 -85 -6 -143 -6 -261 0 -473 -66 -554 -173 -58 -76 -81 -189 -65
-316 29 -234 210 -356 478 -323 132 16 191 43 277 124 l74 71 16 -38 c8 -20
23 -58 32 -83 l18 -47 122 -3 123 -3 -3 498 c-3 495 -3 498 -26 555 -50 123
-166 210 -324 242 -92 19 -274 20 -373 1z m385 -773 c0 -185 -100 -292 -274
-292 -135 0 -200 79 -165 203 15 55 71 113 127 131 66 21 83 23 205 25 l107 1
0 -68z"/>
<path d="M10221 3074 c-92 -19 -165 -60 -221 -121 -47 -51 -70 -65 -70 -42 0
7 -9 43 -20 80 l-21 69 -134 0 -135 0 0 -640 0 -640 175 0 175 0 0 348 c1 385
9 467 57 561 39 76 97 112 193 119 87 6 149 -15 186 -63 51 -68 54 -94 54
-547 l0 -418 175 0 175 0 0 463 c0 504 -5 553 -56 648 -85 156 -308 232 -533
183z"/>
<path d="M11465 3080 c-138 -22 -257 -84 -311 -161 -52 -76 -67 -193 -39 -303
31 -120 112 -191 326 -287 248 -111 289 -140 289 -206 0 -49 -16 -72 -63 -94
-98 -44 -323 -13 -549 76 -17 7 -18 -4 -18 -134 l0 -142 35 -15 c20 -8 75 -24
123 -36 125 -31 392 -31 505 0 104 28 169 65 225 127 74 81 106 206 83 328
-27 149 -111 226 -356 327 -139 58 -234 109 -252 136 -22 34 -13 83 20 108 25
18 42 21 135 21 98 -1 116 -4 212 -39 58 -21 111 -38 118 -39 8 -1 31 39 56
98 66 153 65 142 9 166 -98 43 -232 70 -363 74 -69 2 -152 0 -185 -5z"/>
<path d="M12735 3084 c-80 -13 -204 -47 -270 -75 l-74 -31 59 -118 60 -119 47
20 c165 71 350 91 427 46 22 -12 48 -34 58 -48 20 -26 47 -163 35 -175 -4 -4
-89 -11 -189 -15 -413 -18 -570 -104 -610 -337 -14 -84 0 -207 32 -275 68
-144 221 -218 417 -203 152 13 239 51 328 147 25 27 49 47 53 45 4 -2 21 -41
37 -85 l29 -81 123 0 123 0 0 465 c0 306 -4 482 -11 517 -33 153 -130 251
-299 303 -55 17 -307 29 -375 19z m342 -800 c-10 -145 -63 -224 -176 -262 -56
-19 -156 -15 -202 9 -107 54 -86 240 34 298 62 30 114 39 241 40 l109 1 -6
-86z"/>
<path d="M14201 3079 c-240 -40 -399 -183 -463 -416 -18 -66 -21 -105 -21
-253 0 -148 3 -187 21 -253 45 -166 136 -282 264 -341 104 -48 173 -61 328
-60 145 1 221 15 318 59 l52 24 0 151 0 150 -68 -34 c-175 -88 -347 -97 -445
-22 -88 67 -122 175 -115 368 7 184 45 271 143 325 45 25 59 28 140 27 75 -1
105 -6 180 -33 50 -17 94 -33 98 -34 8 -2 106 236 107 259 0 17 -129 62 -227
79 -93 16 -227 18 -312 4z"/>
<path d="M18578 3080 c-243 -41 -406 -192 -469 -435 -29 -113 -29 -327 0 -438
57 -216 187 -359 385 -424 70 -22 98 -26 211 -26 150 -1 222 15 328 70 128 68
219 183 269 343 21 67 23 94 23 255 -1 168 -3 185 -28 260 -69 205 -229 348
-439 390 -81 16 -201 18 -280 5z m215 -284 c69 -21 103 -50 137 -120 43 -87
59 -220 42 -354 -21 -163 -76 -248 -181 -279 -111 -32 -231 4 -283 86 -51 81
-63 139 -62 301 0 159 16 227 69 296 56 73 172 102 278 70z"/>
<path d="M20218 3075 c-83 -21 -153 -60 -204 -112 -24 -26 -44 -50 -44 -55 0
-21 -29 -5 -35 20 -3 15 -13 51 -21 80 l-15 52 -135 0 -134 0 0 -640 0 -640
174 0 175 0 3 393 c4 378 5 394 27 462 28 84 84 147 146 164 108 30 203 -2
243 -80 36 -71 42 -146 42 -556 l0 -383 170 0 170 0 0 323 c0 350 9 466 42
554 39 108 125 161 243 151 87 -7 143 -62 164 -159 7 -31 11 -205 11 -459 l0
-410 175 0 175 0 0 468 c0 504 -4 552 -53 649 -90 177 -361 245 -597 150 -66
-27 -105 -56 -145 -109 -16 -21 -36 -38 -44 -38 -9 1 -31 21 -49 46 -39 53
-106 98 -177 120 -73 22 -237 27 -307 9z"/>
<path d="M22553 3075 c-82 -22 -129 -51 -193 -117 -33 -34 -63 -59 -66 -56 -3
3 -15 39 -27 79 l-23 74 -142 3 -142 3 0 -926 0 -925 175 0 175 0 0 268 c0
147 -5 305 -10 351 -5 47 -7 87 -5 89 3 3 30 -18 60 -47 100 -95 237 -135 382
-113 198 31 338 174 399 407 15 56 18 108 18 260 0 152 -3 204 -18 260 -57
218 -190 362 -365 395 -73 14 -155 12 -218 -5z m95 -281 c20 -8 52 -29 70 -46
110 -107 120 -474 17 -630 -44 -66 -139 -98 -230 -78 -140 31 -195 143 -195
392 0 208 39 310 133 354 62 28 149 32 205 8z"/>
<path d="M24003 3048 c2 -7 118 -295 256 -640 l250 -627 -19 -57 c-28 -80 -63
-136 -110 -177 -54 -46 -110 -61 -215 -55 l-85 4 0 -136 0 -137 38 -7 c69 -11
227 -6 287 9 128 34 251 129 325 251 20 34 155 377 321 821 l287 763 -187 0
-187 0 -128 -387 c-71 -214 -136 -425 -145 -470 -9 -46 -19 -83 -22 -83 -4 0
-9 31 -13 68 -5 48 -47 189 -140 468 l-132 399 -193 3 c-153 2 -192 0 -188
-10z"/>
</g>
</svg>
