<svg width="16" height="16" viewBox="0 0 16 16" fill="none" xmlns="http://www.w3.org/2000/svg">
<g clip-path="url(#clip0_579_10196)">
<path d="M14.5421 6.65581L11.5711 2.88776C11.5169 2.81897 11.4479 2.76335 11.3691 2.72507C11.2904 2.68679 11.204 2.66685 11.1164 2.66675H9.94252C9.82115 2.66675 9.75412 2.80624 9.82839 2.90225L12.4425 6.21741H1.47891C1.3992 6.21741 1.33398 6.28262 1.33398 6.36233V7.44927C1.33398 7.52898 1.3992 7.59419 1.47891 7.59419H14.0856C14.5711 7.59419 14.841 7.03623 14.5421 6.65581Z" fill="black"/>
<path d="M1.45793 9.76436L4.42889 13.5324C4.48307 13.6012 4.55212 13.6568 4.63087 13.6951C4.70963 13.7334 4.79603 13.7533 4.88359 13.7534H6.05748C6.17885 13.7534 6.24588 13.6139 6.17161 13.5179L3.55753 10.2028L14.5211 10.2028C14.6008 10.2028 14.666 10.1375 14.666 10.0578V8.9709C14.666 8.89119 14.6008 8.82597 14.5211 8.82597L1.91444 8.82597C1.42894 8.82597 1.15902 9.38393 1.45793 9.76436Z" fill="black"/>
</g>
<defs>
<clipPath id="clip0_579_10196">
<rect width="16" height="16" fill="white"/>
</clipPath>
</defs>
</svg>
