<svg width="20" height="20" viewBox="0 0 20 20" fill="none" xmlns="http://www.w3.org/2000/svg">
<g id="icons/outline/icon-add-users">
<path id="Vector" d="M18.4822 15.8014H16.6965V14.0157C16.6965 13.9174 16.6162 13.8371 16.5179 13.8371H15.4465C15.3483 13.8371 15.2679 13.9174 15.2679 14.0157V15.8014H13.4822C13.384 15.8014 13.3037 15.8817 13.3037 15.9799V17.0514C13.3037 17.1496 13.384 17.2299 13.4822 17.2299H15.2679V19.0157C15.2679 19.1139 15.3483 19.1942 15.4465 19.1942H16.5179C16.6162 19.1942 16.6965 19.1139 16.6965 19.0157V17.2299H18.4822C18.5804 17.2299 18.6608 17.1496 18.6608 17.0514V15.9799C18.6608 15.8817 18.5804 15.8014 18.4822 15.8014ZM6.90857 9.69422C6.88848 9.50003 6.87732 9.3036 6.87732 9.10494C6.87732 8.75003 6.9108 8.40405 6.9733 8.06699C6.98893 7.98663 6.94652 7.90405 6.87286 7.87056C6.56929 7.7344 6.29027 7.5469 6.0492 7.3103C5.76513 7.03486 5.5416 6.70325 5.39287 6.3366C5.24413 5.96995 5.17346 5.57632 5.18536 5.18083C5.20545 4.46431 5.49339 3.78351 5.99563 3.27012C6.54697 2.70538 7.28804 2.39735 8.07598 2.40628C8.78804 2.41297 9.47554 2.68753 9.99563 3.17413C10.172 3.33931 10.3238 3.52235 10.451 3.71878C10.4956 3.78797 10.5827 3.81699 10.6586 3.79021C11.0514 3.65404 11.4666 3.55806 11.8929 3.51342C12.0179 3.50003 12.0894 3.3661 12.0336 3.25449C11.3081 1.81922 9.82598 0.828152 8.1117 0.801366C5.63848 0.76342 3.57598 2.79244 3.57598 5.26565C3.57598 6.66744 4.22107 7.91744 5.23223 8.73663C4.52241 9.06476 3.86839 9.51789 3.30143 10.0848C2.07822 11.3058 1.38625 12.9174 1.34161 14.6384C1.34101 14.6622 1.34519 14.6859 1.3539 14.7081C1.36261 14.7303 1.37566 14.7505 1.39231 14.7676C1.40895 14.7846 1.42884 14.7982 1.4508 14.8074C1.47276 14.8167 1.49635 14.8215 1.52018 14.8215H2.77241C2.86839 14.8215 2.94875 14.7456 2.95098 14.6496C2.99339 13.3549 3.51795 12.1429 4.43982 11.2232C5.09607 10.567 5.89964 10.1116 6.77688 9.89065C6.8617 9.8661 6.91973 9.78351 6.90857 9.69422ZM16.9644 9.10494C16.9644 6.66297 15.0023 4.6786 12.5693 4.64065C10.0961 4.60271 8.0358 6.63172 8.0358 9.10494C8.0358 10.5067 8.68313 11.7567 9.69205 12.5759C8.97488 12.9084 8.32201 13.3648 7.76348 13.9241C6.54027 15.1451 5.8483 16.7567 5.80366 18.4755C5.80307 18.4993 5.80724 18.523 5.81595 18.5452C5.82466 18.5674 5.83772 18.5876 5.85436 18.6046C5.871 18.6217 5.89089 18.6353 5.91285 18.6445C5.93481 18.6538 5.9584 18.6585 5.98223 18.6585H7.23223C7.32822 18.6585 7.40857 18.5826 7.4108 18.4866C7.45322 17.192 7.97777 15.9799 8.89964 15.0603C9.8617 14.0982 11.1385 13.5692 12.5001 13.5692C14.9644 13.5692 16.9644 11.5715 16.9644 9.10494ZM14.5202 11.125C13.98 11.6652 13.2635 11.9621 12.5001 11.9621C11.7367 11.9621 11.0202 11.6652 10.48 11.125C10.2104 10.8569 9.99746 10.5373 9.85367 10.1854C9.70989 9.83337 9.63823 9.45611 9.64295 9.07592C9.64964 8.34378 9.94205 7.63619 10.4532 7.11163C10.9889 6.56253 11.7054 6.25672 12.4711 6.24779C13.2278 6.2411 13.9621 6.53574 14.5023 7.06476C15.0559 7.60717 15.3595 8.33262 15.3595 9.10494C15.3572 9.86833 15.0604 10.5848 14.5202 11.125Z" fill="currentColor"/>
</g>
</svg>
